<svg xmlns="http://www.w3.org/2000/svg">
<defs>
<font id="HandOfSeanDemo" horiz-adv-x="1949" >
  <font-face 
    font-family="Hand Of Sean (Demo)"
    font-weight="500"
    font-stretch="normal"
    units-per-em="2048"
    panose-1="0 0 0 0 0 0 0 0 0 0"
    ascent="1638"
    descent="-410"
    x-height="1042"
    cap-height="2104"
    bbox="-456.998 -756.004 2994 2755"
    underline-thickness="150"
    underline-position="-142"
    unicode-range="U+001D-U+2122"
  />
<missing-glyph horiz-adv-x="2073" 
d="M589 1985c151.333 0 247.333 -61.668 288 -185.001l7 -45v-35c0 -118.667 -81.333 -212 -244 -280c-70 -23.333 -139.667 -35 -209 -35c-154 0 -258.333 54 -313 162c-11.333 32.667 -17 65.334 -17 98.001v18c0 164 128.333 262.333 385 295
c12.667 4.66699 38.667 7 78 7h25zM1850 1735c6.66699 -27.333 10 -48.666 10 -63.999v-29c0 -84 -53.667 -141.333 -161 -172l-86 -10c-124.667 0 -228 44.333 -310 133c-28.667 41.333 -43 85.666 -43 132.999c0 98.667 62.333 154.667 187 168
c38 7.33301 68.667 11 92 11c151.333 0 255 -56.667 311 -170zM490 1483l84.001 -0.000976562l-12 94c0 50.667 22 80 66 88c13.333 -5.33301 20 -19 20 -41l-2 -68c0 -16 6 -27.333 18 -34h2c79.333 66.667 121.666 105.334 126.999 116.001c12.667 20.667 19 46.667 19 78
v6c0 76.667 -42.333 128.667 -127 156c-20.667 5.33301 -44.667 8 -72 8h-24c-109.333 0 -205 -42.333 -287 -127c-23.333 -34 -35 -70.667 -35 -110c0 -110.667 74.333 -166 223 -166zM1320 1702c0 -38 35.334 -79.667 106.001 -125l2 2c0 68 18 108.333 54 121
c24 -18 36 -52.333 36 -103v-79l52 -2c77.333 0 132.666 27 165.999 81l2 48c0 81.333 -48 137 -144 167l-78 7c-92.667 0 -156.667 -31 -192 -93zM2024 1227c-8 -93.333 -58.333 -246.999 -151 -460.999c-57.333 -116 -133.333 -233.333 -228 -352
c-237.333 -269.333 -502 -404 -794 -404h-19c-320.667 0 -535.667 171.333 -645 514c-40.667 114.667 -76.667 263.667 -108 447l-29 186l6 2c340 19.333 996 42.666 1968 69.999v-2zM230.002 1085c16.667 -86 40 -247.668 70 -485.001c30 -156.667 82 -274 156 -352

<glyph glyph-name=".notdef" horiz-adv-x="2073" 
d="M589 1985c151.333 0 247.333 -61.668 288 -185.001l7 -45v-35c0 -118.667 -81.333 -212 -244 -280c-70 -23.333 -139.667 -35 -209 -35c-154 0 -258.333 54 -313 162c-11.333 32.667 -17 65.334 -17 98.001v18c0 164 128.333 262.333 385 295
c12.667 4.66699 38.667 7 78 7h25zM1850 1735c6.66699 -27.333 10 -48.666 10 -63.999v-29c0 -84 -53.667 -141.333 -161 -172l-86 -10c-124.667 0 -228 44.333 -310 133c-28.667 41.333 -43 85.666 -43 132.999c0 98.667 62.333 154.667 187 168
c38 7.33301 68.667 11 92 11c151.333 0 255 -56.667 311 -170zM490 1483l84.001 -0.000976562l-12 94c0 50.667 22 80 66 88c13.333 -5.33301 20 -19 20 -41l-2 -68c0 -16 6 -27.333 18 -34h2c79.333 66.667 121.666 105.334 126.999 116.001c12.667 20.667 19 46.667 19 78
v6c0 76.667 -42.333 128.667 -127 156c-20.667 5.33301 -44.667 8 -72 8h-24c-109.333 0 -205 -42.333 -287 -127c-23.333 -34 -35 -70.667 -35 -110c0 -110.667 74.333 -166 223 -166zM1320 1702c0 -38 35.334 -79.667 106.001 -125l2 2c0 68 18 108.333 54 121
c24 -18 36 -52.333 36 -103v-79l52 -2c77.333 0 132.666 27 165.999 81l2 48c0 81.333 -48 137 -144 167l-78 7c-92.667 0 -156.667 -31 -192 -93zM2024 1227c-8 -93.333 -58.333 -246.999 -151 -460.999c-57.333 -116 -133.333 -233.333 -228 -352
c-237.333 -269.333 -502 -404 -794 -404h-19c-320.667 0 -535.667 171.333 -645 514c-40.667 114.667 -76.667 263.667 -108 447l-29 186l6 2c340 19.333 996 42.666 1968 69.999v-2zM230.002 1085c16.667 -86 40 -247.668 70 -485.001c30 -156.667 82 -274 156 -352
c96.667 -101.333 215.334 -152 356.001 -152h18c206.667 0 430 91 670 273c135.333 114.667 218.666 213.667 249.999 297c14.667 32.667 22 61.334 22 86.001v8c0 23.333 -16.333 60 -49 110l-6 37c0 20.667 15 58.334 45 113.001c6.66699 10.667 10.667 25.667 12 45
c0 39.333 -15.667 59 -47 59c-78.667 7.33301 -185 11.666 -319 12.999c-116 0 -482.667 -16.667 -1100 -50zM326.002 683.998c72.667 -42 184 -63 334 -63c127.333 0 297.333 16.333 510 49v-6c-208.667 -93.333 -386.667 -140 -534 -140c-157.333 0 -262 53.333 -314 160
h4z" />
    <glyph glyph-name="space" unicode=" " horiz-adv-x="1031" 
 />
    <glyph glyph-name="space" unicode="&#xa0;" horiz-adv-x="1031" 
 />
    <glyph glyph-name="exclam" unicode="!" horiz-adv-x="676" 
d="M327 226c58.667 0 106 -16.335 142 -49.002c32 -28.667 48 -63.667 48 -105c0 -40 -15.667 -73.333 -47 -100c-34 -28 -79.667 -42 -137 -42c-18.667 0 -38.667 1.33301 -60 4c-34 6.66699 -60.667 25.334 -80 56.001c-14.667 24.667 -22 51.334 -22 80.001v11
c2 36 14.667 67 38 93c28 30.667 67.333 48 118 52zM518 2086c20.667 -26 30.999 -67 30.999 -123c0 -45.333 -6.66699 -99.666 -20 -162.999c-6 -28.667 -10 -48.334 -12 -59.001c-20.667 -125.333 -31 -259.333 -31 -402v-53c0.666992 -42.667 1 -80 1 -112
s-0.333008 -59 -1 -81c-0.666992 -32 -1 -62 -1 -90c0 -62.667 2.33301 -114.667 7 -156l5 -51c8.66699 -72 13 -133.333 13 -184c0 -35.333 -2 -65.666 -6 -90.999c-18.667 -98.667 -60.667 -148 -126 -148c-34 0 -65.667 10 -95 30c-31.333 22.667 -53 54.667 -65 96
c-15.333 52.667 -23 124.667 -23 216c0 48 2.33301 101.667 7 161l5 -11c4 67.333 6 146.666 6 237.999c0 51.333 -0.666992 106 -2 164l-2 100c0 16 -2.33301 52.667 -7 110c-11.333 134 -17 232.333 -17 295c0 13.333 0.666992 25 2 35
c6.66699 122 37.334 212.667 92.001 272c31.333 32.667 69 49 113 49h12c55.333 -2 93.333 -16 114 -42z" />
    <glyph glyph-name="quotedbl" unicode="&#x22;" horiz-adv-x="757" 
d="M76 2095c44.667 0 95.667 -17.3311 153 -51.998c9.33301 -126.667 14 -239.334 14 -338.001c0 -156.667 -12 -277 -36 -361c-18 -28 -56.333 -42 -115 -42c-18 0 -38 1.33301 -60 4c-3.33301 -1.33301 -6.33301 -2 -9 -2c-26.667 0 -41.667 64.667 -45 194
c-0.666992 18 -1 37.667 -1 59c0 32 0.666992 67.333 2 106l3 110c0 23.333 -1.66699 58 -5 104c-4.66699 51.333 -7 85.666 -7 102.999v12c0 60.667 14 91 42 91h4c18.667 8 38.667 12 60 12zM640 1703c0 -156 -12.333 -275.999 -37 -359.999c-18 -27.333 -56 -41 -114 -41
c-18 0 -38.333 1.33301 -61 4c-3.33301 -1.33301 -6.33301 -2 -9 -2c-26.667 0 -41.667 64.667 -45 194c-0.666992 18 -1 37.667 -1 59c0 32 0.666992 67.333 2 106c0 14.667 0.666992 36.667 2 66c0.666992 21.333 1 35.333 1 42c0 24.667 -1.66699 60 -5 106
c-4.66699 51.333 -7 85.666 -7 102.999v12c0 60.667 14 91 42 91h4c18.667 8 38.667 12 60 12c44.667 0 95.667 -17.333 153 -52c10 -128 15 -241.333 15 -340z" />
    <glyph glyph-name="numbersign" unicode="#" horiz-adv-x="1690" 
d="M928 655c3.33301 0.666992 7.33203 1 11.999 1c-2 64.667 -6.33301 138.334 -13 221.001l-3 51l-15 1c-51.333 3.33301 -76.333 5 -75 5h-6l-57 -8c-49.333 -3.33301 -72.666 -5 -69.999 -5v-6c0 -2 -0.333008 -3.66699 -1 -5c-3.33301 -38 -5 -63.333 -5 -76
c0 -16.667 2.66699 -54.334 8 -113.001c4 -49.333 6.33301 -76.333 7 -81c48 2 103.667 6 167 12zM1227 670c27.333 0.666992 53.333 1 78 1c137.333 0 230.333 -20 279 -60c20.667 -16.667 31.667 -43.667 33 -81v-2c0 -24 -10 -60.667 -30 -110
c-48.667 -40.667 -150.667 -61 -306 -61h-41c0.666992 -20 1 -39 1 -57c-13.333 -138 -39.666 -230.333 -78.999 -277c-16.667 -20 -39.667 -30 -69 -30c-10 0 -20.667 2 -32 6c-76 15.333 -118.333 61.666 -127 138.999c-2 17.333 -3 38.333 -3 63
c0 38.667 2.33301 69.667 7 93c2.66699 30.667 4 51 4 61v13l-33 2c-18 1.33301 -36 2 -54 2c-28.667 0 -56.667 -1.66699 -84 -5h1l-52 -4c0.666992 -24.667 1 -48.334 1 -71.001c0 -132.667 -19.333 -222.334 -58 -269.001c-30 -20 -63.333 -30 -100 -30
c-9.33301 0 -19.666 2 -30.999 6c-50 15.333 -79 61.666 -87 138.999c-2 17.333 -3 39 -3 65c-16 14.667 -24 37.334 -24 68.001c0 7.33301 0.333008 15 1 23c2 26 3 44.667 3 56c-28 -0.666992 -54.667 -1 -80 -1c-145.333 20 -241.666 49.667 -288.999 89
c-20 16 -30 42.333 -30 79c0 10 2 27.333 6 52c15.333 42.667 61.666 68.334 138.999 77.001c17.333 2 38 3 62 3c38.667 0 73.334 -2.33301 104.001 -7c32 -2.66699 52.333 -4 61 -4h13l13 -1c-2 70.667 -6.33301 150.667 -13 240l-2 32
c-22.667 -0.666992 -44.334 -1 -65.001 -1c-145.333 0 -241.333 19.667 -288 59c-20 30 -30 56.333 -30 79c0 10 2 20.667 6 32c15.333 56 62.666 90 141.999 102c56.667 8.66699 100.667 13 132 13c12 0 22.333 -0.666992 31 -2l57 -4c-1.33301 34.667 -2 64 -2 88
c20 138 50 231 90 279c23.333 20.667 47 31.667 71 33h2c37.333 0 71 -10 101 -30c40 -48 60 -146.333 60 -295c0 -23.333 -0.333008 -47.666 -1 -72.999c50 2.66699 105 7 165 13l33 2c-1.33301 30 -2 55 -2 75c0 135.333 30 227 90 275c30.667 20.667 58 31.667 82 33h2
c30 0 53.333 -10 70 -30c40.667 -47.333 67.667 -144 81 -290c0 -15.333 -0.333008 -31.333 -1 -48c27.333 1.33301 53.333 2 78 2c134.667 -13.333 226 -40 274 -80c20.667 -30.667 31.667 -58 33 -82v-2c0 -23.333 -10 -50 -30 -80c-48 -40.667 -151 -61 -309 -61
c-18.667 0 -38 0.333008 -58 1v-7c-3.33301 -39.333 -5 -64.666 -5 -75.999v-6c0 -20 2.66699 -55.667 8 -107c1.33301 -20 2.66602 -37 3.99902 -51z" />
    <glyph glyph-name="dollar" unicode="$" horiz-adv-x="1989" 
d="M622 1580c-9.33301 -1.33301 -18.667 -3.00098 -28 -5.00098c-159.333 -29.333 -240.666 -62.666 -243.999 -99.999v-14c5.33301 -75.333 107.666 -141.333 306.999 -198l-9 106c-0.666992 15.333 -5 53.333 -13 114zM980.999 891.999
c11.333 -160.667 17.001 -247.667 17.001 -261l2 -36c0.666992 -20.667 1.66699 -40.667 3 -60c4 -58 10 -111 18 -159l9 -55c2 -8 3.66699 -16.333 5 -25c17.333 2.66699 35.333 5.66699 54 9c212.667 43.333 391.667 150.666 537 321.999c16.667 20 25 38 25 54v4
c-0.666992 12.667 -6.66699 24.334 -18 35.001c-23.333 21.333 -73 42.333 -149 63c-38.667 10 -128.334 29 -269.001 57zM592 1895c-2.66699 52.667 -3.99805 101.334 -3.99805 146.001c0 166 20.333 279.333 61 340c28.667 42.667 67 65.667 115 69l12 1h9
c52 0 90.333 -15.667 115 -47c24 -30 38.333 -79.333 43 -148c1.33301 -15.333 2 -31.666 2 -48.999c0 -38 -2.66699 -81 -8 -129c-3.33301 -30.667 -5 -51.334 -5 -62.001c-2.66699 -30.667 -4.66699 -63.667 -6 -99c72.667 -6 146 -19.333 220 -40
c154.667 -43.333 234.667 -105 240 -185c0.666992 -4 1 -8 1 -12s-0.333008 -8 -1 -12c-6.66699 -54.667 -18 -92 -34 -112c-10 -13.333 -25 -20.666 -45 -21.999c-6 0 -13 0.333008 -21 1c-16 1.33301 -52 9.66602 -108 24.999c-60 17.333 -112.667 29.333 -158 36
c-28.667 4 -58.334 6.66699 -89.001 8c2 -44.667 4.66699 -91 8 -139c3.33301 -45.333 7 -92 11 -140l7 -90l4 -42l82 -17c156.667 -32.667 271.667 -58.334 345 -77.001c228.667 -60.667 384 -119.334 466 -176.001c75.333 -51.333 115.666 -116.666 120.999 -195.999
c0.666992 -5.33301 1 -10.666 1 -15.999c0 -16.667 -1.66699 -33.667 -5 -51c-18.667 -121.333 -103.667 -244.333 -255 -369c-160.667 -132 -346 -221 -556 -267c-28.667 -6.66699 -57.334 -12 -86.001 -16l4 -50c3.33301 -46.667 5 -90.667 5 -132
s-1.66699 -79.666 -5 -114.999c-10.667 -121.333 -52.334 -184.666 -125.001 -189.999h-11c-32 0 -62 10.333 -90 31c-36 26 -61.667 63.333 -77 112c-23.333 76.667 -40.333 191.667 -51 345v4c-71.333 13.333 -141.666 34 -210.999 62
c-212.667 88 -325.667 217.667 -339 389l-1 10c-1.33301 15.333 -2 30.333 -2 45c0 123.333 41 201.666 123 234.999c16.667 6 33.334 9.66699 50.001 11h12c13.333 0 26.666 -1.66699 39.999 -5c32.667 -10 52.334 -26.333 59.001 -49
c1.33301 -4.66699 2 -10.334 2 -17.001c0.666992 -6 1 -12.667 1 -20c0 -8 -0.333008 -16.667 -1 -26c-3.33301 -33.333 -5 -58 -5 -74v-7l1 -9c4.66699 -67.333 36.334 -121 95.001 -161c51.333 -34.667 106 -61.334 164 -80.001c0 22 -0.333008 44.667 -1 68h4
c-2 97.333 -8 217 -18 359c-4.66699 70 -10.334 145.667 -17.001 227c-214 60.667 -365.333 113.667 -454 159c-166 85.333 -255.333 196.333 -268 333v5c-0.666992 5.33301 -1 11 -1 17c0 122 91.667 223.667 275 305c106 46.667 226 81.667 360 105z" />
    <glyph glyph-name="percent" unicode="%" horiz-adv-x="2118" 
d="M1678 322c22 32 33.002 69.333 33.002 112c0 41.333 -10 88 -30 140c-30.667 79.333 -73.667 119 -129 119c-48.667 0 -85.334 -25.333 -110.001 -76c-12 -24 -18 -49 -18 -75c0 -46.667 20 -96 60 -148c53.333 -68.667 100.666 -103 141.999 -103
c20.667 0 38 10.333 52 31zM1888 828c82 -104 123 -230.001 123 -378.001v-17c-2.66699 -128.667 -35.667 -238 -99 -328c-70.667 -100 -162.667 -150 -276 -150c-76 0 -155 24.667 -237 74c-100.667 60 -178.667 169.333 -234 328c-34.667 96.667 -52 187.667 -52 273
c0 54 7 105.667 21 155c22.667 82.667 64 144.334 124 185.001c52.667 36 116 54 190 54c10.667 0 21.667 -0.333008 33 -1c175.333 -6.66699 311 -71.667 407 -195zM304.002 1926c-12 -24 -17.998 -48.999 -17.998 -74.999c0 -46.667 20 -96 60 -148
c53.333 -69.333 100.666 -104 141.999 -104c20 0 37.333 10.333 52 31c22 32 33 69.667 33 113c0 41.333 -10 87.666 -30 138.999c-30.667 80 -73.667 120 -129 120c-48.667 0 -85.334 -25.333 -110.001 -76zM271.004 1337c-100.667 60 -179 169.333 -235 328
c-34 96.667 -51 187.667 -51 273c0 54 7 105.667 21 155c22.667 82.667 63.667 144.667 123 186c52 35.333 114.667 53 188 53c11.333 0 23.333 -0.333008 36 -1c175.333 -6.66699 311 -71.334 407 -194.001c82 -105.333 123 -232.666 123 -381.999v-14
c-2.66699 -128 -36 -237.333 -100 -328c-70 -100 -161.667 -150 -275 -150c-76 0 -155 24.667 -237 74zM1177 1196l-110.999 -143c-3.33301 -4.66699 -33 -42.334 -89 -113.001c-95.333 -122.667 -148 -190 -158 -202l-23 -27c-50.667 -62 -92.667 -119.667 -126 -173
l-28 -44c-130 -211.333 -248 -366 -354 -464c-52 -48 -98.667 -72 -140 -72c-23.333 0 -44.333 7.33301 -63 22c-27.333 20.667 -45.333 48.667 -54 84c-3.33301 13.333 -5 27 -5 41c0 27.333 6.33301 55.333 19 84c53.333 116.667 190.666 300.667 411.999 552l4 -2
c102 117.333 235 286 399 506l185 241c9.33301 12.667 29.333 42 60 88c262.667 390.667 456.667 600.334 582 629.001c13.333 3.33301 26.333 5 39 5c35.333 0 67 -13 95 -39c40 -34 60 -69 60 -105v-5c-3.33301 -62.667 -62.333 -145 -177 -247
c-22 -19.333 -36.667 -33 -44 -41c-116 -109.333 -260 -278.333 -432 -507z" />
    <glyph glyph-name="ampersand" unicode="&#x26;" horiz-adv-x="1905" 
d="M751 1064c-0.666992 39.333 -1 64.666 -1 75.999c0 12 0.166992 32.5 0.5 61.5s0.5 85.5 0.5 169.5c-130 -23.333 -214.167 -51.666 -252.5 -84.999s-57.5 -68.333 -57.5 -105c0 -13.333 6.33301 -25.666 19 -36.999c27.333 -48.667 124.333 -75.334 291 -80.001z
M747 302c0 70 -2.33301 173.667 -7 311c-88.667 -3.33301 -165.5 -23.333 -230.5 -60s-103.5 -68.667 -115.5 -96c-13.333 -18 -20 -28.667 -20 -32c0 -10 4.33301 -19 13 -27c31.333 -38 151.333 -70 360 -96zM1802 639c19.333 17.333 36.668 25.999 52.001 25.999
c27.333 0 47 -26.333 59 -79c8.66699 -39.333 13 -77.666 13 -114.999c0 -22.667 -1.33301 -45 -4 -67c-22 -135.333 -158 -237.333 -408 -306c-216 -68 -345 -102 -387 -102c-8.66699 0 -13 -6.66699 -13 -20c0 -0.666992 0.333008 -1.66699 1 -3
c0 -15.333 2.66699 -53 8 -113c5.33301 -58.667 8 -106 8 -142c0 -12 -0.333008 -23 -1 -33c-6 -97.333 -39.333 -146 -100 -146c-48 0 -88 7 -120 21c-50 45.333 -83 143 -99 293c-16 56 -36.667 98 -62 126c-34.667 39.333 -100.334 66.666 -197.001 81.999
c-1.33301 0.666992 -50 10 -146 28c-68.667 12 -124.667 25.333 -168 40c-132.667 42.667 -207 108.334 -223 197.001c-3.33301 16 -5 31.667 -5 47c0 102.667 61.667 197.667 185 285c66 46 163.333 108 292 186c-72.667 14 -151 52 -235 114
c-84.667 61.333 -127 135 -127 221c0 19.333 2.33301 39.666 7 60.999c22 106 82.667 190.333 182 253c36.667 24 140.334 67.333 311.001 130c91.333 15.333 149.666 78.333 174.999 189c29.333 123.333 58 201 86 233c33.333 38 74.666 57 123.999 57
c27.333 0 49.666 -21.667 66.999 -65c20.667 -48 31 -96.333 31 -145c0 -24 -2.33301 -48 -7 -72c-2 -8 -3 -16 -3 -24c-12.667 -26.667 -19 -49 -19 -67c0 -33.333 21.333 -52.666 64 -57.999c66 -8 126.667 -16.333 182 -25c54.667 -9.33301 89 -16 103 -20
c86 -25.333 136.333 -68.333 151 -129c2 -8.66699 3 -16.667 3 -24c0 -50 -42 -82.333 -126 -97c-24.667 -4 -56.667 -6 -96 -6c-82 0 -186 1.66699 -312 5l-4 -343h11c34.667 0 70.334 -3.66699 107.001 -11c55.333 -18 87.333 -52 96 -102c1.33301 -8 2 -15.667 2 -23
c0 -51.333 -22.333 -95 -67 -131c-38.667 -19.333 -79.334 -33 -122.001 -41c-9.33301 -93.333 -14 -172.333 -14 -237c0 -45.333 4.33301 -86.333 13 -123c9.33301 -38.667 38.333 -58 87 -58c8.66699 0 18.334 1 29.001 3c21.333 2 36.333 7.66699 45 17
c39.333 11.333 61 17.333 65 18c218.667 28.667 387.334 127 506.001 295z" />
    <glyph glyph-name="quotesingle" unicode="'" horiz-adv-x="331" 
d="M244 1708c0 -156.667 -12 -277.331 -36 -361.998c-18 -27.333 -56 -41 -114 -41c-18 0 -38.333 1.33301 -61 4c-3.33301 -1.33301 -6.33301 -2 -9 -2c-26.667 0 -41.667 64.667 -45 194c-0.666992 18 -1 37.667 -1 59c0 32 0.666992 67.333 2 106
c0 14.667 0.666992 36.667 2 66c0.666992 21.333 1 35.333 1 42c0 24.667 -1.66699 60 -5 106c-4.66699 51.333 -7 85.666 -7 102.999v12c0 60.667 14 91 42 91h4c18.667 8 38.667 12 60 12c44.667 0 95.667 -17.333 153 -52c9.33301 -126.667 14 -239.334 14 -338.001z" />
    <glyph glyph-name="parenleft" unicode="(" horiz-adv-x="1083" 
d="M875 40c93.333 -71.333 159.333 -126.003 198 -164.003c61.333 -60 92 -109 92 -147c0 -3.33301 -0.333008 -6.66602 -1 -9.99902c-6 -39.333 -51.333 -74.666 -136 -105.999c-29.333 -8.66699 -59 -13 -89 -13c-99.333 0 -198.333 46.333 -297 139
c-88.667 84.667 -170.334 200.334 -245.001 347.001c-152.667 299.333 -229 593 -229 881c0 316.667 85.333 635.667 256 957c201.333 379.333 447.333 569 738 569c8.66699 0 17.334 -0.333008 26.001 -1c28.667 -16.667 43.667 -36.667 45 -60v-4
c0 -52.667 -47.333 -124.334 -142 -215.001c-75.333 -72.667 -157 -137.667 -245 -195c-114 -90 -210.333 -236 -289 -438c-73.333 -188.667 -110 -367 -110 -535c-1.33301 -24.667 -2 -49 -2 -73c0 -133.333 18.667 -264.666 56 -393.999
c44.667 -152 109.667 -280 195 -384c24 -30 83.667 -81.333 179 -154z" />
    <glyph glyph-name="parenright" unicode=")" horiz-adv-x="1119" 
d="M657 1927c106 -178 175.334 -352 208.001 -522c16 -86 24 -178.667 24 -278c0 -97.333 -7.66699 -200.666 -23 -309.999c-29.333 -214.667 -93.666 -416.334 -192.999 -605.001c-98.667 -189.333 -220.334 -344 -365.001 -464c-116.667 -96 -212.334 -144 -287.001 -144
c-11.333 0 -20.666 2.66699 -27.999 8c-58.667 35.333 -88.334 79.333 -89.001 132v3c0 54 41.667 108.667 125 164c214.667 144 378.334 359.333 491.001 646c69.333 177.333 104 349.333 104 516c0 120 -18.333 237.333 -55 352c-54 168 -169.667 356.333 -347 565
c-100.667 119.333 -173.667 215 -219 287c-14.667 23.333 -22 47.333 -22 72c0 23.333 6.66699 47 20 71c29.333 52.667 67.666 79.334 114.999 80c132.667 0 313 -191 541 -573z" />
    <glyph glyph-name="asterisk" unicode="*" horiz-adv-x="898" 
d="M781 1383c22.667 -28.667 33.9961 -53.999 33.9961 -75.999c0 -9.33301 -2 -18.333 -6 -27c-15.333 -32 -54.666 -48 -117.999 -48c-84.667 0 -147.334 16 -188.001 48c-54 42.667 -91.667 65.667 -113 69h-6c-16.667 0 -42.334 -9 -77.001 -27
c-42 -21.333 -78 -37.666 -108 -48.999c-30.667 -12 -57 -18 -79 -18c-38 0 -62.667 15.667 -74 47c-4.66699 12.667 -7 25.667 -7 39c0 44 23.667 91.667 71 143c-8 3.33301 -19.667 7.66602 -35 12.999c-75.333 27.333 -123.666 57.333 -144.999 90
c-12.667 19.333 -19 37 -19 53c0 10.667 2.66699 20.667 8 30c18.667 35.333 70.334 53 155.001 53c38 0 67.667 -2.66699 89 -8c9.33301 -2.66699 17.333 -4 24 -4c9.33301 0 16 2.33301 20 7c10.667 10.667 16 42.667 16 96c0 11.333 -0.333008 23.666 -1 36.999
c-0.666992 12.667 -1 24.667 -1 36c0 88.667 13.667 147 41 175c22.667 23.333 53.334 35 92.001 35h11l11 -9c72 -82.667 111.667 -195 119 -337l20 6c74.667 22 128.667 33 162 33c45.333 0 73.333 -15 84 -45c8.66699 -22 13 -42.333 13 -61
c0 -19.333 -4.33301 -37 -13 -53c-21.333 -42 -79.666 -75.667 -174.999 -101c14.667 -18 45.334 -40.667 92.001 -68c50.667 -30 85 -56.333 103 -79z" />
    <glyph glyph-name="plus" unicode="+" horiz-adv-x="1471" 
d="M1261 858c32.667 -34 49.001 -81.332 49.001 -141.999v-11c-1.33301 -60.667 -59.666 -91 -174.999 -91c-20 0 -47.333 0.666992 -82 2c-36.667 1.33301 -63 2 -79 2c-52.667 0 -88.334 -5.33301 -107.001 -16c1.33301 -18 5 -47.667 11 -89
c8 -54.667 12 -100.667 12 -138c0 -32.667 -3 -59 -9 -79c-20 -70.667 -76.667 -120.667 -170 -150c-13.333 -4 -26 -6 -38 -6c-26 0 -48 9.33301 -66 28c-34 35.333 -51 119.333 -51 252c0 30 1 62.333 3 97c1.33301 27.333 2 46.666 2 57.999
c-30.667 -2 -62.334 -3 -95.001 -3c-172.667 0 -283.667 33 -333 99c-17.333 24 -26 51.667 -26 83c0 18 3 37.333 9 58c18.667 60 82 90 190 90c38.667 0 96 -5 172 -15c30.667 -4 52.334 -6.33301 65.001 -7v15c-0.666992 8 -1 13.333 -1 16
c-1.33301 27.333 -2 53.666 -2 78.999c0 145.333 23.333 242.333 70 291c36 38 85.667 57 149 57h7c25.333 0 46.333 -9.33301 63 -28c26 -29.333 39 -91 39 -185c0 -50 -3.66699 -109.333 -11 -178c-2.66699 -24 -4.33398 -40.333 -5.00098 -49
c3.33301 0.666992 9 1.66699 17 3c8 0.666992 14.333 1.33398 19 2.00098c78 10.667 137.333 16 178 16c90 0 155 -20.333 195 -61z" />
    <glyph glyph-name="comma" unicode="," horiz-adv-x="631" 
d="M456 264c19.333 -33.333 29 -74.002 29 -122.002c0 -19.333 -1.66699 -40 -5 -62c-11.333 -76 -39.333 -153 -84 -231c-48.667 -84 -107 -150 -175 -198c-68 -47.333 -138 -71 -210 -71h-13c-16 0 -28.333 6.66699 -37 20c-4 6.66699 -6 16 -6 28
c0 60.667 50.667 190.334 152 389.001l21 41c11.333 24.667 18.333 64.334 21 119.001c3.33301 57.333 11.666 96.333 24.999 117c20.667 31.333 58.334 47 113.001 47c8.66699 0 18 -0.333008 28 -1c64.667 0 111.667 -25.333 141 -76z" />
    <glyph glyph-name="hyphen" unicode="-" horiz-adv-x="1192" 
d="M1135 629c0.666992 -4 0.998047 -8.00098 0.998047 -12.001c0 -10 -1.33301 -20.333 -4 -31c-9.33301 -48.667 -32.666 -78 -69.999 -88c-62 -16 -107.667 -25 -137 -27c-10 -0.666992 -23 -1 -39 -1c-15.333 0 -33.333 0.333008 -54 1h-19
c-52 0 -111.333 -2.33301 -178 -7c-22.667 -1.33301 -45.667 -3 -69 -5l-208 -14l-94 -5c-15.333 -1.33301 -32.333 -3.33301 -51 -6c-10 -1.33301 -19.667 -2.33301 -29 -3c-10 -0.666992 -19.667 -1 -29 -1c-16 0 -31.667 1 -47 3c-19.333 2 -35 11 -47 27
c-12.667 18.667 -20 39.667 -22 63v10c0 25.333 6.33301 53.666 19 84.999c12.667 70.667 54.667 108.334 126 113.001c16 1.33301 34 2 54 2c10.667 0.666992 23 1 37 1c14.667 0 31.334 -0.333008 50.001 -1h39c37.333 0 66.333 0.666992 87 2l36 3
c48.667 4 97 7.66699 145 11l74 5l54 2c26 2 50.333 4.33301 73 7l59 6c9.33301 0.666992 24.333 3.33398 45 8.00098c22 4.66699 42 7.66699 60 9h15c29.333 0 53 -5 71 -15c32.667 -18 50 -65.333 52 -142z" />
    <glyph glyph-name="hyphen" unicode="&#xad;" horiz-adv-x="1192" 
d="M1135 629c0.666992 -4 0.998047 -8.00098 0.998047 -12.001c0 -10 -1.33301 -20.333 -4 -31c-9.33301 -48.667 -32.666 -78 -69.999 -88c-62 -16 -107.667 -25 -137 -27c-10 -0.666992 -23 -1 -39 -1c-15.333 0 -33.333 0.333008 -54 1h-19
c-52 0 -111.333 -2.33301 -178 -7c-22.667 -1.33301 -45.667 -3 -69 -5l-208 -14l-94 -5c-15.333 -1.33301 -32.333 -3.33301 -51 -6c-10 -1.33301 -19.667 -2.33301 -29 -3c-10 -0.666992 -19.667 -1 -29 -1c-16 0 -31.667 1 -47 3c-19.333 2 -35 11 -47 27
c-12.667 18.667 -20 39.667 -22 63v10c0 25.333 6.33301 53.666 19 84.999c12.667 70.667 54.667 108.334 126 113.001c16 1.33301 34 2 54 2c10.667 0.666992 23 1 37 1c14.667 0 31.334 -0.333008 50.001 -1h39c37.333 0 66.333 0.666992 87 2l36 3
c48.667 4 97 7.66699 145 11l74 5l54 2c26 2 50.333 4.33301 73 7l59 6c9.33301 0.666992 24.333 3.33398 45 8.00098c22 4.66699 42 7.66699 60 9h15c29.333 0 53 -5 71 -15c32.667 -18 50 -65.333 52 -142z" />
    <glyph glyph-name="period" unicode="." horiz-adv-x="600" 
d="M269 315c61.333 0 110.667 -17 148 -51c33.333 -31.333 50 -68.333 50 -111c0 -44 -17 -80.333 -51 -109c-34.667 -29.333 -81 -44 -139 -44c-18.667 0 -37.667 1.66699 -57 5c-38 7.33301 -67.667 27.333 -89 60c-16.667 26.667 -25 56 -25 88v10
c2.66699 38 17 71 43 99c30 32 70 49.667 120 53z" />
    <glyph glyph-name="slash" unicode="/" horiz-adv-x="1377" 
d="M1349 2410l1.00293 -4.99805c2 -9.33301 3 -19.666 3 -31c0 -70.667 -37 -169.667 -111 -297l-32 -56c-82 -153.333 -176.333 -379.333 -283 -678l-31 -90l-69 -188c-8 -18 -26.667 -67.333 -56 -148l-101 -268l-15 -35c-32.667 -82.667 -58 -157.334 -76 -224.001
l-15 -57c-70.667 -268 -144.334 -471.667 -221.001 -611c-39.333 -69.333 -80 -110.333 -122 -123l-2 -1c-8.66699 -2.66699 -17.667 -4 -27 -4c-14 0 -28.333 3.33301 -43 10c-32.667 16 -58.667 42.667 -78 80c-7.33301 16.667 -13 33.667 -17 51
c-3.33301 16.667 -5 33.667 -5 51c0 14 1 28.333 3 43c20.667 143.333 105 385 253 725l4 -1c67.333 157.333 151.666 379.666 252.999 666.999l115 317l36 114c150.667 503.333 284 790 400 860c14 8.66699 27.667 14.667 41 18c12 3.33301 23.667 5 35 5
c23.333 0 46.666 -6.66699 69.999 -20c50.667 -26.667 80.667 -61.334 90 -104z" />
    <glyph glyph-name="zero" unicode="0" horiz-adv-x="1503" 
d="M1045 520c50.667 122 76.001 237 76.001 345c0 12 -0.333008 23.667 -1 35c0 139.333 -36.667 283 -110 431c-83.333 166.667 -181.333 254 -294 262h-4c-18 0 -41 -11.667 -69 -35c-35.333 -31.333 -68 -75.333 -98 -132c-75.333 -139.333 -113 -312 -113 -518v-26
c2.66699 -149.333 31 -284.666 85 -405.999c62 -140.667 144.667 -211 248 -211c9.33301 0 18.666 0.666992 27.999 2c102 11.333 186 95.666 252 252.999zM1399 1124c18.667 -81.333 28.001 -162.666 28.001 -243.999c0 -161.333 -36.667 -323 -110 -485
c-56.667 -124.667 -130 -222.334 -220 -293.001c-101.333 -81.333 -217 -122 -347 -122c-220 0 -383.667 110.667 -491 332c-80 164.667 -120.333 365 -121 601c0 307.333 62.667 551 188 731c105.333 150.667 225.666 226 360.999 226h11
c240.667 -8.66699 419 -101.667 535 -279c60 -92 115.333 -247.667 166 -467z" />
    <glyph glyph-name="one" unicode="1" horiz-adv-x="929" 
d="M836 1923c0 -116 -19.665 -325.335 -58.998 -628.002c-37.333 -288.667 -58 -506.667 -62 -654c0 -16.667 2 -55.667 6 -117c3.33301 -159.333 5 -256.333 5 -291v-16c-3.33301 -125.333 -35.333 -203.666 -96 -234.999c-28.667 -14.667 -55 -22 -79 -22
c-72.667 0 -115.334 66 -128.001 198c-2.66699 28.667 -4 61.667 -4 99c0 31.333 1 119.333 3 264l6 87c2 30 3 50 3 60c3.33301 212.667 8 356.667 14 432l-203 -104c-40 -18.667 -73 -28 -99 -28c-49.333 0 -74 28.333 -74 85c0 14.667 1.66699 31.667 5 51
c13.333 74 66.333 153 159 237c106.667 94.667 171 164 193 208c15.333 29.333 36.666 81 63.999 155c26.667 70 48.667 121 66 153c48.667 87.333 114.334 131 197.001 131c23.333 0 50.666 -4.33301 81.999 -13c0.666992 -17.333 1 -34.666 1 -51.999z" />
    <glyph glyph-name="two" unicode="2" horiz-adv-x="1524" 
d="M1560 273c4 -12.667 5.99707 -27.6729 5.99707 -45.0059c0 -22.667 -3.33301 -48.667 -10 -78c-12 -55.333 -66 -95 -162 -119c-39.333 -10 -108.666 -19.333 -207.999 -28c-100 -8.66699 -203.333 -13 -310 -13c-189.333 0 -390 13.667 -602 41
c-130.667 16.667 -208.667 66.334 -234 149.001c-4.66699 16 -7 31.667 -7 47c0 66.667 45.667 132 137 196c362 252.667 636.667 509.667 824 771c33.333 45.333 51 88.333 53 129v6c0 34 -11 62.667 -33 86c-31.333 31.333 -71.666 47 -120.999 47
c-34 0 -73.333 -7.33301 -118 -22c-111.333 -37.333 -211 -135.666 -299 -294.999c-13.333 -25.333 -36.333 -44.333 -69 -57c-22.667 -8.66699 -46.334 -13 -71.001 -13c-7.33301 0 -14.666 0.333008 -21.999 1c-34.667 4.66699 -61.334 17.334 -80.001 38.001
c-15.333 17.333 -23 37.333 -23 60c0 8.66699 1 17.334 3 26.001c32 163.333 127 301.333 285 414c146.667 103.333 302 155 466 155h21c165.333 0 284 -64.667 356 -194c35.333 -64.667 53 -133 53 -205c0 -63.333 -13.333 -129.666 -40 -198.999
c-58 -145.333 -176.667 -294.666 -356 -447.999c-233.333 -198 -369.666 -321.333 -408.999 -370c192.667 -22 348 -36 466 -42h7c31.333 0 95 7 191 21c51.333 7.33301 94.333 11 129 11c28.667 0 51.334 -2.33301 68.001 -7c58 0 94.333 -21 109 -63z" />
    <glyph glyph-name="three" unicode="3" horiz-adv-x="1630" 
d="M1136 934c120 -46.667 226.668 -121.666 320.001 -224.999c89.333 -99.333 134 -197.333 134 -294c0 -23.333 -2.33301 -46.333 -7 -69c-27.333 -124 -111.333 -217.667 -252 -281c-110 -50 -234 -75 -372 -75h-11c-156.667 0 -316.334 33 -479.001 99
c-189.333 77.333 -315 177 -377 299c-21.333 42 -32 77 -32 105c0 7.33301 0.666992 14.333 2 21c7.33301 30.667 31.666 65 72.999 103c14 12 31.333 18 52 18c28.667 0 63 -12.667 103 -38c9.33301 -5.33301 49 -35.666 119 -90.999
c101.333 -79.333 216.333 -140.333 345 -183c88 -28.667 168 -43 240 -43c50.667 0 97.334 7 140.001 21c64 22 100.333 50.333 109 85c1.33301 6.66699 2 13 2 19c0 26.667 -13 56 -39 88c-64 76 -145.667 128.333 -245 157c-145.333 42.667 -243.333 81.667 -294 117
c-42.667 30.667 -64 63 -64 97c0 44 36.333 90 109 138c9.33301 6 79.333 42.667 210 110c77.333 39.333 136 86.333 176 141c6.66699 13.333 24.667 42.666 54 87.999v6c0 30.667 -7 55 -21 73c-10.667 7.33301 -26.667 11 -48 11c-28.667 0 -64.667 -7 -108 -21
c-13.333 -4.66699 -90.666 -36.334 -231.999 -95.001c-92.667 -38.667 -161.334 -58 -206.001 -58h-4c-65.333 2.66699 -98 39.667 -98 111v7c0 102 103 189 309 261c158 54.667 291.333 82 400 82h11c133.333 0 225.333 -36 276 -108c28.667 -40.667 43 -89.667 43 -147
c0 -42 -7.33301 -88.333 -22 -139c-22.667 -78.667 -68.667 -153 -138 -223c-16 -16 -47 -44.667 -93 -86c-40 -36 -68.333 -63 -85 -81z" />
    <glyph glyph-name="four" unicode="4" horiz-adv-x="1698" 
d="M1017 999c2 27.333 3 60.667 3 100c0 74 -3 150 -9 228c-11.333 -9.33301 -42.333 -33 -93 -71l-127 -94c-99.333 -78 -165.333 -144.667 -198 -200c214.667 14 356 26.333 424 37zM1447 1037c72 8.66699 121.003 13.6699 147.003 15.0029c10 0.666992 19.667 1 29 1
c81.333 0 122 -21.333 122 -64c0 -3.33301 -0.333008 -6.33301 -1 -9c-2.66699 -21.333 -24 -57.333 -64 -108c-48.667 -62 -96 -98.333 -142 -109c-135.333 -30 -216.333 -48.333 -243 -55c-23.333 -6 -35 -50.333 -35 -133c0 -30.667 1.66699 -65.667 5 -105
c4 -47.333 11 -104.666 21 -171.999c11.333 -71.333 17 -107.333 17 -108c2 -16.667 3 -32.334 3 -47.001c0 -48.667 -9.66699 -86.334 -29 -113.001s-44.666 -40 -75.999 -40c-8.66699 0 -18 1.33301 -28 4c-40 10 -74.667 36.333 -104 79
c-31.333 46 -49.333 100.667 -54 164c-1.33301 19.333 -2.66602 90.666 -3.99902 213.999c-0.666992 86.667 -13.334 155 -38.001 205c-0.666992 2.66699 -3 4 -7 4c-37.333 0 -102 -6 -194 -18l-174 -24c-62 -8.66699 -99.333 -13.667 -112 -15c-100 -8 -175 -12 -225 -12
c-22.667 0 -40.334 0.666992 -53.001 2c-99.333 14 -149 56 -149 126c0 17.333 3 36.666 9 57.999c22 73.333 78.667 151 170 233c28 24 67.667 56 119 96c53.333 42.667 89.666 72.667 108.999 90l464 405c7.33301 6 36.666 38 87.999 96
c51.333 57.333 94 100.666 128 129.999c52 44 97 66 135 66c51.333 0 85.666 -37.667 102.999 -113c-2 -32.667 -13.667 -79.667 -35 -141c-22 -60.667 -34.333 -107.667 -37 -141c-12 -157.333 -18 -281.333 -18 -372c0 -47.333 1.33301 -81.666 4 -102.999
c29.333 1.33301 79 6 149 14z" />
    <glyph glyph-name="five" unicode="5" horiz-adv-x="1488" 
d="M1384 1012c26.667 -83.333 39.9941 -166.672 39.9941 -250.005c0 -128.667 -32.667 -257 -98 -385c-109.333 -213.333 -266.333 -339 -471 -377c-37.333 -6.66699 -74.333 -10 -111 -10c-97.333 0 -192.333 24 -285 72c-108.667 56.667 -197 135.667 -265 237
c-54.667 82.667 -82 158.334 -82 227.001c0 12 0.666992 23.667 2 35c12 86.667 69.667 133.334 173 140.001h6c42.667 0 77.334 -23.333 104.001 -70c10 -18.667 30.333 -67.667 61 -147c24 -66 48 -112.667 72 -140c28.667 -32.667 64 -49 106 -49
c6 0 12.333 0.333008 19 1c178 19.333 306.667 86.333 386 201c46.667 66.667 70 139.334 70 218.001c0 55.333 -11.333 113.333 -34 174c-102.667 164 -200.667 246 -294 246c-8.66699 0 -17.334 -0.666992 -26.001 -2c-32 -4.66699 -78.667 -18 -140 -40
c-76 -26 -126.333 -42 -151 -48c-40 -11.333 -76.333 -17 -109 -17c-67.333 0 -117.666 23 -150.999 69c-6 8.66699 -9 53.667 -9 135c0 98 4 251.333 12 460c2.66699 71.333 18.334 123.333 47.001 156c26.667 28.667 66 44.334 118 47.001c6 0.666992 12.667 1 20 1
c28.667 0 73.334 -3.33301 134.001 -10c48 -4.66699 89.333 -7 124 -7c17.333 0 33 0.666992 47 2c40.667 3.33301 82.334 5 125.001 5c97.333 0 198.333 -8.66699 303 -26c146 -24.667 222.333 -52 229 -82c0 -1.33301 2 -37.666 6 -108.999v-9c0 -38 -12 -66.333 -36 -85
c-41.333 -32 -93.666 -48 -156.999 -48c-23.333 0 -48 2 -74 6c-26.667 4 -66.667 13.333 -120 28c-51.333 12.667 -88.666 21 -111.999 25c-90 15.333 -162.667 23 -218 23c-38.667 0 -68.667 -3.66699 -90 -11c-48.667 -16.667 -73 -52.667 -73 -108
c0 -40.667 12 -88.334 36 -143.001c112.667 7.33301 211 11 295 11c94 0 165 -5 213 -15c180 -39.333 299.333 -149.666 358 -330.999z" />
    <glyph glyph-name="six" unicode="6" horiz-adv-x="1700" 
d="M1236 626c42 86 63 166.332 63 240.999c0 42.667 -6.66699 83 -20 121c-12 33.333 -37.333 50 -76 50c-56 0 -140.667 -32 -254 -96c-82 -46.667 -158.667 -109.667 -230 -189c-76.667 -85.333 -128 -169.666 -154 -252.999c0 -100 54.333 -162 163 -186
c32.667 -7.33301 64 -11 94 -11c59.333 0 114.333 14.667 165 44c104 60.667 187 153.667 249 279zM1575 1187c40 -66 60.002 -146.667 60.002 -242c0 -36 -2.66699 -73.667 -8 -113c-19.333 -141.333 -69 -278.333 -149 -411c-83.333 -140 -182.333 -245 -297 -315
c-115.333 -70.667 -237 -106 -365 -106c-120 0 -231.333 30.667 -334 92c-102 60.667 -183 142.667 -243 246c-62 107.333 -93 225.333 -93 354c0 242 54.333 487.667 163 737c134 309.333 306.333 464 517 464c62.667 0 107 -15 133 -45c18 -18.667 27 -42.334 27 -71.001
c0 -7.33301 -0.666992 -14.666 -2 -21.999c-4 -34.667 -16.667 -68.334 -38 -101.001c-20.667 -32.667 -42 -52.667 -64 -60c-91.333 -33.333 -180 -103.666 -266 -210.999c-101.333 -126.667 -159 -303.667 -173 -531c36 68 143.667 179 323 333
c60.667 52 137.667 93 231 123c75.333 24 146.666 36 213.999 36c17.333 0 34.333 -0.666992 51 -2c145.333 0 249.666 -51.667 312.999 -155z" />
    <glyph glyph-name="seven" unicode="7" horiz-adv-x="1556" 
d="M1513 1027c34.667 -20.667 52.0039 -41.999 52.0039 -63.999c0 -32.667 -36.667 -66 -110 -100c-100.667 -47.333 -180.334 -71 -239.001 -71c-81.333 -0.666992 -125.333 -1.66699 -132 -3c-28 -8 -54.333 -36.667 -79 -86c-23.333 -48.667 -50 -114 -80 -196
c-41.333 -112 -66.333 -179 -75 -201c-50.667 -124 -98.334 -209.333 -143.001 -256c-32.667 -24.667 -84.667 -43.334 -156 -56.001c-17.333 -2.66699 -33 -4 -47 -4c-51.333 0 -77 18 -77 54c0 5.33301 0.666992 11 2 17c14 69.333 81.333 230.666 202 483.999
c5.33301 10.667 18.666 33 39.999 67c20 32.667 34 57.667 42 75c8.66699 20 13 37.667 13 53c0 24 -12.667 40.333 -38 49c-13.333 4.66699 -49.666 7 -108.999 7c-22.667 0 -48 -0.333008 -76 -1h-6c-50 0 -92.333 16.667 -127 50c-22.667 22 -34 45.333 -34 70
c0 17.333 5.33301 34.666 16 51.999c29.333 50 67 79.333 113 88l19 -1c21.333 0 62.333 0.666992 123 2c104 2 172 9.66699 204 23c52 20.667 90 71.334 114 152.001c48 155.333 72 251.333 72 288c0 10.667 -2.33301 16 -7 16c-3.33301 0 -7.33301 -2.33301 -12 -7
c-218 -7.33301 -378 -22.666 -480 -45.999c0 -2 -45 -6.66699 -135 -14c-50.667 -16.667 -95.667 -25 -135 -25c-16 0 -30 1.33301 -42 4c-12 -1.33301 -24 -2 -36 -2c-113.333 0 -170 54.333 -170 163c0 14.667 1 30.667 3 48c6.66699 56 88.667 95 246 117
c113.333 5.33301 227.333 10 342 14c46.667 2 137 8.66699 271 20c118.667 10 210 15 274 15c118.667 0 178 1.66699 178 5c72.667 -13.333 109 -57 109 -131v-12c-4.66699 -94 -36.334 -202.333 -95.001 -325l-78 -153c-32 -62 -51.667 -101 -59 -117
c-1.33301 -2.66699 -2 -5 -2 -7c0 -12 21.333 -18 64 -18c25.333 0 57.333 -0.333008 96 -1c83.333 -1.33301 144.666 -13.333 183.999 -36z" />
    <glyph glyph-name="eight" unicode="8" horiz-adv-x="1440" 
d="M509 505c-0.666992 -5.33301 -0.999023 -10.334 -0.999023 -15.001c0 -49.333 25.667 -94.333 77 -135s116 -68.667 194 -84c33.333 -6.66699 64.666 -10 93.999 -10c38.667 0 73.334 5.66699 104.001 17c60.667 22.667 93.334 64 98.001 124c0.666992 6 1 11.667 1 17
c0 58 -25.333 113 -76 165c-35.333 34.667 -92 74.334 -170 119.001c-16.667 10 -40.667 26 -72 48c-27.333 20.667 -47 34 -59 40c-12.667 6 -24.334 9 -35.001 9c-20.667 0 -40.334 -12.333 -59.001 -37c-64 -87.333 -96 -173.333 -96 -258zM375.001 1516
c26.667 -96 114.334 -197.667 263.001 -305c10 -7.33301 21.667 -11 35 -11c29.333 0 66.666 16 111.999 48c52.667 37.333 101.334 84 146.001 140c4 4 6 9.33301 6 16c0 22 -23.333 52.333 -70 91c-57.333 46.667 -103.333 73.667 -138 81c-37.333 8 -74.333 12 -111 12
c-26.667 0 -53.334 -2 -80.001 -6c-70 -10.667 -124.333 -32.667 -163 -66zM1269 727.999c76.667 -78.667 114.997 -169.005 114.997 -271.005c0 -24 -2 -48.667 -6 -74c-21.333 -123.333 -92 -222.333 -212 -297c-101.333 -64 -213.666 -96 -336.999 -96h-22
c-102.667 0 -214.667 33 -336 99c-129.333 70.667 -210.666 150.334 -243.999 239.001c-16.667 45.333 -25 95.666 -25 150.999c0 28.667 2.33301 59.334 7 92.001c12.667 81.333 43.667 163 93 245c6 10 26.333 39.333 61 88c28 38.667 42 66.667 42 84c0 14 -9 21 -27 21
c-79.333 58.667 -147 122.667 -203 192c-80 98.667 -120 199.334 -120 302.001v8c0 232 189.333 348 568 348h16c158.667 0 297.334 -21.333 416.001 -64c171.333 -62 257 -159.333 257 -292c0 -87.333 -53.667 -179.666 -161 -276.999c-17.333 -16 -48.333 -38 -93 -66
c-45.333 -29.333 -76 -50.666 -92 -63.999c-27.333 -23.333 -41 -46.333 -41 -69c0 -24 15.333 -47.333 46 -70c194 -147.333 293.333 -223.666 298 -228.999z" />
    <glyph glyph-name="nine" unicode="9" horiz-adv-x="1265" 
d="M368 1156l12 -20c120 0 228 57 324 171c86.667 101.333 147 221.333 181 360c-27.333 7.33301 -57.333 11 -90 11c-104 0 -199 -47 -285 -141c-95.333 -102.667 -143 -217.334 -143 -344.001c0 -21.333 0.333008 -33.666 1 -36.999zM1072 1034
c-23.333 -210.667 -34.999 -366.333 -34.999 -467v-7c0 -187.333 27.333 -336 82 -446c-34.667 -82.667 -85.334 -124 -152.001 -124c-11.333 0 -23 1 -35 3c-76.667 15.333 -131.667 67 -165 155c-12 72.667 -18 155.667 -18 249c0 38.667 1 79.667 3 123l23 443l-20 57
c-142 -83.333 -275.667 -130.666 -401 -141.999c-14.667 -1.33301 -28.667 -2 -42 -2c-167.333 0 -251 98.333 -251 295c0 207.333 89.667 388 269 542c169.333 145.333 356.333 218 561 218h14c74 -2.66699 137 -21.334 189 -56.001c32 -20.667 48 -43 48 -67
c0 -26.667 -15.667 -51.334 -47 -74.001c46 -27.333 69 -91.666 69 -192.999c0 -42 -4.33301 -90.333 -13 -145c-8.66699 -50.667 -24 -120.667 -46 -210c-19.333 -80 -30.333 -130.667 -33 -152z" />
    <glyph glyph-name="colon" unicode=":" horiz-adv-x="512" 
d="M171 599c-38 7.33301 -67.666 27.332 -88.999 59.999c-16.667 26.667 -25 56 -25 88v10c2.66699 38.667 17 71.667 43 99c30 32 70 50 120 54c61.333 0 110.666 -17.333 147.999 -52c33.333 -31.333 50 -68.333 50 -111c0 -43.333 -17 -79.666 -51 -108.999
c-34.667 -29.333 -81 -44 -139 -44c-18.667 0 -37.667 1.66699 -57 5zM220.001 314.999c61.333 0 110.667 -17 148 -51c33.333 -31.333 50 -68.333 50 -111c0 -44 -17 -80.333 -51 -109c-34.667 -29.333 -81 -44 -139 -44c-18.667 0 -37.667 1.66699 -57 5
c-38 7.33301 -67.667 27.333 -89 60c-16.667 26.667 -25 56 -25 88v10c2.66699 38 17 71 43 99c30 32 70 49.667 120 53z" />
    <glyph glyph-name="semicolon" unicode=";" horiz-adv-x="547" 
d="M415 334c19.333 -33.333 29 -74.0029 29 -122.003c0 -19.333 -1.66699 -40 -5 -62c-11.333 -76 -39.333 -153 -84 -231c-48.667 -84 -107 -150 -175 -198c-68.667 -47.333 -138.667 -71 -210 -71h-13c-16 0 -28.333 6.66699 -37 20c-4 6.66699 -6 16 -6 28
c0 60.667 50.667 190.334 152 389.001c11.333 22.667 18.333 36.334 21 41.001c11.333 24.667 18.333 64.334 21 119.001c3.33301 57.333 11.666 96.333 24.999 117c20.667 32 59 48 115 48c8.66699 0 17.334 -0.333008 26.001 -1c64.667 0 111.667 -25.667 141 -77z
M196 708.997c-38 7.33301 -67.666 27.332 -88.999 59.999c-16.667 26.667 -25 56 -25 88v10c2 38.667 16.333 71.667 43 99c30 32 70 50 120 54c61.333 0 110.666 -17.333 147.999 -52c33.333 -31.333 50 -68.333 50 -111c0 -43.333 -17 -79.666 -51 -108.999
c-34.667 -29.333 -81 -44 -139 -44c-18.667 0 -37.667 1.66699 -57 5z" />
    <glyph glyph-name="less" unicode="&#x3c;" horiz-adv-x="1126" 
d="M1074 198c2.66699 -20.667 4.00098 -39.6611 4.00098 -56.9941c0 -52 -10.667 -89.667 -32 -113c-16.667 -18.667 -39 -28 -67 -28c-54 0 -161 57 -321 171l-90 63c-14 9.33301 -49 29.666 -105 60.999c-134.667 74 -232.667 134.333 -294 181
c-107.333 81.333 -164.666 157 -171.999 227c-0.666992 6 -1 11.667 -1 17c0 47.333 22.333 90.666 67 129.999c242 212.667 508.333 393.667 799 543l10 5l10 -4c78 -26.667 120 -66.334 126 -119.001c0.666992 -4 1 -8 1 -12c0 -64.667 -56 -143.334 -168 -236.001
c-81.333 -68 -210.333 -156.333 -387 -265c-43.333 -26.667 -71 -44 -83 -52c61.333 -36 145 -91.333 251 -166c9.33301 -6.66699 38.666 -25.334 87.999 -56.001c237.333 -146.667 358.666 -243.334 363.999 -290.001z" />
    <glyph glyph-name="equal" unicode="=" horiz-adv-x="1208" 
d="M996 543c65.333 -20 98 -50.002 98 -90.002c0 -4 -0.333008 -8 -1 -12c-6 -39.333 -41 -76.333 -105 -111c-59.333 -32.667 -114 -49 -164 -49h-12c-120.667 8.66699 -298 13.334 -532 14.001c-74 0.666992 -126.667 15.334 -158 44.001c-20.667 18 -31 40.333 -31 67v2
c0 44 24.667 84.667 74 122c52.667 40 115.667 61 189 63l162 1c211.333 0 371.333 -17 480 -51zM883 996.998c46.667 -5.33301 98.668 -23.999 156.001 -55.999c68 -36.667 103.333 -74.334 106 -113.001v-5c0 -43.333 -40 -76.333 -120 -99
c-50.667 -14 -110.334 -21 -179.001 -21c-55.333 0 -139.333 6.33301 -252 19c-102.667 11.333 -177 17 -223 17c-10.667 0 -30.334 -1 -59.001 -3c-52 -4.66699 -91.667 -7 -119 -7c-93.333 0 -152.666 19.333 -177.999 58c-10.667 15.333 -16 33 -16 53
c0 18 4.66699 38.333 14 61c32 76 119.333 114 262 114h177c181.333 0 325 -6 431 -18z" />
    <glyph glyph-name="greater" unicode="&#x3e;" horiz-adv-x="1106" 
d="M906 895c100 -61.333 150.002 -126.668 150.002 -196.001v-3c-0.666992 -80.667 -70 -160.334 -208 -239.001c-78.667 -45.333 -177.334 -110.666 -296.001 -195.999c-14.667 -10.667 -43.667 -35.334 -87 -74.001c-140 -124.667 -238 -187 -294 -187h-4
c-102 15.333 -159.333 47 -172 95c-1.33301 5.33301 -2 10.666 -2 15.999c0 54.667 63.333 129.334 190 224.001c217.333 162.667 386.333 282.334 507 359.001l-66 42c-348.667 219.333 -527.334 358 -536.001 416c-12 28 -18 54 -18 78s6.33301 45.667 19 65
c18 28 47.333 45.333 88 52c9.33301 1.33301 18.666 2 27.999 2c30.667 0 60.334 -7.33301 89.001 -22c69.333 -35.333 184.333 -115 345 -239c125.333 -97.333 214.333 -161.666 267 -192.999z" />
    <glyph glyph-name="question" unicode="?" horiz-adv-x="1296" 
d="M943 2011c217.333 -83.333 326.002 -188 326.002 -314c0 -8.66699 -0.666992 -18 -2 -28c-29.333 -235.333 -235.666 -389.333 -618.999 -462c-8.66699 -1.33301 -27.334 -3.33301 -56.001 -6c-38 -3.33301 -65 -6 -81 -8c-70.667 -8.66699 -112 -20.334 -124 -35.001
c30.667 -248 46 -392.333 46 -433c-0.666992 -64.667 -5.33398 -108.667 -14.001 -132c-13.333 -34 -45.333 -63.667 -96 -89c-32.667 -16 -61 -24 -85 -24c-36 0 -61.667 18.667 -77 56c-3.33301 6 -14.666 70.667 -33.999 194c-6 40.667 -25 118.667 -57 234
c-26.667 98.667 -41.667 177.334 -45 236.001c-0.666992 8 -1 16 -1 24c0 109.333 42.333 180 127 212c14.667 6 114.667 20.333 300 43c338.667 42 508 91.333 508 148c0 20 -20.333 41 -61 63c-164 86.667 -332 139.667 -504 159h-9c-32 0 -87.333 -15.667 -166 -47
c-42.667 -17.333 -78.334 -26 -107.001 -26c-21.333 0 -39 4.33301 -53 13c-36 24 -54 57.333 -54 100v6c0.666992 40 15.667 76.333 45 109c45.333 51.333 102 85 170 101c40 8.66699 97.333 13 172 13h34c161.333 0 333.666 -35.667 516.999 -107zM347.002 255
c48 0 82.999 -15.999 104.999 -47.999c16 -21.333 24 -48 24 -80c0 -9.33301 -0.666992 -19 -2 -29c-5.33301 -41.333 -20.666 -79 -45.999 -113c-28 -35.333 -61.333 -56.333 -100 -63c-12 -1.33301 -23 -2 -33 -2c-38 0 -67 11.667 -87 35c-18 20.667 -27 47 -27 79
c0 9.33301 0.666992 18.666 2 27.999c6 45.333 23.667 86 53 122c30.667 39.333 67.667 63 111 71z" />
    <glyph glyph-name="at" unicode="@" horiz-adv-x="1830" 
d="M602 407h4.99902c54.667 0 111.334 46.333 170.001 139c38 75.333 57 133.333 57 174c-120.667 -70 -198 -174.333 -232 -313zM1824 235c0 -53.333 -39.667 -115.664 -119 -186.997c-76 -68.667 -159.667 -126.334 -251 -173.001c-166 -83.333 -344.333 -125 -535 -125
c-37.333 0 -75 1.66699 -113 5c-261.333 21.333 -460 113.333 -596 276c-82.667 123.333 -131.334 246.666 -146.001 369.999c-2.66699 30.667 -4 62 -4 94c0 88.667 10 180 30 274c26 127.333 121 260.666 285 399.999c158.667 92 312 138 460 138
c42 0 83.333 -3.66699 124 -11c186 -33.333 331.667 -114.333 437 -243c88 -138 138.333 -275 151 -411c-6 -72.667 -17.5 -136.5 -34.5 -191.5s-52.833 -112.5 -107.5 -172.5c-56 -62.667 -131.333 -94 -226 -94c-71.333 0 -133 41 -185 123
c-1.33301 2 -28.666 65 -81.999 189c-26 -91.333 -71 -159.333 -135 -204c-77.333 -52.667 -146.666 -79 -207.999 -79c-5.33301 0 -11 0.333008 -17 1c-91.333 11.333 -137 59.333 -137 144v2c0.666992 68 17.667 144.333 51 229s106 170.667 218 258
c52.667 50.667 127.667 88.334 225 113.001c35.333 -32.667 60.666 -57 75.999 -73c28.667 -30 54 -114.333 76 -253c9.33301 -54.667 23 -96.667 41 -126c24 -40 61 -67 111 -81c54.667 13.333 82 66 82 158c0 16 -1 33.333 -3 52c-8.66699 92 -27.667 171 -57 237
c-48 108.667 -144 170 -288 184c-22 2 -44.333 3 -67 3c-96.667 0 -195.667 -19.667 -297 -59c-102 -39.333 -177.333 -107.666 -226 -204.999c-36.667 -72.667 -55 -153.334 -55 -242.001c0 -18.667 0.666992 -37.667 2 -57c10 -108.667 43.667 -206.334 101 -293.001
c61.333 -92 139 -154 233 -186c114 -39.333 223 -59 327 -59c98 0 191.333 17.667 280 53l282 224c83.333 66 150 99 200 99c31.333 0 56.333 -12.667 75 -38c14.667 -19.333 22 -40.333 22 -63z" />
    <glyph glyph-name="A" unicode="A" horiz-adv-x="1871" 
d="M1062 1141l-20 100c-38 200 -73.667 327.333 -107 382c-36 -66 -91.333 -203.333 -166 -412c-24 -67.333 -40.667 -113 -50 -137c31.333 4.66699 81.333 15 150 31c88 20.667 152.333 32.667 193 36zM1734 368c53.333 -60 88.668 -107.666 106.001 -142.999
c16 -32 24 -63.333 24 -94c0 -25.333 -5.66699 -50 -17 -74c-18 -38 -44.333 -57 -79 -57c-60 0 -139.333 64 -238 192c-60.667 79.333 -104.334 144.333 -131.001 195c-22 42 -52.667 107 -92 195c-42.667 94.667 -75.667 164 -99 208c-21.333 40 -71.333 60 -150 60
c-16 0 -38.667 -1 -68 -3c-20.667 -1.33301 -35 -2 -43 -2c-78.667 -2 -195 -17.667 -349 -47c-173.333 -287.333 -280.666 -457.333 -321.999 -510c-69.333 -87.333 -129.333 -131 -180 -131c-13.333 0 -26 2.33301 -38 7c-18.667 8 -31.334 21.667 -38.001 41
c-2.66699 7.33301 -4 16.333 -4 27c0 58 41.333 166 124 324c54.667 103.333 82 164.333 82 183v2c-0.666992 6 -9 9 -25 9c-10 0 -27 -1.66699 -51 -5s-41.333 -5 -52 -5c-25.333 0 -43 7.33301 -53 22c-4.66699 7.33301 -7 15.666 -7 24.999c0 10.667 3 22.667 9 36
c22 52.667 49.333 92 82 118c28 21.333 71.667 41.666 131 60.999c102.667 32.667 212.667 198.667 330 498l28 78c46.667 136 88 235.667 124 299c63.333 112.667 132.666 169.667 207.999 171c149.333 0 238 -89.333 266 -268
c32.667 -210.667 75.667 -397.334 129 -560.001c3.33301 -9.33301 7.33301 -22.666 12 -39.999c9.33301 -36 19 -58.667 29 -68c7.33301 -8 19.666 -12 36.999 -12c5.33301 0 11 0.333008 17 1c8.66699 0.666992 21.667 2.66699 39 6c34.667 6.66699 61 10 79 10
c44.667 0 79.667 -14.667 105 -44c13.333 -15.333 20 -31.333 20 -48c0 -8 -1.66699 -16.333 -5 -25c-18 -52 -85.667 -96.333 -203 -133l10 -28c76.667 -197.333 145.334 -335.666 206.001 -414.999c8.66699 -11.333 24.334 -30 47.001 -56z" />
    <glyph glyph-name="B" unicode="B" horiz-adv-x="1681" 
d="M548 404c363.333 136 601.667 277.666 715 424.999l-179 24c-81.333 10.667 -149.333 17.334 -204 20.001c-21.333 1.33301 -42 2 -62 2c-134 0 -235.667 -23.667 -305 -71zM477.001 1264c251.333 114.667 410.332 234.667 476.999 360c-81.333 24.667 -171 37 -269 37
c-17.333 0 -35.333 -0.333008 -54 -1c-73.333 -2 -130.666 -15 -171.999 -39c6.66699 -90 12.667 -209 18 -357zM449 1995c48.667 -48 72.668 -71.6729 72.001 -71.0059c38 -26.667 101.333 -42 190 -46c22.667 -1.33301 58.667 -2 108 -2c44 0 75.333 -0.666992 94 -2
c116 -9.33301 194.333 -19.666 235 -30.999c96 -27.333 144 -74.666 144 -141.999v-11c-7.33301 -106 -85.333 -220.667 -234 -344c2.66699 2.66699 -57.333 -38.333 -180 -123c-31.333 -21.333 -92.333 -57.333 -183 -108c52.667 4 108.334 6 167.001 6
c44 0 89.667 -1 137 -3c110.667 -5.33301 188 -9.66602 232 -12.999h18c111.333 0 196 -11.667 254 -35c78 -31.333 117 -86.333 117 -165c0 -186.667 -131.333 -359.667 -394 -519c-207.333 -126 -423.333 -209.667 -648 -251c0 -40.667 -15.667 -73.667 -47 -99
c-28.667 -22.667 -64.334 -34.667 -107.001 -36h-10c-36 0 -60 6.66699 -72 20c-21.333 22.667 -37 36.334 -47 41.001c-14.667 6 -28.334 9 -41.001 9c-8 0 -16 -1.33301 -24 -4c-25.333 -8.66699 -46 -13 -62 -13h-3c-29.333 0.666992 -57.333 21.334 -84 62.001
c-20.667 30.667 -31 58 -31 82c0 6.66699 1 13.334 3 20.001c9.33301 31.333 27 52.666 53 63.999c10 4.66699 34 9.66699 72 15c28.667 4 48.667 12.333 60 25c12.667 14.667 19 37.667 19 69c0 8 -0.333008 16.333 -1 25c-1.33301 14.667 -2 34 -2 58
c0 18 0.333008 38.333 1 61c0.666992 28 1 52.333 1 73c0 20 -0.333008 36.333 -1 49c-6.66699 94 -40.334 160 -101.001 198c-55.333 34.667 -83 68.334 -83 101.001c0 7.33301 1.33301 14.333 4 21c12 34.667 50.333 73.667 115 117c-2 79.333 -4 153 -6 221
c-5.33301 188 -10 291 -14 309c0 0.666992 -16.333 1.33398 -49 2.00098c-34.667 1.33301 -54.334 2.33301 -59.001 3c-67.333 13.333 -115.666 48.666 -144.999 105.999c-8 15.333 -12 29.333 -12 42c0 10 2.33301 19.333 7 28c12.667 23.333 40.334 40 83.001 50
c10 2 24.333 3.33301 43 4c26 0.666992 42.333 1.33398 49 2.00098c38.667 3.33301 64.334 15.666 77.001 36.999c31.333 51.333 56.333 85 75 101c27.333 24.667 61 37 101 37c6 0 12 -0.333008 18 -1c33.333 0 63.666 -13 90.999 -39z" />
    <glyph glyph-name="C" unicode="C" horiz-adv-x="1952" 
d="M2245 1031c4.66699 -15.333 7.00391 -31.668 7.00391 -49.001c0 -101.333 -78.333 -238.666 -235 -411.999c-142 -157.333 -307.333 -288.333 -496 -393c-212 -118 -434 -177 -666 -177c-175.333 -0 -331.333 37.333 -468 112c-190.667 105.333 -310 250 -358 434
c-14.667 58 -22 118.667 -22 182c0 74.667 10.333 152.667 31 234c66.667 260 209 486.333 427 679c210 186 421 279 633 279c9.33301 0 18.666 -0.333008 27.999 -1c41.333 -3.33301 79.666 -15 114.999 -35c39.333 -23.333 64.666 -52.666 75.999 -87.999
c4 -12 6 -23.667 6 -35c0 -67.333 -67.667 -129 -203 -185l-74 -30c-202 -82 -348.667 -166 -440 -252c-90.667 -84.667 -163 -176.334 -217 -275.001c-54.667 -99.333 -82 -192 -82 -278c0 -15.333 1 -30.333 3 -45c13.333 -118 82.333 -213.333 207 -286
c104.667 -61.333 227.667 -92 369 -92c224.667 0 427 65.333 607 196c2 1.33301 16.667 15 44 41c357.333 339.333 577.666 509 660.999 509c24.667 0 40.334 -11 47 -33z" />
    <glyph glyph-name="D" unicode="D" horiz-adv-x="1957" 
d="M1551 808v10c0 114.667 -140 239.667 -420 375l-78 38c-218.667 110 -379 165 -481 165c-14.667 0 -29 -1 -43 -3c0.666992 -102 13.334 -253.667 38.001 -455c8.66699 -72.667 14.667 -125 18 -157l4 -65c11.333 -174.667 33.666 -278 66.999 -310
c253.333 46.667 452.666 102.667 597.999 168l28 12c174.667 75.333 264.334 149.333 269.001 222zM1873 999c24 -46.667 36 -94.6699 36 -144.003c0 -57.333 -16.333 -116.333 -49 -177c-50 -93.333 -128.333 -175.666 -235 -246.999
c-163.333 -109.333 -389 -200.333 -677 -273c-25.333 -6.66699 -68.666 -17.334 -129.999 -32.001l-41 -10c0.666992 -1.33301 1 -2.33301 1 -3h-1c1.33301 -8.66699 2 -16.667 2 -24c0 -21.333 -6.66699 -36.666 -20 -45.999c-42.667 -28.667 -84.667 -43 -126 -43
c-26 0 -62.667 8 -110 24c-44.667 14.667 -80 23.334 -106 26.001c-9.33301 0.666992 -28 1.66699 -56 3c-166 4 -269 33 -309 87c-16.667 23.333 -25 50.333 -25 81c0 18.667 3 38.667 9 60c18.667 66.667 80.334 100 185.001 100c28 0 67 -3 117 -9
c2 0 5.33301 -0.333008 10 -1c4 -0.666992 7 -1 9 -1c-32.667 271.333 -63.334 509.666 -92.001 714.999c-2 14.667 -3 50.334 -3 107.001c0 176.667 -12.333 271 -37 283c-18 8.66699 -66.333 19 -145 31c-117.333 18 -201 37.667 -251 59
c-80.667 35.333 -121 86.333 -121 153v11c7.33301 104 67.666 156 180.999 156c49.333 0 126 -13.667 230 -41c45.333 -12 76 -19.333 92 -22c2.66699 56.667 22.334 104.667 59.001 144c38 40.667 84 61 138 61h8c38.667 0 70.667 -13.333 96 -40
c32.667 -34 49 -81 49 -141v-11c-0.666992 -15.333 -3 -32.666 -7 -51.999c-2 -8.66699 -3 -13.667 -3 -15c2 -3.33301 12.667 -11.333 32 -24c51.333 -30.667 120 -60.667 206 -90c139.333 -46.667 336.666 -138 591.999 -274l85 -45c215.333 -114 351 -226 407 -336z" />
    <glyph glyph-name="E" unicode="E" horiz-adv-x="1482" 
d="M1683 526c6 -16 9.00293 -31.3359 9.00293 -46.0029c0 -3.33301 -0.333008 -7 -1 -11c-1.33301 -15.333 -7 -29 -17 -41c-24 -32 -110.667 -52.667 -260 -62c-44.667 -3.33301 -73.334 -5.66602 -86.001 -6.99902c-139.333 -26.667 -300.333 -90.334 -483 -191.001
l-12 -7c-158.667 -86.667 -283.667 -130 -375 -130h-15l-14 1c-143.333 16.667 -233.333 154 -270 412c-9.33301 68.667 -14 148 -14 238c0 28.667 0.333008 58.334 1 89.001c2 61.333 5.66699 127.333 11 198c-54 9.33301 -91.667 30.666 -113 63.999
c-9.33301 14.667 -14 30.667 -14 48c0 4.66699 0.333008 9 1 13c1.33301 12.667 5 26.334 11 41.001c8.66699 22 28.667 53 60 93c14.667 19.333 24.334 33 29.001 41c24 38.667 42.333 107.334 55 206.001c6 48 11.667 84 17 108c-12.667 0 -24.334 0.666992 -35.001 2
c-72.667 8.66699 -119.334 33.334 -140.001 74.001c-6.66699 12.667 -10 26.667 -10 42c0 4.66699 0.333008 9.66699 1 15c2.66699 23.333 12 48.666 28 75.999c30 51.333 98 93.333 204 126c59.333 18.667 101 35.667 125 51c58.667 38.667 107.334 58 146.001 58
c4 0 8 -0.333008 12 -1c37.333 -4 82.666 -30.667 135.999 -80c15.333 -14.667 39.333 -23.667 72 -27c11.333 -1.33301 23.666 -2 36.999 -2c55.333 0 128.333 11 219 33c94.667 22 163.667 33 207 33c8 0 15 -0.333008 21 -1l7 -1c64.667 -7.33301 103 -34 115 -80
c2 -7.33301 3 -15 3 -23c0 -4.66699 -0.333008 -9.33398 -1 -14.001c-1.33301 -16.667 -6.66602 -33.334 -15.999 -50.001c-16.667 -31.333 -41.334 -58.333 -74.001 -81c-78 -54.667 -195.333 -82 -352 -82c-14 0 -28.333 0.333008 -43 1
c-12 0.666992 -34.667 2.66699 -68 6c-40 4 -75.667 6 -107 6c-90 0 -144.667 -17 -164 -51c-20 -38.667 -35 -101 -45 -187c-2.66699 -19.333 -5 -40.333 -7 -63c0 -10 -0.666992 -20 -2 -30c214 29.333 411.667 44.333 593 45c4.66699 0 15.334 0.333008 32.001 1
c20 0.666992 38.333 1 55 1c27.333 0 49.666 -1 66.999 -3c56 -6.66699 94 -23.667 114 -51c11.333 -15.333 17 -31.333 17 -48v-7c-0.666992 -6.66699 -2.66699 -13 -6 -19c-11.333 -33.333 -42.333 -66 -93 -98c-41.333 -26 -78 -43 -110 -51
c-73.333 -18.667 -184.333 -28 -333 -28h-15l-42 1c-10.667 0 -27.667 0.666992 -51 2c-24 1.33301 -45.333 2 -64 2c-26 0 -47 -1.33301 -63 -4c-45.333 -7.33301 -76.666 -25.666 -93.999 -54.999c-26.667 -46.667 -46 -121.667 -58 -225l-2 -19
c-3.33301 -37.333 -5 -72.333 -5 -105c0 -75.333 9.66699 -136.666 29 -183.999c18.667 -42.667 44.667 -68 78 -76c7.33301 -1.33301 14.666 -2.33301 21.999 -3c10 -1.33301 20.667 -2 32 -2c78 0 192 28.333 342 85c42.667 16.667 74 28.334 94 35.001
c176 60.667 327.333 91 454 91c28.667 0 56 -1.66699 82 -5c22.667 -2.66699 44 -6.33398 64 -11.001c32.667 -7.33301 56.667 -32.666 72 -75.999z" />
    <glyph glyph-name="F" unicode="F" horiz-adv-x="1363" 
d="M1287 1364c42.667 -15.333 64.0049 -37.0049 64.0049 -65.0049v-5l-1 -2c-4.66699 -38 -47 -79 -127 -123c-70.667 -38.667 -124.334 -59 -161.001 -61c-20.667 -1.33301 -47.667 -2 -81 -2c-24.667 0 -52.667 0.333008 -84 1c-18.667 0.666992 -36.667 1 -54 1
c-122.667 0 -214.334 -10.333 -275.001 -31c-74 -24.667 -122.667 -104 -146 -238c-4 -24.667 -7.33301 -50 -10 -76c-3.33301 -35.333 -5 -71.666 -5 -108.999c0 -49.333 3 -100.666 9 -153.999c2 -14.667 9 -45.667 21 -93c25.333 -95.333 38 -172.333 38 -231
c0 -12 -0.666992 -23 -2 -33c-2.66699 -34 -11.334 -59.667 -26.001 -77c-23.333 -28 -57.666 -42 -102.999 -42h-9l-8 1c-95.333 9.33301 -155.333 85.333 -180 228c-7.33301 44.667 -11 100 -11 166c0 49.333 2 105 6 167l1 22l10 132
c7.33301 89.333 11.666 157.333 12.999 204v1c0 13.333 -18 28 -54 44c-53.333 22 -80 50 -80 84v6l1 5c4.66699 28.667 28 63 70 103c28 26.667 45.333 47.334 52 62.001c14.667 30 25 75 31 135c2 20.667 3.33301 42.667 4 66c0.666992 36 2.33398 66.333 5.00098 91
c1.33301 16.667 3.33301 30.667 6 42c-11.333 0.666992 -23.333 1.33398 -36 2.00098c-72.667 7.33301 -119.334 30.666 -140.001 69.999c-8 14 -12 29.333 -12 46c0 3.33301 0.333008 7 1 11c2.66699 23.333 11.667 49 27 77c28.667 52 96 95.333 202 130
c58.667 19.333 100 37.333 124 54c58.667 40.667 107.667 61 147 61c3.33301 0 6.66602 -0.333008 9.99902 -1c38 -3.33301 84 -28.666 138 -75.999c20 -16.667 46.667 -26.667 80 -30c6 -0.666992 12.667 -1 20 -1c49.333 0 126 13.667 230 41c96 24 165.667 36 209 36
c6 0 11.667 -0.333008 17 -1c70 -6.66699 110.667 -33 122 -79c2.66699 -7.33301 4 -15.333 4 -24c0 -3.33301 -0.333008 -6.66602 -1 -9.99902c-1.33301 -17.333 -7.33301 -36 -18 -56c-17.333 -32 -43.333 -60 -78 -84c-83.333 -56.667 -210.666 -85.334 -381.999 -86.001
c-12.667 0.666992 -36 2.33398 -70 5.00098c-36 3.33301 -68.667 5 -98 5c-97.333 0 -154.333 -17.333 -171 -52c-20 -39.333 -34 -102.333 -42 -189c-2 -20 -3.66699 -41.333 -5 -64c-0.666992 -14 -1.33398 -24.667 -2.00098 -32c25.333 4 52.333 8.66699 81 14
c198 36 355.667 54 473 54c31.333 0 59.666 -1.33301 84.999 -4c62 -6 119 -18 171 -36z" />
    <glyph glyph-name="G" unicode="G" horiz-adv-x="1563" 
d="M1502 1285c28.667 -12 43 -50.999 43 -116.999c0 -14.667 -0.666992 -31 -2 -49c-4 -40 -11.333 -86.667 -22 -140l-2 -11c-28.667 -145.333 -83.334 -289 -164.001 -431c-184.667 -324 -400.334 -499.667 -647.001 -527c-16 -2 -32 -3 -48 -3
c-12.667 0 -25.334 0.666992 -38.001 2c-194 17.333 -348.667 163.666 -464 438.999c-82 195.333 -128.667 396.333 -140 603c-1.33301 25.333 -2 51.333 -2 78c0 38.667 1.66699 78.334 5 119.001c8 87.333 24 177.333 48 270c52.667 200.667 134.334 354.667 245.001 462
c98.667 95.333 212.667 143 342 143c16 0 32.333 -0.666992 49 -2c8 -0.666992 16.333 -1.66699 25 -3c109.333 -10 207.333 -68.333 294 -175c82.667 -100.667 127 -208.334 133 -323.001c0.666992 -3.33301 1 -7 1 -11s-0.333008 -8 -1 -12c-4 -47.333 -31 -95 -81 -143
c-26 -25.333 -51 -38 -75 -38h-7c-14.667 1.33301 -28.667 6.66602 -42 15.999c-43.333 32 -79.333 97.667 -108 197c-6 22 -11 37.667 -15 47c-28.667 87.333 -72.334 133.333 -131.001 138c-5.33301 0.666992 -10.333 1 -15 1c-74.667 0 -145 -50 -211 -150
c-78.667 -119.333 -126 -269 -142 -449c-3.33301 -41.333 -5.33301 -84 -6 -128v-9c0 -136 29.667 -290.667 89 -464c75.333 -224 171.333 -341.333 288 -352c4.66699 -0.666992 9.33398 -1 14.001 -1c37.333 0 77 11.667 119 35c158.667 90 292 329.667 400 719
c-67.333 -4 -147.666 -11 -240.999 -21c-15.333 -1.33301 -36.333 -4 -63 -8c-24.667 -4 -46.667 -6 -66 -6c-8.66699 0 -16.667 0.333008 -24 1c-8 0.666992 -15.333 1.66699 -22 3c-33.333 8 -62.333 28.667 -87 62c-23.333 32 -35 61.667 -35 89v9
c0.666992 8.66699 2.66699 17.334 6 26.001c18.667 46.667 72 77.667 160 93l48 9c167.333 29.333 299 44 395 44c22.667 0 43.334 -0.666992 62.001 -2c52.667 -4.66699 97.667 -14.667 135 -30z" />
    <glyph glyph-name="H" unicode="H" horiz-adv-x="1585" 
d="M1546 872v-4.99707c0 -31.333 -22.333 -58 -67 -80c-61.333 -30 -127.333 -52.333 -198 -67h-1v-26c0 -79.333 11 -167.333 33 -264c23.333 -102 36.333 -193 39 -273v-6c0 -42 -13.667 -76.667 -41 -104c-30 -31.333 -70.667 -47 -122 -47c-12.667 0 -26 1 -40 3
c-44.667 8 -75.334 30.333 -92.001 67c-9.33301 21.333 -15.666 56.333 -18.999 105c-4 60 -9.33301 96.333 -16 109c-8.66699 18.667 -16.667 57.334 -24 116.001c-1.33301 10 -3 36.333 -5 79c-7.33301 160.667 -18 250.667 -32 270c-9.33301 12.667 -46 19 -110 19
c-53.333 0 -139.333 -6.66699 -258 -20c-34.667 -4 -58 -6.33301 -70 -7c1.33301 -13.333 4 -42.333 8 -87c14 -141.333 21 -258.333 21 -351c0 -118 -11.333 -196.667 -34 -236c-22 -37.333 -60 -56 -114 -56c-33.333 0 -65.333 8 -96 24c-33.333 17.333 -55 40 -65 68
c-9.33301 24.667 -14 67 -14 127c0 41.333 2.33301 91 7 149c4 53.333 6 101 6 143c0 113.333 -14 185 -42 215c-16.667 17.333 -39.334 26 -68.001 26c-18 0 -38.667 -3.33301 -62 -10c-10 -3.33301 -19.333 -5 -28 -5c-18.667 0 -35.667 6.33301 -51 19
c-23.333 18 -37 43.667 -41 77c-0.666992 6 -1 11.667 -1 17c0 21.333 5 40.666 15 57.999c14.667 25.333 37 41.666 67 48.999c20 4.66699 45.667 7 77 7l37 -1c18.667 0 34 1 46 3c10.667 0.666992 16 21.334 16 62.001c0 24.667 -2 57 -6 97c-2 18.667 -3 31 -3 37v23
c-2.66699 145.333 -9.66699 284.666 -21 417.999c-1.33301 9.33301 -3 24.666 -5 45.999c-8.66699 78 -13 141.667 -13 191c0 16.667 0.333008 31.667 1 45c7.33301 95.333 36.333 157.333 87 185.999c38.667 22 73 33 103 33c32 0 59.333 -12.333 82 -37
c44.667 -48.667 67 -157.667 67 -327c0 -65.333 -3.33301 -140 -10 -224c-3.33301 -45.333 -5 -73.333 -5 -84v-26c0 -42.667 -1.33301 -84.334 -4 -125.001c-2 -33.333 -3 -68.333 -3 -105c0 -18.667 0.333008 -37.667 1 -57c2 -53.333 15.333 -90.666 40 -111.999
c20.667 -17.333 54 -26 100 -26c20.667 0 54.667 2.33301 102 7c45.333 4.66699 79.333 7.33398 102 8.00098c58.667 2 97.667 13.667 117 35c16 16.667 24 57.334 24 122.001c0 9.33301 -0.333008 19.333 -1 30c-0.666992 20 -1.33398 36 -2.00098 48
c-0.666992 34 -1 72.667 -1 116c-1.33301 80 -6 164.667 -14 254c-0.666992 7.33301 -3 24.666 -7 51.999c-10 80 -15 149.667 -15 209c0 113.333 18 190.333 54 230.999c26.667 30.667 61.667 46 105 46c50.667 0 92.334 -18.333 125.001 -55
c58.667 -64.667 88 -198 88 -400c0 -98 -7 -212.333 -21 -343c-4 -38.667 -6.33301 -65 -7 -79l-4 -46c-4 -52 -6 -91.333 -6 -118c5.33301 -46 15 -76 29 -90c10 -10 32.333 -18.333 67 -25c28.667 -6 51.334 -11.333 68.001 -16c79.333 -24 121 -59.333 125 -106z" />
    <glyph glyph-name="I" unicode="I" horiz-adv-x="507" 
d="M370 369c12 -75.333 18 -137.67 18 -187.003c0 -22 -1.33301 -41.667 -4 -59c-6 -40 -23 -71 -51 -93c-24.667 -20 -52.667 -30 -84 -30c-32.667 0 -62 10 -88 30c-26.667 20 -45 46 -55 78c-17.333 57.333 -26 139.333 -26 246c0 29.333 0.666992 60.333 2 93l2 56
c0.666992 29.333 1 61.666 1 96.999c0 146.667 -6.66699 344.334 -20 593.001l-4 91c-0.666992 14.667 -4 47.334 -10 98.001c-14.667 132 -22 245.667 -22 341c0 170.667 23.667 282.667 71 336c27.333 30 61.333 45 102 45h7c57.333 0 99.333 -15.667 126 -47
c20.667 -25.333 31 -66.666 31 -123.999c0 -37.333 -4.33301 -81.666 -13 -132.999c-4.66699 -25.333 -7.66699 -43 -9 -53c-11.333 -81.333 -17 -188.666 -17 -321.999c0 -102.667 3.33301 -220.334 10 -353.001c6 -126.667 9.66699 -220.334 11 -281.001
c0 -23.333 0.333008 -52.666 1 -87.999c0 -128.667 4.66699 -224.667 14 -288z" />
    <glyph glyph-name="J" unicode="J" horiz-adv-x="1361" 
d="M1219 1386c11.333 -178.667 17.0029 -325.001 17.0029 -439.001c0 -43.333 -0.666992 -81.666 -2 -114.999c-11.333 -205.333 -51 -386 -119 -542c-40.667 -92 -94 -163.333 -160 -214c-66.667 -50.667 -140.334 -76 -221.001 -76c-134.667 0 -257.667 66 -369 198
c-98 116.667 -182.667 273.334 -254 470.001l-10 28c-67.333 184 -101 329.667 -101 437c0 36 3.66699 67.667 11 95c17.333 65.333 55 98 113 98c42.667 0 88.667 -17.667 138 -53c46.667 -33.333 80 -69.666 100 -108.999c3.33301 -14.667 5 -29 5 -43
c0 -36.667 -12.667 -72.334 -38 -107.001c11.333 -63.333 26.666 -124.333 45.999 -183c47.333 -144 112 -263.667 194 -359l12 -13c75.333 -89.333 131.666 -134 168.999 -134c19.333 0 36 12.333 50 37c36 64.667 64.667 176 86 334l7 48
c28.667 202.667 43 367.667 43 495c0 51.333 -2.33301 96.666 -7 135.999c-4 34 -11.333 87.667 -22 161c-22 151.333 -33 282 -33 392c0 120.667 13.333 216.334 40 287c24.667 63.333 62 95 112 95c114 0 172.667 -108.333 176 -325l2 -104
c2.66699 -219.333 7.66699 -384.333 15 -495z" />
    <glyph glyph-name="K" unicode="K" horiz-adv-x="1748" 
d="M1720 258c4.66699 -13.333 7 -25.665 7 -36.998c0 -14 -3.33301 -26.667 -10 -38c-16.667 -28 -50 -45 -100 -51c-36.667 -4.66699 -73.334 -7 -110.001 -7c-116.667 0 -230 24.333 -340 73c-144 64 -277 143.667 -399 239l-50 42c-88.667 76.667 -156.667 118 -204 124
c0.666992 -22 7.33398 -71 20.001 -147c18 -103.333 27 -188.666 27 -255.999c0 -78.667 -12.333 -132.334 -37 -161.001c-21.333 -26 -51 -39 -89 -39c-7.33301 0 -15.333 0.666992 -24 2c-77.333 8 -129 70.333 -155 187c-16 68.667 -24.667 184 -26 346
c-2 117.333 -7.33301 190.666 -16 219.999c-7.33301 26.667 -45.333 70.667 -114 132c-54 48 -89.667 84.333 -107 109c-18 26 -27 50 -27 72c0 14 3.33301 27 10 39c14.667 27.333 45.667 55.666 93 84.999c44.667 27.333 75.667 53.666 93 78.999
c30.667 42 48.334 102 53.001 180c0.666992 5.33301 1 13 1 23c0 20 -1 49 -3 87c-1.33301 36.667 -2 71.667 -2 105c0 190 24.667 310.667 74 362c25.333 26.667 57 40 95 40c8.66699 0 18 -0.666992 28 -2c35.333 -0.666992 63.333 -13.667 84 -39
c24 -29.333 36 -82.333 36 -159c0 -80 -13 -186 -39 -318c-10 -53.333 -16.333 -89 -19 -107c48 23.333 119.667 70.333 215 141c74 54 128.333 91.333 163 112c32.667 18.667 82 54.334 148 107.001c100 80 176.667 129.333 230 148c18.667 6.66699 37.667 10 57 10
s39 -3.33301 59 -10c40 -13.333 68 -35 84 -65c8.66699 -16 13 -32.333 13 -49c0 -22.667 -8 -46 -24 -70c-91.333 -135.333 -192 -231 -302 -287c-68.667 -34.667 -158.334 -84.667 -269.001 -150l-157 -92c-104 -58 -157.667 -116.333 -161 -175v-5
c0 -62.667 57.333 -135.667 172 -219l46 -34c313.333 -229.333 548 -361 704 -395l17 -4c143.333 -30 228.333 -79.333 255 -148z" />
    <glyph glyph-name="L" unicode="L" horiz-adv-x="1453" 
d="M1558 453c12.667 -18 18.9971 -38.334 18.9971 -61.001v-9c-0.666992 -7.33301 -2 -15 -4 -23c-12 -49.333 -54 -82.666 -126 -99.999c-40.667 -10 -104.334 -15.333 -191.001 -16c-27.333 -0.666992 -45.666 -1.33398 -54.999 -2.00098c-136.667 -10 -296 -39 -478 -87
c-70.667 -18.667 -125.334 -32.667 -164.001 -42c-12 -2.66699 -35 -9.33398 -69 -20.001c-100 -30.667 -176.333 -46 -229 -46c-7.33301 0 -14 0.333008 -20 1c-99.333 8.66699 -149 71.334 -149 188.001v2c0 48 -4.66699 126.333 -14 235
c-9.33301 98.667 -14.333 168.667 -15 210v98c0 162.667 4 326 12 490c0.666992 8 1 20.333 1 37c0 17.333 -0.333008 38.666 -1 63.999v28c0 108.667 3.66699 204.334 11 287.001c16.667 189.333 52.334 309 107.001 359c25.333 23.333 54 35 86 35
c4.66699 0 9 -0.333008 13 -1c4.66699 0 9.33398 -0.666992 14.001 -2c47.333 -4 83 -23 107 -57c18.667 -26.667 28 -67.667 28 -123c0 -15.333 -0.666992 -31.666 -2 -48.999c-5.33301 -56.667 -18.666 -125.334 -39.999 -206.001c-10 -39.333 -16.333 -66 -19 -80
c-8.66699 -48 -15.667 -102.667 -21 -164c-8 -91.333 -12 -197.333 -12 -318s4 -256 12 -406c6 -108.667 10.333 -191 13 -247c58 8 125.333 15.667 202 23c110.667 10.667 217.334 27.334 320.001 50.001c110 25.333 219.667 38 329 38c42 0 83.667 -2 125 -6
c108.667 -10 178.667 -36.667 210 -80z" />
    <glyph glyph-name="M" unicode="M" horiz-adv-x="2113" 
d="M2012 405c20.667 -76 31 -145.001 31 -207.001c0 -16 -0.666992 -31.333 -2 -46c-7.33301 -72.667 -32.666 -109 -75.999 -109c-12.667 0 -27 3 -43 9c-104.667 41.333 -208.667 265.333 -312 672c-22.667 88 -60.334 249.667 -113.001 485
c-40.667 183.333 -71.334 306.666 -92.001 369.999c-2.66699 -240.667 -52.667 -560.334 -150 -959.001c-49.333 -202.667 -100 -357.334 -152 -464.001c-50.667 -104 -99.334 -156 -146.001 -156c-10 0 -20 2.33301 -30 7
c-101.333 46.667 -187.666 275.334 -258.999 686.001c-87.333 500 -137 764.333 -149 793c-39.333 -104 -80 -330.667 -122 -680c-42 -345.333 -81.667 -564.333 -119 -657c-20 -48.667 -44.667 -73 -74 -73c-17.333 0 -36.666 9 -57.999 27c-50 43.333 -82 102 -96 176
c-6 30 -9 65.667 -9 107c0 132.667 30.333 323 91 571v-1l100 447c39.333 174 68 283 86 327c35.333 86.667 86 147 152 181c26.667 14 52.667 21 78 21c46 0 89.667 -22.667 131 -68c90.667 -100 158 -300 202 -600c10.667 -72.667 25 -191.667 43 -357
c15.333 -138.667 28.333 -235.667 39 -291c14.667 86 49.334 276 104.001 570c47.333 252.667 78.666 430.334 93.999 533.001c21.333 144 39 230.333 53 259c36 76.667 107.667 115 215 115h11c76.667 -83.333 144.667 -218.666 204 -405.999
c88 -279.333 210.667 -706.666 368 -1282z" />
    <glyph glyph-name="N" unicode="N" horiz-adv-x="1485" 
d="M1344 447c10 -70.667 15.0029 -131.669 15.0029 -183.002c0 -76.667 -10.667 -132.334 -32 -167.001c-36.667 -60 -85.334 -90 -146.001 -90c-96.667 0 -184.667 61 -264 183c-96 145.333 -227.667 395 -395 749l-155 320c-2.66699 -154.667 -4 -300 -4 -436
c0 -231.333 3.66699 -435 11 -611v-7c0 -55.333 -22.667 -106.666 -68 -153.999c-32.667 -34 -66.334 -51 -101.001 -51c-42 0 -76.333 24.333 -103 73c-24 42.667 -37.333 115 -40 217l-1 32c0 38.667 -0.333008 125.334 -1 260.001v496c0 38.667 -0.333008 98.667 -1 180
c-0.666992 38.667 -1 75.667 -1 111c0 176.667 7 310 21 400c10 64 29.333 114 58 150c28 36 62 54 102 54c79.333 0 145.333 -61 198 -183c236 -543.333 445.667 -973.333 629 -1290v58c0 244 -11.333 561.667 -34 953c-0.666992 12.667 -1.66699 27.334 -3 44.001
c-6 80.667 -9 154 -9 220c0 198 26.667 325.667 80 383c24.667 26.667 54.667 40 90 40c40 0 72.333 -13.667 97 -41c42.667 -47.333 64 -144 64 -290c0 -65.333 -4.33301 -141 -13 -227c-2.66699 -23.333 -4 -37 -4 -41c-13.333 -156 -20 -325.333 -20 -508
c0 -168 5.66699 -347.667 17 -539c1.33301 -20 5.66602 -55 12.999 -105z" />
    <glyph glyph-name="O" unicode="O" horiz-adv-x="1470" 
d="M479 1598c-88.667 -69.333 -132.998 -202 -132.998 -398c0 -85.333 8.33301 -182 25 -290c58.667 -388.667 179 -590.667 361 -606c9.33301 -0.666992 18.666 -1 27.999 -1c83.333 0 149.666 30 198.999 90c60.667 74.667 94.667 190 102 346c0.666992 20 1 40 1 60
c0 96.667 -9.33301 191 -28 283c-53.333 256 -126 437 -218 543c-30 34 -61.333 59.667 -94 77c-20.667 11.333 -38.667 17 -54 17c-14 0 -26 -4.66699 -36 -14c-8 -6.66699 -19 -21 -33 -43c-30 -46 -59.667 -69 -89 -69c-10 0 -20.333 1.66699 -31 5zM1341 1009
c8.66699 -76.667 13.001 -149.332 13.001 -217.999c0 -258.667 -61.333 -462 -184 -610c-90 -108.667 -208.667 -168.334 -356 -179.001c-16.667 -1.33301 -34 -2 -52 -2c-220.667 -0 -397.667 103.333 -531 310c-117.333 180.667 -180 400.667 -188 660
c-0.666992 30 -1 59.667 -1 89c0 370.667 75.333 633.667 226 789c106 109.333 247.333 164 424 164c220 0 392 -154.333 516 -463c67.333 -168 111.666 -348 132.999 -540z" />
    <glyph glyph-name="P" unicode="P" horiz-adv-x="1387" 
d="M860 1118c196 54 294 121.001 294 201.001v4c0 84 -97.333 162 -292 234c-16.667 5.33301 -152 37.666 -406 96.999l-47 -6c-0.666992 -117.333 -1 -207 -1 -269c0 -182.667 2.33301 -296.667 7 -342c238.667 38 387 65 445 81zM975 1800
c194.667 -77.333 326.335 -156.003 395.002 -236.003c50.667 -59.333 76 -125.666 76 -198.999c0 -66 -20 -137.333 -60 -214c-68 -132 -200.333 -229 -397 -291c-67.333 -21.333 -155 -42.333 -263 -63c-162.667 -31.333 -248 -47.666 -256 -48.999
c-32.667 -7.33301 -49 -47.333 -49 -120c0 -36.667 4 -81.334 12 -134.001c4.66699 -32 16.334 -94.333 35.001 -187c13.333 -69.333 20 -115 20 -137v-23c0 -100.667 -12.667 -166.667 -38 -198c-16 -19.333 -35.333 -29 -58 -29c-26.667 0 -58 13 -94 39
c-72.667 42.667 -115.334 84 -128.001 124c-9.33301 30 -14 100.333 -14 211c0 31.333 0.333008 65.333 1 102c0.666992 20 1 39 1 57c0 125.333 -10.333 206.333 -31 243c-4.66699 8.66699 -24.334 23.667 -59.001 45c-30 18.667 -47 40.334 -51 65.001
c-0.666992 4.66699 -1 9.33398 -1 14.001c0 22 10.333 42.667 31 62l71 52c-8.66699 196 -14 344.667 -16 446c0 11.333 2 38.333 6 81c5.33301 46 8.33301 81.333 9 106v12c3.33301 20.667 5 38.667 5 54c0 41.333 -13.333 62 -40 62h-13c-44 0 -73.667 15.333 -89 46
c-5.33301 10.667 -8 22 -8 34c0 29.333 16.667 62.333 50 99c16.667 18 44.334 35.333 83.001 52c41.333 18 69.666 33.667 84.999 47c46 39.333 93.333 59 142 59c6 0 12 -0.333008 18 -1c35.333 0 61.666 -13.667 78.999 -41c20.667 -32 48.667 -52 84 -60
c216.667 -50.667 370.667 -94 462 -130z" />
    <glyph glyph-name="Q" unicode="Q" horiz-adv-x="1762" 
d="M593 1095c97.333 0 243.334 -108.999 438.001 -326.999l21 -24c88 -108.667 142.667 -163 164 -163c20.667 21.333 31 58.333 31 111c0 59.333 -13 138.666 -39 237.999c-39.333 151.333 -91 289 -155 413c-110.667 214.667 -233.334 327 -368.001 337
c6.66699 -45.333 11 -91.333 13 -138c0.666992 -12.667 1 -24.334 1 -35.001c0 -36.667 -5.33301 -60.667 -16 -72c-5.33301 -6 -12.666 -9 -21.999 -9c-16 0 -37.667 9.33301 -65 28c-36.667 25.333 -63.667 38 -81 38c-4 0 -7.66699 -0.666992 -11 -2
c-74.667 -18.667 -121.334 -167.334 -140.001 -446.001c-2.66699 -41.333 -4.66699 -69.333 -6 -84c-8 -65.333 -12 -124.666 -12 -177.999c0 -56 4.33301 -105.667 13 -149c22.667 -117.333 77 -208.333 163 -273c77.333 -58 165.333 -91 264 -99c14 -1.33301 28 -2 42 -2
c81.333 0 151.333 20.667 210 62c-32.667 41.333 -102.667 103.333 -210 186c-108 82.667 -183.333 148 -226 196c-71.333 80.667 -107 161.334 -107 242.001v2c1.33301 98.667 34 148 98 148zM1651 193.001c51.333 -17.333 86.334 -35.335 105.001 -54.002
c27.333 -29.333 41 -73.666 41 -132.999v-16c-3.33301 -73.333 -39.666 -110 -108.999 -110c-50.667 0 -116.334 21 -197.001 63c-60 31.333 -108.333 62 -145 92c-54 44.667 -94.333 67 -121 67c-18.667 0 -57 -10.667 -115 -32l-7 -3c-96 -35.333 -193.667 -53 -293 -53
c-90.667 0 -183 15 -277 45c-146.667 46.667 -263 129.334 -349 248.001s-132 259.667 -138 423c-0.666992 22.667 -1 45.334 -1 68.001c0 170 22 339.667 66 509c57.333 218.667 140.666 384.667 249.999 498c104.667 108 227.667 162 369 162h17
c191.333 0 374 -162.667 548 -488c146 -271.333 219 -507 219 -707c0 -18.667 -0.666992 -37.334 -2 -56.001c-6 -78 -22.667 -155.333 -50 -232c-12.667 -34 -27 -67.667 -43 -101c37.333 -54.667 76 -98.667 116 -132c24 -20 62.667 -39.333 116 -58z" />
    <glyph glyph-name="R" unicode="R" horiz-adv-x="1762" 
d="M505 991c505.333 124.667 758 245.334 758 362.001c0 12 -1.66699 23.667 -5 35c-22 76.667 -192.667 154 -512 232c-87.333 20.667 -147.333 31 -180 31c-7.33301 0 -13.333 -0.666992 -18 -2c-37.333 -13.333 -56 -73 -56 -179
c0 -184.667 4.33301 -344.334 13 -479.001zM768 763c65.333 -38 285.997 -151.999 661.997 -341.999c247.333 -120 371 -198.333 371 -235v-4c-13.333 -46 -47 -84.667 -101 -116c-37.333 -22 -70.333 -33 -99 -33c-11.333 0 -22 1.66699 -32 5
c-261.333 90.667 -486 193.667 -674 309c-221.333 136 -348.666 211 -381.999 225c2.66699 -177.333 4 -282.666 4 -315.999v-12c-5.33301 -142 -29.333 -218.667 -72 -230c-35.333 -9.33301 -66.333 -14 -93 -14c-70.667 0 -115 21 -133 63
c-8 19.333 -12 71.666 -12 156.999v20c0 13.333 2 46 6 98c4 54 6.33301 96 7 126v27c0 86 -9 130.667 -27 134l-29 -1c-23.333 -2.66699 -38 -4 -44 -4h-7c-32 0 -55.333 9.33301 -70 28c-11.333 15.333 -17 33.333 -17 54c0 18 4 37.667 12 59
c14.667 40.667 35 72.667 61 96c2 0 28.667 15 80 45c16.667 17.333 25.667 44 27 80c3.33301 93.333 5.33301 235 6 425c0 145.333 1 218 3 218c-10 55.333 -47.667 83.333 -113 84c-67.333 1.33301 -117.666 18.666 -150.999 51.999c-14 14.667 -21 30 -21 46
c0 28.667 23.333 59.667 70 93c46 33.333 120.667 55 224 65c26 2.66699 59.333 22.667 100 60c36 33.333 69 50 99 50h5c28.667 0 50 -12.667 64 -38c26.667 -48.667 40.334 -73.334 41.001 -74.001l317 -85c30.667 -9.33301 84.667 -23.666 162 -42.999
c78 -19.333 138 -35.333 180 -48c144.667 -44 249.334 -98 314.001 -162c47.333 -46.667 71 -106.667 71 -180c0 -28 -3.33301 -57.667 -10 -89c-21.333 -98.667 -63 -180.667 -125 -246c-70.667 -75.333 -179.334 -149 -326.001 -221c-121.333 -60 -237.333 -102 -348 -126
z" />
    <glyph glyph-name="S" unicode="S" horiz-adv-x="1795" 
d="M1314 1070c224 -76 374.996 -144.997 452.996 -206.997c71.333 -56.667 107 -124.667 107 -204c0 -21.333 -2.66699 -43.666 -8 -66.999c-27.333 -119.333 -120.666 -236 -279.999 -350c-169.333 -120.667 -360.333 -197 -573 -229
c-59.333 -8.66699 -117.666 -13 -174.999 -13c-164 0 -319.667 36.333 -467 109c-206 102 -310 239 -312 411v10c0 150 46.667 240.333 140 271c17.333 5.33301 34.333 8 51 8c17.333 0 34.333 -3 51 -9c32 -12 50.667 -29.667 56 -53
c0.666992 -4.66699 1 -10.334 1 -17.001c0 -12 -1.33301 -27.333 -4 -46c-6.66699 -38 -10 -64.667 -10 -80v-9c0 -67.333 28 -123 84 -167c116.667 -91.333 254.667 -137 414 -137c38.667 0 78.334 2.66699 119.001 8c215.333 28.667 401.333 123.334 558 284.001
c19.333 20 29 38.667 29 56c0 12.667 -5 24.667 -15 36c-22 23.333 -70.333 47.666 -145 72.999c-38 12.667 -126 38 -264 76c-137.333 38.667 -251.333 73 -342 103c-308 104 -516.333 188.667 -625 254c-159.333 96.667 -240.666 213.667 -243.999 351v5
c0 129.333 98.667 230 296 302c138.667 50 299.667 79.667 483 89c19.333 1.33301 38.666 2 57.999 2c125.333 0 250.666 -22.333 375.999 -67c151.333 -54 227 -121 227 -201c0 -8 -0.666992 -16 -2 -24c-10 -54 -23.667 -90.333 -41 -109c-11.333 -12.667 -27 -19 -47 -19
c-6 0 -12.667 0.666992 -20 2c-16 2.66699 -51.333 13.667 -106 33c-58.667 21.333 -110.667 36.666 -156 45.999c-67.333 14.667 -142 22 -224 22c-63.333 0 -130.666 -4.33301 -201.999 -13c-161.333 -18.667 -244.666 -46.334 -249.999 -83.001
c-0.666992 -4.66699 -1 -9.33398 -1 -14.001c0 -81.333 111.667 -159.333 335 -234c66 -22 178 -54.667 336 -98c154 -43.333 267 -77 339 -101z" />
    <glyph glyph-name="T" unicode="T" horiz-adv-x="1371" 
d="M1477 2011c43.333 0 86.668 -13.9961 130.001 -41.9961c35.333 -22.667 53 -47.667 53 -75c0 -14 -4.66699 -28.667 -14 -44c-34 -56.667 -96 -99 -186 -127c-46 -14.667 -119.667 -28.667 -221 -42c-6 -0.666992 -15 -1 -27 -1s-27.333 0.333008 -46 1
c-51.333 2 -85 3 -101 3c-87.333 0 -139.333 -12.333 -156 -37c-36 -52.667 -54 -149 -54 -289v-8c0.666992 -46.667 3.33398 -104.334 8.00098 -173.001c6 -91.333 9.33301 -138.333 10 -141c16.667 -360 26 -578 28 -654c0 -15.333 2 -41.333 6 -78
c3.33301 -38.667 5.33301 -67.667 6 -87v-23c0 -60 -9.33301 -104.667 -28 -134c-23.333 -35.333 -70.333 -55.333 -141 -60h-5c-35.333 0 -61.333 29 -78 87c-2 6 -10 53.667 -24 143c-28 172 -44 408 -48 708c-0.666992 42 -1 90.667 -1 146
c0 129.333 1.66699 294.666 5 495.999v1c0 29.333 -28 49 -84 59c-18 2.66699 -55.333 4.66699 -112 6h-5c-22.667 0 -64.334 -3.66699 -125.001 -11c-80.667 -10 -140.334 -16.333 -179.001 -19c-26.667 -2 -51.667 -3 -75 -3c-109.333 0 -177.333 21 -204 63
c-17.333 27.333 -26 53 -26 77c0 59.333 56 105 168 137c90.667 25.333 194.667 38.666 312 39.999c142.667 2 345 14.667 607 38c280 25.333 482.333 39.666 607 42.999z" />
    <glyph glyph-name="U" unicode="U" horiz-adv-x="1490" 
d="M1360 1455c15.333 -125.333 23.0029 -245.998 23.0029 -361.998c0 -176.667 -17.667 -343.667 -53 -501c-69.333 -306.667 -194.333 -494 -375 -562c-53.333 -20 -110.666 -30 -171.999 -30c-130.667 0 -259 42.333 -385 127c-126.667 84.667 -211.334 185 -254.001 301
c-72.667 199.333 -109 423.666 -109 672.999c0 170.667 17 353 51 547c1.33301 5.33301 3.33301 16.666 6 33.999c12.667 88.667 32.667 148.667 60 180c22.667 26 59.667 39 111 39c70.667 0 116.667 -20.333 138 -61c10 -19.333 15 -44 15 -74
c0 -38 -8.33301 -84.333 -25 -139c-8.66699 -28.667 -14.334 -49.667 -17.001 -63c-18.667 -94 -28 -201.667 -28 -323c0 -34 0.666992 -69 2 -105l2 -51c7.33301 -188 21.333 -330 42 -426c37.333 -170 101.666 -277.667 192.999 -323c56 -28 107.333 -42 154 -42
c113.333 0 200.666 82.333 261.999 247c43.333 116.667 66 239 68 367c0.666992 24 1 47.667 1 71c0 237.333 -25 437.666 -75 600.999l-10 33c-30.667 98.667 -49.667 174.334 -57 227.001c-3.33301 26 -5 50 -5 72c0 56.667 11.667 101 35 133c30 40.667 77.333 61 142 61
c12.667 0 25.667 -0.666992 39 -2l10 -1l7 -8c98.667 -118 166.667 -331.333 204 -640z" />
    <glyph glyph-name="V" unicode="V" horiz-adv-x="1266" 
d="M1440 2112c0 -48 -19.999 -121.333 -59.999 -220c-17.333 -43.333 -47.666 -112 -90.999 -206c-38 -81.333 -62 -136.333 -72 -165c-110.667 -315.333 -193.334 -580.666 -248.001 -795.999c-48.667 -191.333 -118.334 -405 -209.001 -641c-21.333 -56 -48 -84 -80 -84
c-28.667 0 -61.667 22.333 -99 67c-62 75.333 -106.667 160 -134 254c-35.333 136 -180.333 470 -435 1002c-56 118 -91.333 202.667 -106 254c-13.333 45.333 -20 85.666 -20 120.999c0 56.667 17 99.667 51 129c29.333 26 58.666 39 87.999 39
c38.667 0 77.334 -22.333 116.001 -67c43.333 -49.333 83.333 -120 120 -212c0 -0.666992 60.333 -166 181 -496c86.667 -238 153 -400.333 199 -487c56 119.333 116.667 307.333 182 564c73.333 288 126.666 476.333 159.999 565
c74.667 196.667 119.334 306.667 134.001 330c54 86 122 129 204 129c28 0 57.333 -5 88 -15c20.667 -8.66699 31 -30.334 31 -65z" />
    <glyph glyph-name="W" unicode="W" horiz-adv-x="1808" 
d="M1539 2386c82.667 -86.667 133.337 -211.667 152.004 -375c6 -47.333 9 -117 9 -209c0 -59.333 -1.33301 -128 -4 -206c-16.667 -551.333 -38.334 -919.333 -65.001 -1104c-44 -308.667 -119 -463 -225 -463c-56 0 -121 43.667 -195 131
c-90.667 107.333 -178.334 265.666 -263.001 474.999c-104.667 258 -178.334 423.667 -221.001 497v-1c0 -43.333 -27.333 -297.666 -82 -762.999c-20 -168 -46.333 -275.667 -79 -323c-21.333 -30 -46.333 -45 -75 -45s-61 15 -97 45c-59.333 50 -99.333 105.333 -120 166
c-100 293.333 -168.333 522 -205 686c-42 186.667 -63 355.667 -63 507c0 70.667 4.66699 137.334 14 200.001c8 56.667 23 105 45 145c28.667 55.333 65.334 83 110.001 83h5c58.667 -2 95.334 -19.667 110.001 -53c6.66699 -15.333 10 -50 10 -104v-28
c-0.666992 -36.667 -1 -72.334 -1 -107.001c0 -330.667 26 -569.334 78 -716.001c21.333 58.667 38.666 138.334 51.999 239.001c19.333 150 30 231.333 32 244c26.667 142 43.667 226.333 51 253c32 108.667 76.667 178.334 134 209.001c19.333 10.667 38 16 56 16
c97.333 0 185.666 -142.667 264.999 -428c100 -358.667 220 -664.667 360 -918c68 206 102 504.333 102 895c0 97.333 -2 200.666 -6 309.999c-6.66699 176 -20.667 342 -42 498c-4 26.667 -6 50.334 -6 71c0 42.667 8 72 24 88c9.33301 9.33301 27.666 21.333 54.999 36
c36 19.333 64.333 35.666 85 49z" />
    <glyph glyph-name="X" unicode="X" horiz-adv-x="1572" 
d="M1321 388c109.333 -84 164.333 -156.331 165 -216.998v-3c0 -42 -14 -77.667 -42 -107c-33.333 -34 -73.333 -51 -120 -51c-11.333 0 -23.333 1 -36 3c-60 10.667 -122.333 55.667 -187 135c-39.333 48 -95.333 132.333 -168 253c-80 132.667 -138.333 215.667 -175 249
c-13.333 12 -27.666 18 -42.999 18c-79.333 0 -189.666 -134.333 -330.999 -403l-4 -8c-90.667 -171.333 -174.334 -257 -251.001 -257c-38.667 0 -72.334 22.333 -101.001 67c-16 24.667 -24 53.667 -24 87c0 79.333 44.667 184 134 314c13.333 20 45.333 59 96 117
c156 180 234 303.333 234 370c0 3.33301 -0.333008 6.66602 -1 9.99902c-9.33301 69.333 -74.333 165.333 -195 288c-26.667 27.333 -46 48 -58 62c-125.333 139.333 -188 263.333 -188 372c0 47.333 12 92 36 134c25.333 44.667 55.666 67 90.999 67
c12 0 24.667 -2.66699 38 -8c52.667 -20.667 108.667 -80.667 168 -180c22.667 -37.333 54 -93.666 94 -168.999c37.333 -71.333 66 -124 86 -158c55.333 -92.667 95.666 -139 120.999 -139c23.333 0 51.333 23 84 69l79 111c110.667 156.667 198 271.334 262 344.001
c8.66699 9.33301 22.334 25.666 41.001 48.999c86.667 110.667 157 166 211 166c36.667 0 71.667 -7 105 -21c47.333 -20 71 -49.333 71 -88c1.33301 -10 2 -20.333 2 -31c0 -53.333 -20.333 -108.333 -61 -165c-28.667 -39.333 -80 -92.333 -154 -159
c-35.333 -32 -60 -55.333 -74 -70l-34 -35c-137.333 -142.667 -229.333 -255.667 -276 -339c-14 -25.333 -21 -52 -21 -80c0 -32 8.66699 -65.667 26 -101c20.667 -42.667 71.667 -113.334 153 -212.001c68.667 -84 120.334 -151 155.001 -201
c12 -16.667 42.667 -44.334 92 -83.001z" />
    <glyph glyph-name="Y" unicode="Y" horiz-adv-x="1671" 
d="M1469 1200c38.667 -246 60.3291 -432.003 64.9961 -558.003c1.33301 -28.667 2 -56.667 2 -84c0 -178.667 -24.333 -335.334 -73 -470.001c-49.333 -136.667 -122.333 -249.667 -219 -339c-115.333 -106 -247.333 -159 -396 -159c-29.333 0 -59.333 2.33301 -90 7
c-176 24.667 -334 111 -474 259c-126 134 -210.667 286 -254 456c-16.667 64.667 -25 122.667 -25 174c0 107.333 35.667 186.333 107 237c24 16.667 46.667 25 68 25c48 0 86 -41.333 114 -124c15.333 -46.667 30 -120 44 -220c4.66699 -36 8.33398 -58.333 11.001 -67
c24 -98.667 78.667 -198.334 164 -299.001c101.333 -118 204.333 -177 309 -177c42.667 0 84.334 10.667 125.001 32c83.333 44.667 147.666 117 192.999 217c32.667 74 58.667 175.333 78 304c6.66699 45.333 10 97 10 155c0 154 -24 352.667 -72 596
c-24.667 126.667 -41.667 221.334 -51 284.001c-21.333 -17.333 -53.666 -72 -96.999 -164c-8 -18 -13.333 -29.333 -16 -34c-64.667 -118 -156 -212 -274 -282c-89.333 -53.333 -180.333 -80 -273 -80c-93.333 0 -169.666 27 -228.999 81
c-58.667 53.333 -92.334 126 -101.001 218c-0.666992 6.66699 -1 14 -1 22c0 69.333 24 178.666 72 327.999c59.333 184.667 124 315.334 194 392.001c42.667 47.333 84.667 71 126 71c31.333 0 62.333 -13.667 93 -41c26.667 -22.667 40 -54.667 40 -96
c0 -16 -2 -33.333 -6 -52c-8 -39.333 -29.333 -97.333 -64 -174c-16.667 -36.667 -27 -61.667 -31 -75c-3.33301 -10 -10.666 -28.667 -21.999 -56c-54.667 -137.333 -82 -235.666 -82 -294.999c0 -27.333 5.66699 -46.333 17 -57c3.33301 -3.33301 8.33301 -5 15 -5
c26 0 66 23 120 69c42.667 36.667 76.334 70.334 101.001 101.001c66 82.667 126.667 196 182 340c12.667 32.667 26 96.334 40 191.001c17.333 114.667 35.333 197.334 54 248.001c32 86 80.333 143 145 171l5 2l5 -1c82.667 -16 139 -46 169 -90
c20 -28.667 37 -85 51 -169l8 -46c21.333 -118 50 -295.333 86 -532z" />
    <glyph glyph-name="Z" unicode="Z" horiz-adv-x="2365" 
d="M2686 186c3.33301 -14 4.99805 -27.332 4.99805 -39.999c0 -29.333 -9 -55.666 -27 -78.999c-35.333 -44.667 -88.333 -67 -159 -67c-6 0 -12 0.333008 -18 1c-45.333 3.33301 -110.333 17.666 -195 42.999c-48 14.667 -83.667 24.667 -107 30
c-79.333 18 -202.666 34 -369.999 48c-78.667 6 -136.667 11.333 -174 16c-214.667 24 -538.334 41.333 -971.001 52l-125 3c-24 0 -77.333 -9 -160 -27c-140.667 -30.667 -242.667 -46 -306 -46c-79.333 0 -134.666 18 -165.999 54c-20.667 23.333 -31 54 -31 92
c0 10.667 1 22.334 3 35.001c6.66699 47.333 34 88 82 122l136 103c51.333 21.333 86 38 104 50c164 108 327 222.333 489 343c312 232 601 468.333 867 709c-275.333 -23.333 -599.666 -71 -972.999 -143c-11.333 -2 -31.333 -7.66699 -60 -17
c-56 -17.333 -97.667 -26 -125 -26c-48.667 13.333 -82.334 41 -101.001 83c-16 35.333 -24 73 -24 113c0 7.33301 0.333008 14.666 1 21.999c4.66699 56 25.334 96 62.001 120c21.333 13.333 57.666 20 108.999 20c28.667 0 75 -2.66699 139 -8
c54.667 -5.33301 94.334 -8 119.001 -8c8 0 14.333 0.333008 19 1c69.333 8 172 25 308 51c70.667 13.333 123.667 23 159 29l133 22c366 63.333 641.667 98.666 827 105.999c26.667 0 47.334 -22.333 62.001 -67c9.33301 -30 14 -58.667 14 -86
c-4.66699 -32 -41 -68.667 -109 -110c-10 -6.66699 -16.333 -11 -19 -13c-116 -77.333 -251 -191.333 -405 -342c-200.667 -196 -521.667 -460.667 -963 -794c-57.333 -43.333 -86 -73 -86 -89c0 -8.66699 8.33301 -13.334 25 -14.001
c47.333 -2 172.666 -5.66699 375.999 -11c649.333 -16.667 1128 -64 1436 -142c116.667 -29.333 183 -75.666 199 -138.999z" />
    <glyph glyph-name="bracketleft" unicode="[" horiz-adv-x="1053" 
d="M924 -72c49.333 0 75.6709 -46.001 79.0039 -138.001v-7c0 -54.667 -15.667 -98.667 -47 -132c-46.667 -47.333 -138 -71 -274 -71c-62.667 0 -137.334 5.66699 -224.001 17c-30 4 -51 7 -63 9c-112.667 13.333 -180.334 31.333 -203.001 54
c-22.667 23.333 -40.667 91.666 -54 204.999l-2 17c-20.667 170.667 -37.334 345 -50.001 523c-24 333.333 -36 620 -36 860c0 188.667 7.33301 348.667 22 480c4 37.333 8 96.333 12 177c9.33301 184 28.666 312.333 57.999 385c49.333 123.333 142.666 185 279.999 185
c12.667 0 26 -0.333008 40 -1c12 -1.33301 20 -2 24 -2l47 2c54 0.666992 93.667 1 119 1c106.667 0 177 -7.66699 211 -23c25.333 -10.667 43 -34.334 53 -71c10 -36.667 15 -69.667 15 -99c0 -40.667 -9.66699 -74.334 -29 -101c-18 -24.667 -37.333 -40 -58 -46
c-8.66699 -2.66699 -19.667 -4 -33 -4s-28.666 1.33301 -45.999 4c-36.667 6 -68 9 -94 9h-16l-60 -3c-13.333 -0.666992 -37 -1.33398 -71 -2c-87.333 -2.66699 -143.333 -23 -168 -61c-18.667 -28.667 -35 -104.334 -49 -227.001l-4 -28c-10.667 -94 -16 -209 -16 -345
c0 -173.333 8.66699 -380.666 26 -621.999c6 -89.333 10.667 -156.666 14 -201.999c2 -31.333 7 -81 15 -149c5.33301 -43.333 8.33301 -139 9 -287c1.33301 -155.333 5 -238.666 11 -249.999c25.333 -32.667 62.333 -55.667 111 -69c59.333 -16.667 149.333 -25 270 -25
c26.667 0 63 7 109 21c34 10.667 58 16 72 16z" />
    <glyph glyph-name="backslash" unicode="\" horiz-adv-x="1529" 
d="M1490 -192c4 -19.333 6 -38.002 6 -56.002c0 -16.667 -1.66699 -32.667 -5 -48c-3.33301 -14.667 -8 -28.334 -14 -41.001c-18 -37.333 -44.333 -63.666 -79 -78.999c-14 -6 -28 -9 -42 -9c-10 0 -19.667 1.33301 -29 4c-44.667 12 -88.667 53 -132 123
c-87.333 138 -173.666 339.333 -258.999 604l-17 57c-22.667 66.667 -53 140.334 -91 221.001l-17 35c-4 10.667 -43.333 99.667 -118 267c-38 86 -59 134.333 -63 145l-81 186l-37 89c-124.667 296.667 -233.334 520.667 -326.001 672c-6.66699 12 -18.667 30.667 -36 56
c-86 132 -129 233.333 -129 304c0 8 0.666992 15.667 2 23l2 6c8.66699 41.333 39 75 91 101c22 12 44.667 18 68 18c12 0 24.333 -1.66699 37 -5c14 -4 28.333 -10.333 43 -19c122.667 -69.333 274 -352 454 -848c22 -60 36.667 -98.667 44 -116l133 -311
c118 -283.333 216 -504.666 294 -663.999l4 2c170 -336.667 269 -575.667 297 -717z" />
    <glyph glyph-name="bracketright" unicode="]" horiz-adv-x="1089" 
d="M1035 2011c2.66699 -19.333 3.99902 -93 3.99902 -221s-1.33301 -310.333 -4 -547c-3.33301 -340 -19 -665 -47 -975c-16 -177.333 -36 -350.333 -60 -519c-8.66699 -62 -36.667 -103 -84 -123c-33.333 -14 -97.333 -22 -192 -24c-44.667 -1.33301 -78 -3 -100 -5
c-114 -8.66699 -183.667 -13 -209 -13c-121.333 0 -187.333 2 -198 6c-47.333 18 -71 70.333 -71 157c0 10 0.333008 20.333 1 31c3.33301 64.667 35.666 98.667 96.999 102h7c18 0 43 -2 75 -6c32.667 -4 56.334 -6 71.001 -6h6c130.667 0 237.667 19 321 57
c34 16 64.667 112.333 92 289c21.333 140 32 256.333 32 349v30c-2 55.333 -3 101.333 -3 138c0 30 0.666992 54 2 72l3 37c15.333 244 25.333 426.333 30 547c2.66699 64.667 4 128.667 4 192c0 154 -8 305.333 -24 454v4c0 2.66699 0.333008 7 1 13s1 11.333 1 16v6
c-0.666992 20 -9 37 -25 51c-49.333 43.333 -173 65.666 -371 67c-24 0 -66.333 -2.66699 -127 -8c-26 -2.66699 -48.333 -4 -67 -4c-16 0 -29.333 1 -40 3c-68 10.667 -104.667 67 -110 169v13c0 82 38 125.333 114 130h13c23.333 0 56.333 -2.66699 99 -8
c42 -4.66699 74.333 -7 97 -7h14c56 2.66699 104 4 144 4c166.667 0 287.334 -28 362.001 -84c94.667 -72 142 -201 142 -387z" />
    <glyph glyph-name="asciicircum" unicode="^" horiz-adv-x="964" 
d="M844 1666c31.333 -34.667 52.3359 -72.665 63.0029 -113.998c4.66699 -18 7 -35.333 7 -52c0 -21.333 -4 -41 -12 -59c-16.667 -38 -45 -57 -85 -57c-24.667 0 -51 8.33301 -79 25c-44 26 -96 72 -156 138c-50.667 54.667 -86 82 -106 82
c-30.667 0 -69.334 -44.667 -116.001 -134c-24.667 -46.667 -57.334 -83.334 -98.001 -110.001c-36 -23.333 -71.667 -35 -107 -35c-41.333 0 -71.333 15.667 -90 47c-10 16.667 -15 36 -15 58c0 36 13.667 78.667 41 128c112 205.333 233.667 357.666 365 456.999l15 11
l14 -10c43.333 -30 143.666 -133.333 300.999 -310z" />
    <glyph glyph-name="underscore" unicode="_" horiz-adv-x="2083" 
d="M1953 -73c53.333 -25.333 80 -64.667 80 -118c0 -8.66699 -0.666992 -18 -2 -28c-5.33301 -35.333 -20.333 -66 -45 -92c-25.333 -26 -54.333 -41.333 -87 -46c-114 -15.333 -197.333 -23 -250 -23c-38.667 0 -94.334 2.66699 -167.001 8c-104 6 -228.333 9 -373 9
c-39.333 0 -80 -0.333008 -122 -1h-388l-169 1c-28 0 -61.333 -1 -100 -3c-20 -1.33301 -39.667 -2 -59 -2c-42.667 0 -83.334 2.66699 -122.001 8c-40 6 -68.333 27 -85 63c-9.33301 21.333 -14 43.333 -14 66c0 40 15 82.333 45 127c24 36 96 54 216 54
c24.667 0 57 -0.666992 97 -2c37.333 -1.33301 90.333 -4 159 -8c106.667 -6 185.334 -9 236.001 -9l72 1c82 1.33301 162.667 2 242 2c52.667 0 105 -0.333008 157 -1h86c54.667 0 104.334 0.333008 149.001 1l109 2c18 0.666992 48 3 90 7c50 5.33301 88 8 114 8
c52 0 95.667 -8 131 -24z" />
    <glyph glyph-name="grave" unicode="`" horiz-adv-x="827" 
d="M695 1652c53.333 -70.667 80.667 -128.999 82 -174.999v-2c0 -42.667 -21.667 -82.667 -65 -120c-20 -16.667 -40 -25 -60 -25c-20.667 0 -38.334 8.66699 -53.001 26c-106 84 -242.333 224 -409 420c-6 6.66699 -17.333 18 -34 34c-44 40.667 -73.333 74 -88 100
c-12 21.333 -18 41.666 -18 60.999c0 22.667 7.66699 44 23 64c12.667 16.667 25 30 37 40c20.667 18 42.334 27 65.001 27c24 0 58.333 -15.667 103 -47l6 -4c162.667 -116 298 -246.667 406 -392z" />
    <glyph glyph-name="a" unicode="a" horiz-adv-x="1305" 
d="M679 770c-4 2.66699 -8.66895 4 -14.002 4c-22 0 -52.333 -21 -91 -63c-49.333 -54.667 -98.666 -127.667 -147.999 -219c-45.333 -85.333 -71.666 -149.666 -78.999 -192.999c68.667 19.333 140.667 84 216 194c74 107.333 112.667 199.666 116 276.999zM1177 294
c48 -66.667 71.999 -121.667 71.999 -165c-6 -32.667 -26.667 -61.667 -62 -87c-34.667 -25.333 -71.334 -38 -110.001 -38c-32 0 -58.667 10 -80 30c-44 40 -84.333 118 -121 234c-28 90.667 -55.333 153 -82 187l-27 -42c-72 -114 -131 -196.333 -177 -247
c-79.333 -86.667 -162.333 -139.334 -249 -158.001c-25.333 -5.33301 -49.666 -8 -72.999 -8c-68 0 -123 21.667 -165 65c-42.667 43.333 -66 102.333 -70 177c0 150.667 95.667 335.667 287 555c245.333 199.333 430.666 299 555.999 299h10
c50.667 0 90.334 -48 119.001 -144c16.667 -54 32.334 -139.333 47.001 -256c4.66699 -40.667 8 -65.667 10 -75c2 -7.33301 5.66699 -24.666 11 -51.999c18 -91.333 36 -157 54 -197c8 -17.333 24.667 -43.333 50 -78z" />
    <glyph glyph-name="b" unicode="b" horiz-adv-x="1266" 
d="M794 425c32 30.667 61.332 78.335 87.999 143.002c17.333 41.333 26 76 26 104c0 23.333 -6.33301 41.666 -19 54.999c-34 6 -66.333 9 -97 9c-105.333 0 -191 -35.667 -257 -107c-79.333 -84 -119.666 -204.333 -120.999 -361c174 27.333 300.667 79.666 380 156.999z
M1183 804.001c0 -18 -1 -37.334 -3 -58.001c-12 -126 -44.667 -233 -98 -321c-65.333 -110.667 -150 -203.334 -254 -278.001c-110 -78.667 -225.667 -126 -347 -142c-24.667 -3.33301 -48.334 -5 -71.001 -5c-79.333 0 -146.333 20 -201 60
c-69.333 51.333 -104 127 -104 227c0 8 0.333008 16.333 1 25v23c0 53.333 -3 169 -9 347c-4.66699 132.667 -7 249.334 -7 350.001c0 64.667 1 122.667 3 174c16 434 99.667 651 251 651h12c50.667 0 76 -34.667 76 -104c0 -27.333 -4 -60 -12 -98
c-8 -37.333 -22 -88.666 -42 -153.999c-17.333 -57.333 -26.666 -91.333 -27.999 -102c-9.33301 -92 -14 -177.333 -14 -256c0 -120.667 11 -225.667 33 -315c82 99.333 187.333 160.666 316 183.999c39.333 7.33301 83.333 11 132 11c71.333 0 152.333 -7.66699 243 -23
c82 -13.333 123 -78.666 123 -195.999z" />
    <glyph glyph-name="c" unicode="c" horiz-adv-x="955" 
d="M481 309c12 0 24.667 1.00195 38 3.00195c62.667 8 160.334 42.333 293.001 103c138.667 62.667 230 98 274 106c14 2.66699 26.667 4 38 4c57.333 0 87.666 -31 90.999 -93c-20.667 -127.333 -189.334 -251.333 -506.001 -372c-105.333 -40 -198.666 -60 -279.999 -60
c-127.333 0 -226 48.667 -296 146c-50 69.333 -76.333 156.666 -79 261.999v24c0 91.333 17.333 182 52 272c38.667 100 91.334 180.333 158.001 241c70.667 63.333 147 95 229 95h7c76 0 125.667 -31.667 149 -95c6 -16.667 9 -32.334 9 -47.001
c0 -44.667 -26.333 -82.334 -79 -113.001c-108.667 -65.333 -175 -110.333 -199 -135c-42 -43.333 -63 -93 -63 -149c0 -27.333 5.33301 -56.666 16 -87.999c23.333 -69.333 72.666 -104 147.999 -104z" />
    <glyph glyph-name="d" unicode="d" horiz-adv-x="1281" 
d="M649 556c-67.333 -24 -130.334 -55.001 -189.001 -93.001c-72.667 -46 -114.667 -89 -126 -129c-2 -6.66699 -3 -13.334 -3 -20.001c0 -15.333 5.33301 -29.666 16 -42.999l27 -3c58.667 0 117.667 32.333 177 97c56.667 62.667 89.334 126.334 98.001 191.001z
M1150 320.999c54.667 -62.667 82.001 -115.669 82.001 -159.002c0 -13.333 -2.66699 -26 -8 -38c-35.333 -76 -77 -114 -125 -114c-58 0 -136 78 -234 234c-24 38 -41 63.667 -51 77c-64.667 -138.667 -191 -233.667 -379 -285c-87.333 -24 -167.666 -36 -240.999 -36
c-104 0 -156 31 -156 93c-6 30.667 -9 61.334 -9 92.001c0 193.333 125 375 375 545c13.333 8.66699 43.333 22.334 90 41.001c115.333 46 173 83 173 111c-4.66699 44 -7 109.667 -7 197c0 44 0.666992 93.333 2 148c1.33301 68.667 2 125.667 2 171
c0 34 -0.333008 61.333 -1 82l-1 10c-1.33301 22.667 -2 44.334 -2 65.001c0 130 20 215.667 60 257c27.333 28.667 63.666 43 108.999 43c7.33301 0 14.666 -0.333008 21.999 -1c22 -2 42.667 -21.333 62 -58c16 -31.333 26.333 -63 31 -95c10.667 -70 16 -190.333 16 -361
v-59c0 -22.667 -0.333008 -57.334 -1 -104.001c-0.666992 -26 -1 -51 -1 -75c0 -155.333 9.33301 -273 28 -353c29.333 -130 84 -272.667 164 -428z" />
    <glyph glyph-name="e" unicode="e" horiz-adv-x="1188" 
d="M350 525c42.667 0 77.667 14.999 105 44.999c25.333 27.333 40 61.333 44 102c0.666992 6.66699 1 13.334 1 20.001c0 32 -8 60.333 -24 85c-21.333 33.333 -52.666 52.666 -93.999 57.999c-5.33301 0.666992 -10.333 1 -15 1c-26.667 0 -47.334 -11 -62.001 -33
c-15.333 -22.667 -23 -54 -23 -94c0 -89.333 22.667 -150.666 68 -183.999zM1146 607.999c48.667 36 85.333 54.001 110 54.001s37 -18.667 37 -56c-16 -112.667 -79 -231 -189 -355c-107.333 -120 -216.333 -199.333 -327 -238c-40 -8.66699 -79.667 -13 -119 -13
c-195.333 0 -375.333 110.667 -540 332c-56 75.333 -84 178.666 -84 309.999c0 55.333 5 116 15 182c18 118.667 112.667 197 284 235c23.333 5.33301 46.333 8 69 8c62 0 120 -20 174 -60c61.333 -45.333 113.666 -113 156.999 -203c11.333 -40.667 17 -78.667 17 -114
c0 -104.667 -49 -189 -147 -253c-16 -10.667 -37.333 -20.667 -64 -30c-30 -10.667 -48 -17.334 -54 -20.001c-14 -7.33301 -21 -16.666 -21 -27.999v-2c1.33301 -14 13 -33 35 -57c46.667 -50.667 100.334 -76 161.001 -76c17.333 0 35.333 2 54 6
c78 17.333 156 72 234 164c104.667 122 170.667 193.333 198 214z" />
    <glyph glyph-name="f" unicode="f" horiz-adv-x="1016" 
d="M654 1146c218.667 -7.33301 364.666 -15.9932 437.999 -25.9932c62.667 -9.33301 94 -24 94 -44c0 -79.333 -41.333 -133 -124 -161c-46 -15.333 -114.333 -23 -205 -23c-16.667 0 -40 0.333008 -70 1h-52c-20.667 0.666992 -37.667 1 -51 1
c-12 0.666992 -23.333 1 -34 1c-54 0 -94 -4.33301 -120 -13c12.667 -173.333 25.667 -325 39 -455c4.66699 -47.333 12.667 -102.666 24 -165.999l16 -91c0.666992 -2.66699 1 -5.33398 1 -8.00098c0 -24.667 -16 -55.667 -48 -93c-38.667 -46 -76.667 -69 -114 -69
c-12 0 -23.333 3 -34 9c-48.667 4 -79 69.333 -91 196l-1 17c-6.66699 57.333 -13.334 142.666 -20.001 255.999c-8.66699 147.333 -18.334 256.666 -29.001 327.999c-3.33301 26 -16.333 44 -39 54c-16 6.66699 -46 11.667 -90 15c-27.333 2 -47.333 4.33301 -60 7
c-60.667 10.667 -101 37.667 -121 81c-6 13.333 -9 26.666 -9 39.999c0 17.333 5 35.333 15 54c4 21.333 61.667 42 173 62c55.333 10 88.333 17 99 21c0 211.333 15.667 369 47 473c54.667 182.667 160.667 274 318 274h15c116.667 0 220.334 -35.333 311.001 -106
c90 -70 158.667 -169.333 206 -298c17.333 -50.667 26 -93.334 26 -128.001c0 -30.667 -6.66699 -55.334 -20 -74.001c-22.667 -31.333 -63 -47 -121 -47c-45.333 0 -77 9.66699 -95 29c-11.333 12 -21.666 36.333 -30.999 73c-8 32 -16 58 -24 78
c-65.333 161.333 -126.333 242 -183 242c-33.333 0 -64.666 -30.667 -93.999 -92c-26 -54.667 -45.667 -120.667 -59 -198c-7.33301 -46.667 -11 -88.334 -11 -125.001c0 -12 0.333008 -23.667 1 -35c2.66699 -34.667 7.66699 -53.334 15 -56.001
c10.667 -0.666992 48 -2 112 -4z" />
    <glyph glyph-name="g" unicode="g" horiz-adv-x="1137" 
d="M369 683c-31.333 -46.667 -53.3301 -97.999 -65.9971 -153.999c-5.33301 -22.667 -8 -43.334 -8 -62.001c0 -38.667 12 -67.667 36 -87c2 -1.33301 4.66699 -2 8 -2c47.333 0 155.666 130.333 324.999 391l42 65c-4.66699 9.33301 -18.334 14 -41.001 14
c-42.667 0 -93.334 -15 -152.001 -45c-65.333 -33.333 -113.333 -73.333 -144 -120zM860.003 1033c95.333 -27.333 142.999 -66.668 142.999 -118.001v-9l-7 -5c-24.667 -16.667 -37 -64 -37 -142c0 -42.667 3.66699 -94.667 11 -156
c5.33301 -43.333 8.33301 -72.666 9 -87.999l1 -41c4.66699 -126.667 7 -240.667 7 -342c0 -154.667 -5.33301 -280 -16 -376c-11.333 -106 -36.333 -198.667 -75 -278c-59.333 -123.333 -144.333 -196.666 -255 -219.999c-24 -5.33301 -49 -8 -75 -8
c-100 0 -192.333 34 -277 102c-41.333 32.667 -76.333 73.667 -105 123c-14 25.333 -26.333 45.666 -37 60.999c-56.667 86 -85 157.333 -85 214c0 42 15.667 75.667 47 101c8.66699 4.66699 17 7 25 7c47.333 0 97 -44 149 -132c32.667 -54 72.667 -100.333 120 -139
c52.667 -42.667 101.334 -64 146.001 -64c62 0 107.667 43 137 129c28 84 42 203.667 42 359c0 54.667 -1.66699 113.667 -5 177c-5.33301 91.333 -8 166 -8 224c0 20.667 0.333008 39.334 1 56.001c-20.667 -24.667 -47.667 -65 -81 -121
c-78 -130 -156.667 -207.333 -236 -232c-21.333 -6 -43 -9 -65 -9c-68 0 -129 29 -183 87c-50 54 -80.667 116.333 -92 187c-5.33301 34 -8 67.333 -8 100c0 135.333 46.667 257.666 140 366.999c121.333 142 275.333 213 462 213h25c57.333 0 118 -9 182 -27z" />
    <glyph glyph-name="h" unicode="h" horiz-adv-x="1145" 
d="M1112 129v-8.00391c-4.66699 -74 -39.667 -111 -105 -111c-74 0 -147 32 -219 96c-66 76.667 -117.333 215.334 -154 416.001c-6 32 -9.33301 50.333 -10 55c-16 -30 -42 -91.667 -78 -185c-48.667 -126.667 -87 -215 -115 -265c-48 -84.667 -95.333 -127 -142 -127
c-48.667 0 -90 18.667 -124 56c-50.667 56 -76 126 -76 210c0 13.333 0.666992 27 2 41c8 88 12 221 12 399c0.666992 62.667 1 112.334 1 149.001c2.66699 193.333 13 373.333 31 540c34 308 86.667 462 158 462c12.667 0 25 -4.33301 37 -13c48 -22 72.667 -97 74 -225v-7
c0 -88 -12 -221.667 -36 -401c-8.66699 -66 -13.334 -107.667 -14.001 -125c-8 -134 -12 -256.333 -12 -367c0 -49.333 0.666992 -96 2 -140c38 38.667 74.667 110.667 110 216c24.667 76 47.334 130.667 68.001 164c34 56.667 80.667 97.334 140 122.001
c13.333 6 26.333 9 39 9c58 0 105 -56 141 -168c26 -81.333 49 -203.666 69 -366.999l6 -48c45.333 -178 108.333 -302.333 189 -373z" />
    <glyph glyph-name="i" unicode="i" horiz-adv-x="530" 
d="M208 1297c-44.667 2.66699 -78.334 15 -101.001 37c-18.667 17.333 -28 38 -28 62v3c1.33301 36.667 19.666 68.667 54.999 96c32 24 68.667 36 110 36c8 0 16 -0.333008 24 -1c42.667 0 76.334 -9.33301 101.001 -28c23.333 -17.333 35 -40.333 35 -69
c0 -34.667 -15.667 -65.667 -47 -93c-33.333 -30 -73.666 -45 -120.999 -45c-8.66699 0 -18 0.666992 -28 2zM275 1072c46 0 69.002 -19.667 69.002 -59c30 -166.667 45 -352 45 -556c0 -24 -0.333008 -48.667 -1 -74l-6 -301c0 -15.333 -20.333 -33 -61 -53
c-39.333 -19.333 -71 -29 -95 -29c-12.667 0 -22.667 3 -30 9c-54 44.667 -85.667 115 -95 211c-2 18.667 -3 40.667 -3 66c0 54.667 4 126 12 214c3.33301 36 5.66602 62.667 6.99902 80c4.66699 65.333 7 133 7 203c0 23.333 -0.333008 47 -1 71
c-0.666992 14.667 -2.33398 32 -5.00098 52c-0.666992 6 -1 12 -1 18c0 32 11.667 64.667 35 98s64.333 50 123 50z" />
    <glyph glyph-name="j" unicode="j" horiz-adv-x="664" 
d="M523 195c0 -362.667 -37.998 -610.665 -113.998 -743.998c-76 -134 -186.667 -201 -332 -201c-126.667 0 -240 50.333 -340 151c-69.333 70 -122.333 151.667 -159 245c-23.333 58 -35 106.333 -35 145c0 19.333 3 36.333 9 51c10 24 27.667 36 53 36h4
c28 -1.33301 61.333 -17.333 100 -48c25.333 -10.667 68.333 -54.334 129 -131.001c97.333 -122 171.666 -183 222.999 -183c33.333 0 66 18.667 98 56c71.333 83.333 107 324.666 107 723.999c0 101.333 -2.33301 213 -7 335l-1 43
c-0.666992 15.333 -2.33398 39 -5.00098 71c-2.66699 40 -4 73.667 -4 101c0 20 0.666992 36.667 2 50c0 36.667 13.333 70.667 40 102c24.667 28.667 59 43 103 43c55.333 0 83 -24 83 -72c24.667 -138.667 39 -278.667 43 -420c1.33301 -44 2.33301 -129 3 -255v-99z
M310.002 1150c-32.667 0 -59.333 8.99902 -80 26.999c-20 18 -31 42.333 -33 73c-0.666992 4 -1 8.33301 -1 13c0 37.333 13.333 72.333 40 105c30.667 40 70.334 63.333 119.001 70c16 3.33301 31 5 45 5c22 0 41.667 -4.33301 59 -13c28.667 -15.333 45 -40 49 -74
c0.666992 -4.66699 1 -9.66699 1 -15c0 -35.333 -12.333 -70.666 -37 -105.999c-30 -42.667 -68.333 -69 -115 -79c-16.667 -4 -32.334 -6 -47.001 -6z" />
    <glyph glyph-name="k" unicode="k" horiz-adv-x="1225" 
d="M457 659c2.66699 0 157.669 -59.335 465.002 -178.002c238 -92 364.333 -174 379 -246c-1.33301 0 -10.333 -19.667 -27 -59c-16.667 -40 -43 -60 -79 -60c-14.667 -4.66699 -30 -7 -46 -7c-32.667 0 -69 9 -109 27c-18 7.33301 -43.667 20 -77 38
c-34 18.667 -58.667 31.334 -74 38.001h1l-115 56c-64.667 32 -120 57.333 -166 76c-76.667 30.667 -134.667 46 -174 46c-34 0 -53.333 -12 -58 -36c-2.66699 -13.333 -4 -33 -4 -59c0 -18 0.666992 -38.667 2 -62c1.33301 -28 2 -52.333 2 -73
c0 -25.333 -1 -45.333 -3 -60c-8 -66 -40 -99 -96 -99c-24.667 0 -54.334 6.66699 -89.001 20c-49.333 18.667 -77.666 53 -84.999 103c-1.33301 8.66699 -2 18.334 -2 29.001c0 31.333 5.66699 72.333 17 123c17.333 79.333 26.666 131.333 27.999 156v9
c0 48.667 -15.333 84 -46 106c-43.333 30.667 -67.666 62.334 -72.999 95.001c-0.666992 4 -1 8.33301 -1 13c0 24 8.33301 51.667 25 83c64.667 124 98 204.667 100 242c0.666992 16 1 58.667 1 128v221c0 106.667 1.66699 195.667 5 267c14.667 300 64 450 148 450h8
c77.333 -9.33301 116 -144 116 -404c0 -162.667 -15.333 -375 -46 -637c30 10 74.333 26.333 133 49c67.333 26.667 115 45 143 55c105.333 37.333 193.666 56 264.999 56c8 0 15.667 -0.333008 23 -1c62 0 99.667 -11 113 -33c7.33301 -12 11 -48.667 11 -110
c-18.667 -40.667 -114.334 -86.334 -287.001 -137.001c-130 -29.333 -220.333 -54.333 -271 -75c-73.333 -29.333 -110 -59 -110 -89c0 -20 17.667 -40.333 53 -61z" />
    <glyph glyph-name="l" unicode="l" horiz-adv-x="563" 
d="M452 179c0 -64 -14.333 -113.001 -43 -147.001c-18 -21.333 -40.667 -32 -68 -32s-58.666 11.333 -93.999 34c-76 48 -122.333 236.333 -139 565c-2.66699 52.667 -5 87.334 -7 104.001c-9.33301 110 -14 222 -14 336v61c0 257.333 12.667 509.333 38 756l1 8l7 4
c47.333 29.333 94.666 44 141.999 44c25.333 0 46.333 -9 63 -27c40 -44 60 -153.667 60 -329c0 -90.667 -5.33301 -198.667 -16 -324c-3.33301 -40.667 -5.33301 -65.667 -6 -75c-2.66699 -50.667 -4 -101.667 -4 -153c0 -228.667 23 -468 69 -718
c7.33301 -39.333 11 -75 11 -107z" />
    <glyph glyph-name="m" unicode="m" horiz-adv-x="1588" 
d="M1040 1080c129.333 -20.667 236.333 -158.336 321 -413.003c21.333 -64 51 -169 89 -315c32.667 -126 58.334 -212.333 77.001 -259c0 -57.333 -24 -86 -72 -86c-14.667 0 -31.667 2.66699 -51 8c-74 20.667 -126.667 53 -158 97
c-34.667 48.667 -66.667 129.334 -96 242.001c-31.333 118 -61 199.667 -89 245c0 -0.666992 -14.333 -51.334 -43 -152.001c-22.667 -79.333 -44.334 -145 -65.001 -197c-64 -163.333 -135 -246.666 -213 -249.999h-2c-62 0 -110.333 105.333 -145 316
c-24 144.667 -36 218 -36 220c-13.333 67.333 -29 101 -47 101c0 -5.33301 -50 -146.666 -150 -423.999c-32 -90 -67 -149.333 -105 -178c-20.667 -15.333 -42.667 -23 -66 -23c-32.667 0 -68.334 14.667 -107.001 44h1c3.33301 0 5 32 5 96
c0 88.667 -3.33301 238.334 -10 449.001v3c0 28.667 8 58 24 88c17.333 32 26 62 26 90c0 36 24 55.667 72 59c58.667 3.33301 88.667 5.33301 90 6c17.333 16.667 41 43.667 71 81c29.333 36 51.666 61 66.999 75c28.667 25.333 59.334 38 92.001 38
c27.333 0 56.333 -9 87 -27c42.667 -25.333 81.334 -105 116.001 -239c43.333 -167.333 67 -255.333 71 -264c8.66699 18 41.334 125.667 98.001 323c39.333 136.667 88.666 218.667 147.999 246z" />
    <glyph glyph-name="n" unicode="n" horiz-adv-x="1160" 
d="M1043 277c18 -68 27 -122.999 27 -164.999c0 -34 -6 -59 -18 -75c-19.333 -24.667 -50.333 -37 -93 -37c-16.667 0 -35.334 2 -56.001 6c-56.667 10 -101.667 78.333 -135 205c-20 74.667 -42 203.667 -66 387c-16.667 125.333 -29.667 205.333 -39 240
c-100 -73.333 -170.333 -155.333 -211 -246c-33.333 -74.667 -50.666 -167.667 -51.999 -279c-0.666992 -48 -19 -102.667 -55 -164c-41.333 -70.667 -85.666 -106 -132.999 -106c-40.667 0 -77 28.333 -109 85c-19.333 34.667 -29 92 -29 172c0 72.667 8 164 24 274
c14 96 21.333 161.667 22 197c0.666992 70 19 121.333 55 154c25.333 24 57.333 36 96 36c15.333 0 32 -2 50 -6c43.333 -9.33301 66.666 -24.333 69.999 -45c22 23.333 50.667 62.333 86 117c32.667 50.667 59 87.667 79 111c15.333 17.333 40 36.666 74 57.999
c46 28 86.667 42 122 42c42.667 0 73.667 -20.333 93 -61c55.333 -127.333 102.666 -326.666 141.999 -597.999c14.667 -96.667 26.334 -169.334 35.001 -218.001c2.66699 -16 9.66699 -44 21 -84z" />
    <glyph glyph-name="o" unicode="o" horiz-adv-x="1012" 
d="M375 662c-22 -42 -32.999 -90.002 -32.999 -144.002v-14c1.33301 -60.667 14.666 -112 39.999 -154c23.333 -39.333 51.333 -59 84 -59c36.667 0 75.667 24.667 117 74c42.667 50.667 66.667 115.667 72 195c0.666992 10.667 1 21 1 31
c0 66.667 -15.333 124.334 -46 173.001c-18 28 -41.667 42 -71 42c-34.667 0 -70 -16.667 -106 -50c-34.667 -31.333 -54 -62.666 -58 -93.999zM566.001 1065c106 0 190.667 -40 254 -120s95 -187 95 -321c0 -158 -40.667 -298 -122 -420c-92 -136 -209.333 -204 -352 -204
c-28 0 -56.667 3 -86 9c-112.667 22 -194.334 93 -245.001 213c-34 81.333 -51 175 -51 281c0 26.667 1 54 3 82c10.667 146 60.334 262.333 149.001 349c88 87.333 200.333 131 337 131h18z" />
    <glyph glyph-name="p" unicode="p" horiz-adv-x="1067" 
d="M405 399l0.000976562 -14.002c69.333 4.66699 131.333 32 186 82c54 50.667 86.667 111.334 98 182.001c1.33301 6.66699 2 13 2 19c0 26.667 -9 50.334 -27 71.001c-28.667 34 -73.334 57 -134.001 69c-26 5.33301 -49.333 8 -70 8c-22.667 0 -41.667 -3.33301 -57 -10
c-10 -14.667 -15 -50 -15 -106c0 -42.667 3 -98 9 -166c5.33301 -62 8 -107 8 -135zM964.001 748.998c14.667 -34 22 -69 22 -105c0 -96 -52 -198 -156 -306c-102 -105.333 -213 -170 -333 -194c-46.667 -9.33301 -74 -19.666 -82 -30.999c-4.66699 -6 -7 -19 -7 -39
c0 -10.667 0.666992 -23.334 2 -38.001c3.33301 -38 5 -70 5 -96l1 -36c2 -227.333 11 -407.333 27 -540c0.666992 -8 1 -15.667 1 -23c0 -27.333 -7 -49 -21 -65c-15.333 -17.333 -37.333 -26 -66 -26c-39.333 0 -84 15 -134 45c-48.667 29.333 -81 97.333 -97 204
c-8 56.667 -12 140.667 -12 252v102c-8.66699 277.333 -13 501 -13 671c0 176 4.66699 294.667 14 356c6 84 19.333 139.667 40 167c14.667 18.667 38.667 28 72 28h29c134.667 0 269.667 -26.667 405 -80c159.333 -62 260.333 -144 303 -246z" />
    <glyph glyph-name="q" unicode="q" horiz-adv-x="1121" 
d="M767 831c-36.667 24.667 -74.668 37 -114.001 37c-94 0 -180.333 -57 -259 -171c-16 -23.333 -32.667 -66.666 -50 -129.999c-10.667 -38.667 -16 -70.667 -16 -96c0 -28.667 6.66699 -49 20 -61c3.33301 -2.66699 8.33301 -4 15 -4c45.333 0 115.333 47.333 210 142
c98.667 99.333 163.334 193.666 194.001 282.999zM1681 -137c0 -4.66699 -0.668945 -9.33398 -2.00195 -14.001c-12 -52.667 -116 -113.667 -312 -183c-86.667 -50 -157.167 -88 -211.5 -114s-117.166 -83.667 -188.499 -173c-38 -58 -63 -91 -75 -99
c-32.667 -20 -56 -30 -70 -30c-8.66699 0 -25.334 2.66699 -50.001 8c-55.333 6.66699 -91.333 27.334 -108 62.001c-10.667 21.333 -16 61.333 -16 120v20c-0.666992 38.667 -1 76.667 -1 114c0 300.667 14.333 565.667 43 795c-158 -150 -303 -225 -435 -225
c-55.333 0 -99.666 17.333 -132.999 52c-45.333 48 -68 125.333 -68 232c0 12.667 0.333008 25.667 1 39c0 155.333 67.333 298.333 202 429c134.667 131.333 281.334 197 440.001 197h17c76 -9.33301 132.333 -24 169 -44c36 -20 78.333 -60.333 127 -121
c16.667 -20.667 25 -51.334 25 -92.001c0 -45.333 -10 -103 -30 -173c-13.333 -47.333 -21.333 -80.666 -24 -99.999c-24.667 -178 -37 -387.333 -37 -628c0 -48 0.333008 -97.333 1 -148c216 90 415 135 597 135c40.667 0 80.667 -4.66699 120 -14
c12.667 -14.667 19 -29.667 19 -45z" />
    <glyph glyph-name="r" unicode="r" horiz-adv-x="1012" 
d="M966 1054c34.667 -26 52.001 -53.666 52.001 -82.999c0 -7.33301 -1.33301 -15 -4 -23c-137.333 -70 -252 -165.667 -344 -287c-101.333 -132.667 -171.333 -287.667 -210 -465c-28 -130 -68.333 -195 -121 -195c-22.667 0 -47.667 12.333 -75 37
c-67.333 61.333 -120 179.666 -158 354.999c-30.667 140 -46 276.333 -46 409c12.667 54 33 91 61 111c13.333 8.66699 27 13 41 13c15.333 0 30.666 -4.66699 45.999 -14c73.333 -45.333 115.333 -151 126 -317c27.333 100.667 90.333 205.667 189 315
c112.667 124.667 221.667 187 327 187h2c37.333 0 75.333 -14.333 114 -43z" />
    <glyph glyph-name="s" unicode="s" horiz-adv-x="1136" 
d="M336 732l8.00098 -7c31.333 -8.66699 190 -65.334 476 -170.001c104.667 -38.667 176.667 -82.334 216 -131.001c26 -32 39 -67.667 39 -107c0 -34.667 -10 -72 -30 -112c-22 -42.667 -77.333 -82 -166 -118c-82.667 -33.333 -177.334 -57.666 -284.001 -72.999
c-63.333 -9.33301 -121.333 -14 -174 -14c-37.333 0 -72.333 2.33301 -105 7c-87.333 12 -139.333 39.333 -156 82c-16.667 40.667 -25 77.667 -25 111c0 25.333 4.66699 48.666 14 69.999c15.333 36 39.333 54 72 54c17.333 0 36.666 -4.66699 57.999 -14
c98.667 -42 184.334 -63 257.001 -63c77.333 0 139.666 24 186.999 72c-12 0 -147 40 -405 120c-192.667 59.333 -289 138 -289 236c-2 14 -3 27.667 -3 41c0 97.333 56.667 181 170 251c106 65.333 212 98 318 98h18c38 0 73 -9.66699 105 -29
c30 -18 50.667 -40.333 62 -67c4.66699 -12 7 -23.333 7 -34c0 -15.333 -4.33301 -29.666 -13 -42.999c-17.333 -26 -49.666 -44.667 -96.999 -56c-115.333 -18.667 -173.333 -28 -174 -28c-62.667 -15.333 -94 -33.666 -94 -54.999c0 -9.33301 2.66699 -16.333 8 -21z" />
    <glyph glyph-name="t" unicode="t" horiz-adv-x="1012" 
d="M1144 1024c11.333 -21.333 17 -41.6689 17 -61.002c0 -15.333 -3.33301 -29.666 -10 -42.999c-26.667 -54.667 -95 -92 -205 -112c-68 -12 -171.667 -23.333 -311 -34l-40 -3c-0.666992 -4.66699 -1.66699 -18 -3 -40c-4.66699 -56 -7 -99.667 -7 -131
c0 -13.333 0.333008 -24.333 1 -33c7.33301 -72.667 12 -164 14 -274v-45c0 -152.667 -13 -233.334 -39 -242.001c-1.33301 -4 -18.666 -6 -51.999 -6c-80.667 0 -124.334 3.33301 -131.001 10c-56 54.667 -84 175 -84 361c0 56.667 2.66699 119 8 187
c0.666992 12.667 1 25 1 37c0 58 -11 99 -33 123c-19.333 21.333 -62 32 -128 32h-18c-10.667 -0.666992 -20.667 -1 -30 -1c-44.667 0 -78.667 4 -102 12c-46 16 -79 49.667 -99 101v6c0 24.667 8.33301 45.334 25 62.001c37.333 38.667 106.666 58 207.999 58
c22.667 0 42 -1 58 -3c12.667 -1.33301 24.334 -2 35.001 -2c25.333 0 49.666 4.66699 72.999 14c-8 88 -12 174.667 -12 260c0 66 2.33301 131 7 195c15.333 194.667 52.333 324.334 111 389.001c28.667 32 62.667 48 102 48h10c16 0 30 -6.33301 42 -19
c26.667 -28.667 40 -105.334 40 -230.001c0 -73.333 -4.66699 -163 -14 -269c-6 -69.333 -9.33301 -114.666 -10 -135.999c-0.666992 -24 -1 -55.333 -1 -94v-119c0 -10.667 20.333 -16 61 -16c8.66699 0 18.334 0.333008 29.001 1c62 3.33301 139 14 231 32
c4.66699 1.33301 15 4 31 8c56.667 14.667 100 22 130 22c48 0 79.667 -15 95 -45z" />
    <glyph glyph-name="u" unicode="u" horiz-adv-x="1130" 
d="M991 294c44 -123.333 66.0039 -213.332 66.0039 -269.999c0 -69.333 -29.667 -104 -89 -104c-40.667 0 -79.667 15.667 -117 47c-52 43.333 -92.667 139 -122 287c-8.66699 44 -15.334 75.333 -20.001 94c-48.667 -88 -115.667 -166.333 -201 -235
c-91.333 -73.333 -174 -110 -248 -110c-60 0 -106.667 25.667 -140 77c-35.333 55.333 -53 138 -53 248c0 114.667 21.667 249.667 65 405c54.667 199.333 122 300.333 202 303h1c29.333 0 52 -9.66699 68 -29c16 -20 24 -56.333 24 -109c0 -78 -17 -191.333 -51 -340
c-26 -114.667 -39 -189.667 -39 -225c0 -12.667 1.66699 -20.334 5 -23.001c3.33301 0 8 1.66699 14 5c91.333 56 159 137.667 203 245c25.333 62 47.666 153 66.999 273c12 75.333 23.333 126 34 152c17.333 41.333 43.666 62 78.999 62c69.333 0 118 -48 146 -144
c16.667 -56 28.667 -149 36 -279c4 -68.667 8 -114.667 12 -138c7.33301 -40.667 26.666 -104.667 57.999 -192z" />
    <glyph glyph-name="v" unicode="v" horiz-adv-x="1065" 
d="M1018 1103c9.33301 -16 14 -37.666 14 -64.999c0 -97.333 -59.333 -267.333 -178 -510c-27.333 -57.333 -43 -92 -47 -104l-8 -22c-38 -114 -73.333 -198.667 -106 -254c-58.667 -98.667 -125.334 -148 -200.001 -148c-6 0 -11.333 0.333008 -16 1
c-57.333 5.33301 -110.333 46.333 -159 123c-28 44 -61 114 -99 210c-11.333 30 -19.666 51 -24.999 63c-6.66699 16 -17.334 39.667 -32.001 71c-53.333 116 -88.666 203 -105.999 261c-16 52 -24 96.667 -24 134c0 33.333 6.66699 60.333 20 81
c21.333 33.333 58.666 50 111.999 50c15.333 0 32.333 -1.33301 51 -4c48.667 -28 118.667 -165.667 210 -413c37.333 -100.667 63.333 -166 78 -196c36 41.333 81.333 152.333 136 333c44 145.333 80 245.666 108 300.999c47.333 92 101 138 161 138
c12.667 0 25.334 -1.66699 38.001 -5c32.667 -2.66699 56.667 -17.667 72 -45z" />
    <glyph glyph-name="w" unicode="w" horiz-adv-x="1411" 
d="M1299 870c23.333 -88.667 35.001 -181.667 35.001 -279v-23c-2.66699 -142.667 -13.667 -252 -33 -328c-34.667 -135.333 -96.667 -203 -186 -203c-4.66699 0 -9.66699 0.333008 -15 1c-60 5.33301 -117.667 36.333 -173 93c-32.667 33.333 -77.667 93 -135 179
c-62.667 93.333 -110.667 154 -144 182l-6 -14c-142.667 -318.667 -260 -478 -352 -478c-22.667 0 -43.667 9 -63 27c-73.333 69.333 -120.666 183.333 -141.999 342c-8 59.333 -12 119.333 -12 180c0 62.667 4.33301 126 13 190c3.33301 42 28 101.333 74 178
c53.333 89.333 103.333 134 150 134c37.333 0 66.666 -28 87.999 -84c6 -16 9 -37 9 -63c0 -46 -9.66699 -107.667 -29 -185c-19.333 -75.333 -29 -135.333 -29 -180c0 -31.333 4.66699 -55.333 14 -72c26 16 53.333 64 82 144c16 45.333 29.333 76 40 92
c13.333 20 34.666 40 63.999 60c34 23.333 65 35 93 35c12.667 0 24 -2.33301 34 -7c74.667 -34 170 -123 286 -267l94 -113c7.33301 26 11 60.333 11 103c0 62 -7.66699 142.333 -23 241c-11.333 74.667 -17 135.667 -17 183c0 56.667 8 94.667 24 114
c16.667 18.667 40 28 70 28h11c75.333 -6.66699 131 -76.667 167 -210z" />
    <glyph glyph-name="x" unicode="x" horiz-adv-x="1175" 
d="M1028 1042c84 0 125.998 -23.335 125.998 -70.002c0 -42.667 -34.667 -104.667 -104 -186c-89.333 -104.667 -199.333 -208 -330 -310c14.667 -14 43.334 -37.333 86.001 -70c49.333 -38 85 -66.333 107 -85c82.667 -71.333 124 -130.666 124 -177.999v-6
c-8 -80.667 -44.333 -121 -109 -121c-14 0 -29 1.66699 -45 5c-71.333 15.333 -142.333 53.666 -213 114.999c-81.333 70 -141.666 105 -180.999 105h-4c-41.333 -2 -103 -45.667 -185 -131c-55.333 -60.667 -110.666 -103 -165.999 -127c-20 -8.66699 -37.333 -13 -52 -13
c-40 0 -60 33 -60 99v5c0 42.667 16 86.334 48 131.001c11.333 15.333 44.333 51.333 99 108c39.333 42 64 77.333 74 106c4.66699 13.333 7 27 7 41c0 27.333 -9.33301 55 -28 83c-53.333 78.667 -85 159 -95 241c-1.33301 12 -2 23.333 -2 34c0 86 45.333 129.333 136 130
c32 0 61.333 -18 88 -54c13.333 -17.333 34.333 -54.333 63 -111c24 -47.333 44.667 -78.333 62 -93c12.667 -10.667 26 -16 40 -16s28.667 5.33301 44 16c8.66699 6.66699 83 78.334 223 215.001c93.333 91.333 174.666 137 243.999 137h3z" />
    <glyph glyph-name="y" unicode="y" horiz-adv-x="1214" 
d="M1079 -113c10.667 -79.333 16 -146.666 16 -201.999c0 -46 -3.66699 -83.333 -11 -112c-27.333 -102.667 -105 -191.667 -233 -267c-62.667 -37.333 -129.334 -56 -200.001 -56c-172 0 -344 99.667 -516 299c-20.667 26.667 -35 58.667 -43 96
c-3.33301 16.667 -5 32 -5 46c0 20 3.33301 37 10 51c12.667 25.333 32.667 38 60 38c19.333 0 42 -6 68 -18c98.667 -46.667 194.667 -98.334 288 -155.001c65.333 -40 120.666 -60 165.999 -60c38 0 69 14.333 93 43c43.333 52.667 65 148.667 65 288
c0 146.667 -23.667 340.667 -71 582c-23.333 -29.333 -55.333 -75.666 -96 -138.999c-55.333 -86 -100.666 -146.333 -135.999 -181c-58.667 -58.667 -126 -94.334 -202 -107.001c-16.667 -2.66699 -32.667 -4 -48 -4c-59.333 0 -106.666 20.333 -141.999 61
c-49.333 56.667 -74 153.334 -74 290.001c0 68.667 6.33301 148 19 238c7.33301 54.667 29 134 65 238c54 156.667 110.667 235 170 235c36.667 0 70 -29.333 100 -88l2 -8c0 -70.667 -17 -173.334 -51 -308.001c-32.667 -130.667 -49 -233.667 -49 -309
c0 -9.33301 0.333008 -18.333 1 -27c57.333 20.667 114.333 77 171 169c33.333 54.667 78.666 145.667 135.999 273c54 120 94.667 201 122 243c44.667 69.333 89.667 104 135 104c8.66699 0 17.334 -1.33301 26.001 -4h5c14 0 28.667 -7.66699 44 -23
c62 -62.667 93 -313.667 93 -753v-136c0 -82 1 -136 3 -162c2.66699 -42 9 -100.333 19 -175z" />
    <glyph glyph-name="z" unicode="z" horiz-adv-x="1300" 
d="M521 271c22 -3.33301 85.668 -6.66699 191.001 -10c114.667 -3.33301 202.334 -8.33301 263.001 -15c155.333 -18.667 233 -57 233 -115c0 -21.333 -10.333 -45.333 -31 -72c-28.667 -38 -114.334 -57.667 -257.001 -59h-23c-39.333 -0 -87 1.33301 -143 4
c-70 3.33301 -111 5 -123 5c-49.333 0 -120.333 5 -213 15c-96.667 10.667 -167.334 16.334 -212.001 17.001c-130.667 2.66699 -196 33.667 -196 93c0 17.333 5.66699 37 17 59c38.667 76.667 112 147.334 220 212.001l137 77l141 80
c109.333 65.333 194 129.666 254 192.999c-12.667 -1.33301 -59.667 -7.33301 -141 -18c-80 -10.667 -146.333 -18 -199 -22c-36 -2.66699 -68.667 -4 -98 -4c-111.333 0 -176.333 18 -195 54c-15.333 29.333 -23 56.333 -23 81c0 36 15.667 67 47 93
c37.333 31.333 82 47 134 47c14 0 28.333 -1 43 -3c31.333 -4.66699 66.666 -7 105.999 -7c78.667 0 174 9.66699 286 29c180 30.667 306.667 46 380 46h13c92.667 -18 139 -54.333 139 -109c0 -70 -77.667 -170 -233 -300c-84 -70.667 -193 -151.334 -327 -242.001
c-127.333 -86 -190.666 -129 -189.999 -129z" />
    <glyph glyph-name="braceleft" unicode="{" horiz-adv-x="1126" 
d="M731 2137c-68 -29.333 -113.668 -76.3291 -137.001 -140.996c-12.667 -35.333 -19 -73 -19 -113c0 -78.667 24.333 -166.334 73 -263.001c14.667 -29.333 37 -68 67 -116c44.667 -70.667 68.334 -122.667 71.001 -156v-10c0 -48.667 -27 -104.334 -81 -167.001
c-33.333 -32 -73.666 -63.667 -120.999 -95c-35.333 -24 -53 -43 -53 -57c0 -16.667 38.667 -49 116 -97l7 -5l59 -36c48.667 -44.667 73 -98.334 73 -161.001c0 -18.667 -2 -37.667 -6 -57c-10.667 -52.667 -45.667 -133.667 -105 -243c-68 -126 -105.667 -219 -113 -279
c-1.33301 -12 -2 -24 -2 -36c0 -84 42 -154 126 -210c26.667 -18 81.334 -36 164.001 -54c73.333 -16 123.666 -31 150.999 -45c38.667 -20 59 -48 61 -84v-15c0 -36.667 -8.66699 -64 -26 -82c-22 -23.333 -61.667 -35 -119 -35c-21.333 0 -56.333 2.33301 -105 7l-32 3
c-188.667 17.333 -323 82.333 -403 195c-50 70.667 -75 155 -75 253c0 56.667 8.33301 117.667 25 183c10 38 29 91.333 57 160c35.333 85.333 53 148.333 53 189v4c-2 64.667 -40.667 120 -116 166l-23 14c-86 51.333 -144.667 93.666 -176 126.999
c-48 49.333 -72 106 -72 170c0 6 0.333008 12.333 1 19c0 55.333 22 103.333 66 144c26 24 73.333 54.333 142 91c50 26 85.333 46.333 106 61c4.66699 3.33301 7 21 7 53c0 46 -5 121.333 -15 226c-17.333 170.667 -26 288.667 -26 354c0 22.667 1 39 3 49
c41.333 204 143 342.333 305 415c75.333 26 146.666 39 213.999 39c146 0 220.333 -59.667 223 -179v-3l-1 -4c-20 -44.667 -59.667 -81 -119 -109c-34.667 -16.667 -91.667 -35 -171 -55z" />
    <glyph glyph-name="bar" unicode="|" horiz-adv-x="475" 
d="M392 2450c22 -32 33 -82.333 33 -151c0 -49.333 -6 -108.333 -18 -177c-5.33301 -30.667 -8.66602 -51.334 -9.99902 -62.001c-20 -136 -30 -319.333 -30 -550c0 -45.333 0.333008 -92 1 -140l1 -90c0.666992 -46 1 -89 1 -129v-59c0 -11.333 -0.333008 -62.333 -1 -153
c0 -163.333 -0.333008 -251.666 -1 -264.999l-1 -36c-0.666992 -20.667 -1 -40.667 -1 -60c0 -58 2.33301 -111.333 7 -160l6 -55c14.667 -137.333 22 -259.333 22 -366c0 -94 -5.66699 -176 -17 -246c-18.667 -120.667 -64.334 -181 -137.001 -181c-36 0 -69 12.667 -99 38
c-34 28 -57 67 -69 117c-18 78 -27 193.667 -27 347c0 106.667 4.33301 232 13 376h4c4.66699 97.333 7 217.333 7 360c0 94 -1 198 -3 312l-3 314c0 16 -2 54.333 -6 115c-9.33301 139.333 -14 263 -14 371c0 272.667 30 447.334 90 524c32 40.667 72 61 120 61h12
c56.667 -2 96.667 -20.333 120 -55z" />
    <glyph glyph-name="braceright" unicode="}" horiz-adv-x="1101" 
d="M1050 1123c0.666992 -5.33301 1.00293 -10.999 1.00293 -16.999c0 -54.667 -31.667 -117 -95 -187c-48.667 -54.667 -134.334 -129.667 -257.001 -225c-13.333 -10 -20 -30.667 -20 -62c0 -76 39.333 -213.667 118 -413c16 -39.333 25 -62.333 27 -69
c6 -38 9 -74.333 9 -109c0 -184 -84.667 -309.667 -254 -377c-127.333 -50.667 -248.333 -76 -363 -76c-89.333 0 -140 23.333 -152 70c-5.33301 18.667 -8 36 -8 52c0 21.333 5 39.666 15 54.999c32 48 103.667 74 215 78c126 5.33301 214 53 264 143
c10 16.667 15 39.667 15 69c0 65.333 -25 161.666 -75 288.999c-48.667 126 -98.667 234 -150 324c-10.667 26.667 -16 52 -16 76c0 31.333 9.33301 60.333 28 87c23.333 34.667 75 78.667 155 132c54.667 37.333 92.667 66 114 86l18 17l-24 8
c-142 46.667 -227 104.334 -255 173.001c-7.33301 18 -11 38 -11 60c0 24.667 4.66699 51.667 14 81c10.667 34 35.667 88.667 75 164c76.667 146.667 115 260.334 115 341.001c0 91.333 -32.667 162.333 -98 212.999c-38.667 30 -109 62.333 -211 97
c-64 21.333 -111.667 39.666 -143 55c-22.667 10.667 -36.334 18.667 -41.001 24c-6.66699 7.33301 -10 20 -10 38c0 82 12.333 132.667 37 152c21.333 16 77 24 167 24h34c179.333 0 315.666 -71.667 408.999 -215c76 -116.667 114.333 -261.667 115 -435
c0 -156.667 -29.333 -301 -88 -433l-6 -13l14 -6c200.667 -88 306.667 -178.333 318 -271z" />
    <glyph glyph-name="asciitilde" unicode="~" horiz-adv-x="1134" 
d="M1012 986c48 -42 72.001 -84.3311 72.001 -126.998v-8c-4 -54 -44.333 -126.667 -121 -218c-56 -66.667 -118 -100 -186 -100c-58 0 -135.667 35 -233 105c-56.667 41.333 -95 63.333 -115 66c-11.333 2 -21.333 3 -30 3c-14 0 -24.333 -3.33301 -31 -10
s-17 -23.334 -31 -50.001c-24.667 -48.667 -49.334 -89.334 -74.001 -122.001c-20.667 -28 -49 -42 -85 -42c-48 0 -84.667 20.333 -110 61c-12 19.333 -18 39 -18 59c0 17.333 4.33301 35.333 13 54c2.66699 5.33301 6.66699 14.333 12 27c36 79.333 71 139 105 179
c60.667 72 134.667 113.333 222 124c8 0.666992 16 1 24 1c62 0 140.333 -25.667 235 -77c56 -31.333 93 -47 111 -47c14.667 0 27.334 12 38.001 36c38.667 80.667 82.667 121 132 121c21.333 0 40.666 -8 57.999 -24z" />
    <glyph glyph-name="exclamdown" unicode="&#xa1;" horiz-adv-x="609" 
d="M341 1802c-58.667 0 -106.333 16.332 -143 48.999c-32 28.667 -48 63.334 -48 104.001c0 40 15.667 73.333 47 100c34 28.667 79.333 43 136 43c19.333 0 39.333 -1.33301 60 -4c34.667 -6.66699 61.667 -25.334 81 -56c14.667 -24 22 -50.667 22 -80v-11
c-2 -35.333 -14.333 -66 -37 -92c-28 -31.333 -67.333 -49 -118 -53zM156.001 -58.001c-21.333 26 -32.001 66.6699 -32.001 122.003c0 45.333 6.66699 100 20 164c5.33301 28 9.33301 47.667 12 59c19.333 121.333 29 250.666 29 387.999v67c-0.666992 42 -1 79 -1 111
s0.333008 59.333 1 82c0.666992 16 1 31.333 1 46c0 15.333 -0.333008 30 -1 44c0 62 -2.33301 114 -7 156l-5 51c-9.33301 72 -14 133 -14 183v13c0 30.667 2 57 6 79c18 98.667 59.667 148 125 148c34 0 65.667 -10 95 -30c32 -22.667 54 -54.334 66 -95.001
c14.667 -52.667 22.334 -124.667 23.001 -216c0 -48 -2 -101.667 -6 -161l-5 11c-4 -68 -6 -147.667 -6 -239c0.666992 -50.667 1.66699 -105 3 -163l3 -100c0 -16.667 2.33301 -53.334 7 -110.001c11.333 -134.667 17 -233 17 -295c0 -13.333 -0.333008 -25.333 -1 -36
c-6 -121.333 -36.333 -212 -91 -272c-31.333 -32.667 -69.333 -49 -114 -49h-11c-55.333 2 -93.333 16 -114 42z" />
    <glyph glyph-name="cent" unicode="&#xa2;" horiz-adv-x="1610" 
d="M666 585c0 98.667 -2.66699 147.999 -8 147.999c-122.667 0 -229.667 -78.667 -321 -236c7.33301 -21.333 26.333 -41.333 57 -60c39.333 -21.333 90 -32 152 -32c34.667 0 73.667 3.33301 117 10c1.33301 28.667 2.33301 85.334 3 170.001zM991 389.999
c28.667 0 115.831 1.66797 261.498 5.00098s237.167 5 274.5 5c111.333 0 169 -19.667 173 -59c0 -94.667 -167 -180.667 -501 -258l-189 -45c-18.667 -16 -28 -65 -28 -147c0 -23.333 0.666992 -49 2 -77v-18c0 -76.667 -28.333 -116.667 -85 -120h-9
c-53.333 0 -99.333 28.333 -138 85c-12 18 -18 50 -18 96c0 19.333 1 40.666 3 63.999c2 20 3 36.667 3 50c0 9.33301 -0.333008 17 -1 23c-4 20.667 -14 31.667 -30 33c-200 16 -371 66.667 -513 152c-137.333 82.667 -206 179.334 -206 290.001c0 24.667 3.66699 51 11 79
c40 144.667 133 255.667 279 333c34.667 18 167.667 67 399 147c-1.33301 21.333 -2 42.666 -2 63.999c0 250.667 65 378.667 195 384c59.333 0 90 -56.667 92 -170v-15c0 -34.667 -2.33301 -76 -7 -124c-2.66699 -31.333 -4 -55 -4 -71c0 -20 2 -30 6 -30v1
c8.66699 0.666992 20.334 1 35.001 1c47.333 0 91 -7.66699 131 -23c48.667 -19.333 81.334 -45 98.001 -77c6 -12 9 -23.667 9 -35c0 -19.333 -9.33301 -37.333 -28 -54c-33.333 -28.667 -91.333 -46 -174 -52c-56 -4 -88 -23.667 -96 -59c2 0 3 -50.333 3 -151
c0 -1.33301 -1.33301 -24 -4 -68c-0.666992 -17.333 -1 -33.333 -1 -48c0 -14 0.333008 -27 1 -39c4.66699 -47.333 24 -71.333 58 -72z" />
    <glyph glyph-name="sterling" unicode="&#xa3;" horiz-adv-x="1793" 
d="M651 763c2 -54.667 4.66992 -111.671 8.00293 -171.004c6 -108.667 10.333 -191 13 -247c58 8 125.333 15.667 202 23l325.5 32c106.333 10.667 214.166 16 323.499 16c42 0 83.667 -2 125 -6c108.667 -23.333 178.667 -56.666 210 -99.999c12.667 -18 19 -38.333 19 -61
v-9c-0.666992 -7.33301 -2 -15 -4 -23c-12 -49.333 -54 -76 -126 -80c-40.667 -10 -104.334 -15.333 -191.001 -16c-27.333 -0.666992 -45.666 -1.33398 -54.999 -2.00098c-136.667 -10 -296 -25.667 -478 -47c-70.667 -18.667 -125.334 -32.667 -164.001 -42
c-12 -2.66699 -35 -9.33398 -69 -20.001c-100 -30.667 -176.333 -46 -229 -46c-7.33301 0 -14 0.333008 -20 1c-99.333 8.66699 -159 71.334 -179 188.001v2c0 48 -4.66699 126.333 -14 235c-9.33301 98.667 -14.333 168.667 -15 210v133c-2.66699 -0.666992 -5 -1 -7 -1
l-69 -9c-11.333 -0.666992 -29 -4 -53 -10c-25.333 -5.33301 -48.333 -9 -69 -11l-18 -1h-13c-28.667 0 -52.334 4 -71.001 12c-38.667 16.667 -60.667 63.334 -66 140.001c-0.666992 4 -1 8 -1 12v6c0 8 1 16.333 3 25c9.33301 49.333 35.666 79.666 78.999 90.999
c72 18.667 125 29.667 159 33c12 0.666992 27.333 1.33398 46 2.00098c18 0.666992 39 1.33398 63 2.00098h22c2 54.667 4.33301 109.334 7 164.001c0.666992 8 1 20.333 1 37c0 17.333 -0.333008 38.666 -1 63.999v28c0 68.667 3.66699 117.667 11 147
c35.333 282 194.333 450.333 477 505c44.667 6 93 9 145 9c54 0 112.333 -3.33301 175 -10c92.667 -10 139 -52.333 139 -127c0 -22.667 -4 -48 -12 -76c-21.333 -71.333 -58.333 -107 -111 -107c-38.667 0 -86 19.333 -142 58c-13.333 1.33301 -26.666 2 -39.999 2
c-202.667 0 -312 -134 -328 -402c-6.66699 -78 -10.667 -167 -12 -267l223 21l110 8c18 2 38 5 60 9l33 4c12 0.666992 23.333 1.33398 34 2.00098h19c12 0 24.333 -0.333008 37 -1c22.667 -1.33301 41.334 -9.66602 56.001 -24.999c15.333 -18 24.666 -38.667 27.999 -62
v-14c0 -24 -6.33301 -51.333 -19 -82c-12.667 -70.667 -60.667 -110 -144 -118c-18.667 -2 -39.667 -3.33301 -63 -4c-12.667 -1.33301 -27 -2.33301 -43 -3c-17.333 -0.666992 -37 -1 -59 -1l-45 -2c-44 -1.33301 -78 -3 -102 -5l-42 -5z" />
    <glyph glyph-name="yen" unicode="&#xa5;" horiz-adv-x="1269" 
d="M948 682c109.333 -13.333 183.673 -33.9961 223.006 -61.9961c32 -22.667 48 -56 48 -100v-13c-2.66699 -37.333 -22.334 -56 -59.001 -56h-9c-76 -5.33301 -159.333 -8 -250 -8c-38 0 -77.333 0.333008 -118 1c0 -10 -2 -44.333 -6 -103v-17
c0 -14 0.333008 -33.333 1 -58c0.666992 -20 1 -38.333 1 -55c0 -46.667 -2.66699 -82.334 -8 -107.001c-13.333 -58 -42.666 -91 -87.999 -99c-20.667 -3.33301 -38.334 -5 -53.001 -5h-7c-35.333 2.66699 -60.666 18.334 -75.999 47.001c-9.33301 18 -18 53.667 -26 107
l-2 9c-13.333 88 -23 186.333 -29 295c-6.66699 0.666992 -25.334 2 -56.001 4c-22.667 1.33301 -41 2.66602 -55 3.99902c-6 0.666992 -15 1 -27 1s-27 -0.333008 -45 -1h-34c-54 0 -94.667 2.66699 -122 8c-56 11.333 -88 36 -96 74c-3.33301 16 -5 30.333 -5 43v6
c2 28.667 16.667 49 44 61c16.667 7.33301 50.667 14 102 20l8 1c84 10 178 17 282 21c1.33301 38.667 4 82.334 8 131.001c-58 3.33301 -96.333 5.66602 -115 6.99902c-8.66699 0.666992 -22 1 -40 1h-66c-54 0 -94.667 2.66699 -122 8c-56 11.333 -88 35.666 -96 72.999
c-3.33301 16.667 -5 31.334 -5 44.001v6c2 28.667 16.667 49 44 61c16.667 7.33301 50.667 14 102 20l8 1c66 8 138.333 14 217 18c-26.667 47.333 -58.334 120 -95.001 218c-12.667 34 -21.667 57.333 -27 70l-35 80c-58 131.333 -96.333 229.666 -115 294.999
c-17.333 59.333 -26 110 -26 152c0 37.333 7 67.666 21 90.999c23.333 38 63.666 57 120.999 57c17.333 0 36 -1.66699 56 -5c53.333 -31.333 129.333 -186.333 228 -465c40 -114 68 -188 84 -222c38.667 46.667 87.667 172 147 376c48 164 87.333 277 118 339
c50.667 104.667 108.667 157 174 157c13.333 0 27 -2 41 -6c35.333 -3.33301 61.333 -20.333 78 -51c10 -18 15 -42.333 15 -73c0 -110 -64 -302 -192 -576c-30 -64.667 -47.333 -104 -52 -118l-8 -25c-43.333 -134.667 -84.333 -234.334 -123 -299.001
c56.667 -4.66699 92 -7.66699 106 -9l11 -2c109.333 -12.667 183.666 -33 222.999 -61c32 -22.667 48 -56 48 -100v-13c-2.66699 -37.333 -22.334 -56 -59.001 -56h-9c-72 -5.33301 -152 -8 -240 -8c-36.667 0 -74.667 0.333008 -114 1c0 -37.333 -0.666992 -78 -2 -122
c59.333 -4 106.666 -8 141.999 -12z" />
    <glyph glyph-name="section" unicode="&#xa7;" horiz-adv-x="1362" 
d="M940 590l14 -7c31.333 30.667 59.333 64.667 84 102c8 12 12 21.667 12 29c0 2.66699 -0.333008 5 -1 7c-6.66699 23.333 -75.667 61.333 -207 114c-98 39.333 -176 72.666 -234 99.999l-113 57c-85.333 -12 -133.333 -28.333 -144 -49v-9c0 -44 37.333 -88.333 112 -133
c48 -28.667 136.333 -68.667 265 -120c98 -39.333 168.667 -69.666 212 -90.999zM957 1119c140 -68.667 234.998 -132.337 284.998 -191.004c46.667 -54.667 70 -119.667 70 -195c0 -20.667 -1.66699 -42 -5 -64c-12.667 -78.667 -49 -159 -109 -241
c64 -61.333 96 -135.666 96 -222.999c0 -20.667 -1.66699 -42 -5 -64c-16.667 -109.333 -75 -216 -175 -320c-107.333 -110.667 -228.333 -180.667 -363 -210c-34 -7.33301 -68.667 -11 -104 -11c-130 0 -245 43.333 -345 130c-108 93.333 -162.667 211 -164 353v10
c0 114 22.333 193.333 67 238c23.333 24 50 36 80 36c24 0 45.333 -8 64 -24c18.667 -15.333 29.667 -34.666 33 -57.999c1.33301 -5.33301 2 -12.666 2 -21.999c0 -12.667 -1.33301 -29.334 -4 -50.001c-2 -19.333 -3 -37.333 -3 -54c0 -58 13.333 -102.667 40 -134
c62.667 -71.333 139 -107 229 -107c142.667 0 267.667 79.333 375 238c8 12 12 22.333 12 31c0 2 -0.333008 4 -1 6c-7.33301 23.333 -76.333 61 -207 113c-99.333 40 -177.333 73.667 -234 101c-185.333 90 -311 163.333 -377 220
c-107.333 91.333 -162 202.666 -164 333.999v5c0 99.333 41.333 181 124 245c-69.333 78.667 -105 171.667 -107 279v4c0 112.667 53.667 203.334 161 272.001c90.667 57.333 203.334 91 338.001 101c10 0.666992 20.333 1 31 1c53.333 0 110 -9.66699 170 -29
c79.333 -26 139.333 -62.333 180 -109c34.667 -38.667 52 -81 52 -127c0 -8 -0.666992 -16.333 -2 -25c-11.333 -93.333 -39.666 -140 -84.999 -140c-16.667 0 -44 9.66699 -82 29c-38.667 20.667 -71 35 -97 43c-36 11.333 -79 17 -129 17c-58.667 0 -112.667 -7 -162 -21
c-43.333 -11.333 -68 -23 -74 -35v-9c0 -43.333 37.667 -87.666 113 -132.999c47.333 -28 135.333 -67.667 264 -119c97.333 -39.333 168 -69.666 212 -90.999z" />
    <glyph glyph-name="dieresis" unicode="&#xa8;" horiz-adv-x="852" 
d="M305 1763c-30.667 -28.667 -65.332 -42.998 -103.999 -42.998h-10c-43.333 3.33301 -78.333 22.666 -105 57.999c-24 32.667 -36 72.667 -36 120c0 7.33301 0.333008 14.666 1 21.999c1.33301 18.667 4 37.667 8 57c10 37.333 32 65.333 66 84
c23.333 13.333 48.666 20 75.999 20c8 0 15.667 -0.333008 23 -1c38.667 -4.66699 71 -21 97 -49c29.333 -32 44.333 -73.333 45 -124c-4 -60.667 -24.333 -108.667 -61 -144zM741.002 1763c-30.667 -28.667 -65.332 -42.998 -103.999 -42.998h-10
c-43.333 3.33301 -78.333 22.666 -105 57.999c-24 32.667 -36 72.667 -36 120c0 7.33301 0.333008 14.666 1 21.999c1.33301 18.667 4 37.667 8 57c10 37.333 32 65.333 66 84c23.333 13.333 48.666 20 75.999 20c8 0 15.667 -0.333008 23 -1c38.667 -4.66699 71 -21 97 -49
c29.333 -32 44.333 -73.333 45 -124c-4 -60.667 -24.333 -108.667 -61 -144z" />
    <glyph glyph-name="copyright" unicode="&#xa9;" horiz-adv-x="2371" 
d="M1585 936c47.333 0 78 -23.334 92 -70.001c6 -19.333 9 -38.666 9 -57.999c0 -36 -11.333 -71 -34 -105c-42 -60.667 -119.667 -112 -233 -154c-88 -32.667 -169.667 -52 -245 -58c-15.333 -1.33301 -30.333 -2 -45 -2c-96.667 0 -185.334 21.333 -266.001 64
s-142.334 101 -185.001 175c-38.667 66.667 -58 137.334 -58 212.001c0 52.667 9.66699 107.334 29 164.001c32 94 86 181.667 162 263c76.667 81.333 161.334 141.333 254.001 180c69.333 28.667 129.666 43 180.999 43c16.667 0 32.667 -1.66699 48 -5
c69.333 -14.667 108 -51.334 116 -110.001c0.666992 -6.66699 1 -13.334 1 -20.001c0 -46.667 -25.667 -83.667 -77 -111c-26 -13.333 -63.667 -26 -113 -38c-50 -12.667 -86 -26 -108 -40c-80.667 -52.667 -141 -121.667 -181 -207c-16.667 -35.333 -25 -69.333 -25 -102
c0 -36 10.333 -70.333 31 -103c36.667 -58.667 94.334 -88 173.001 -88c74.667 0 170.334 30 287.001 90l25 15c70.667 43.333 124.667 65 162 65zM1805 600.999c40.667 100 61 219.668 61 359.001c0 36.667 -1.33301 74.334 -4 113.001
c-11.333 164.667 -41.333 303 -90 415c-44 101.333 -113 179.666 -207 234.999c-94 56 -204.667 84 -332 84c-154.667 0 -297.667 -39 -429 -117c-159.333 -94.667 -260.333 -271 -303 -529c-12.667 -78.667 -19 -153.334 -19 -224.001c0 -144 26.667 -272 80 -384
c94.667 -196.667 272 -295 532 -295c157.333 0 320.333 34.667 489 104c99.333 40 173.333 119.667 222 239zM1937 1709c97.333 -148 160.997 -322.666 190.997 -523.999c12 -78.667 18 -155.667 18 -231c0 -117.333 -14.667 -231 -44 -341
c-51.333 -192 -158.666 -342.333 -321.999 -451c-163.333 -108 -363.666 -162 -600.999 -162c-187.333 0 -366.666 34.333 -537.999 103c-207.333 83.333 -348.333 238 -423 464c-37.333 113.333 -56 234.666 -56 363.999c0 88.667 8.66699 181 26 277
c44.667 252.667 165.667 461 363 625s425.333 246 684 246c55.333 0 111 -4.33301 167 -13c222 -32.667 400.333 -151.667 535 -357z" />
    <glyph glyph-name="guillemotleft" unicode="&#xab;" horiz-adv-x="1275" 
d="M50 526c22.667 32.667 146.332 150.666 370.999 353.999c48 44 95.333 66 142 66c16 0 31.667 -2.66699 47 -8c26 -8.66699 42.333 -24 49 -46c2 -6.66699 3 -13.667 3 -21c0 -19.333 -7 -41 -21 -65c-24 -39.333 -60 -82 -108 -128c-54 -51.333 -85.333 -82.333 -94 -93
c-14 -18.667 -21 -36.667 -21 -54c0 -11.333 3 -22.333 9 -33c17.333 -31.333 63 -66.333 137 -105c46 -24 81 -56.333 105 -97c18.667 -30 28 -58.333 28 -85c0 -6.66699 -0.666992 -13 -2 -19c-6 -32.667 -24.667 -52.667 -56 -60
c-7.33301 -1.33301 -14.666 -2 -21.999 -2c-32.667 0 -72 12.333 -118 37c-202 110.667 -351.667 230.334 -449 359.001zM1061 678.999c-54 -52 -85.335 -83.335 -94.002 -94.002c-14 -18.667 -21 -36.667 -21 -54c0 -11.333 3 -22.333 9 -33
c17.333 -31.333 63 -66.333 137 -105c46 -24 81 -56.333 105 -97c18.667 -30 28 -58.333 28 -85c0 -6.66699 -0.666992 -13 -2 -19c-5.33301 -32.667 -24 -52.667 -56 -60c-6.66699 -1.33301 -14 -2 -22 -2c-32.667 0 -72 12.333 -118 37
c-202 110.667 -351.667 230.334 -449 359.001c22.667 32.667 146.334 150.667 371.001 354c48 44 95.333 66 142 66c16 0 31.667 -2.66699 47 -8c26.667 -8.66699 43.334 -24 50.001 -46c2 -6 3 -12.667 3 -20c0 -20 -7.33301 -42 -22 -66
c-24 -39.333 -60 -81.666 -108 -126.999z" />
    <glyph glyph-name="registered" unicode="&#xae;" horiz-adv-x="1506" 
d="M841 1810c32 14.667 50.998 35.667 56.998 63c0.666992 3.33301 1 6.33301 1 9c0 10 -3.33301 19 -10 27c-31.333 38 -93.333 58 -186 60l2 -116c0.666992 -22 1.66699 -48 3 -78c12.667 2.66699 32.334 6.5 59.001 11.5s51.334 12.833 74.001 23.5zM875.998 1649
c174.667 -95.333 261.998 -173.999 261.998 -235.999v-2c-1.33301 -34.667 -23 -61.667 -65 -81c-10 -4.66699 -21 -7 -33 -7c-38 0 -94 33.667 -168 101c-18 16 -30 26 -36 30c-39.333 30 -77 54.333 -113 73c0.666992 -18 1 -34.333 1 -49c0 -30.667 -1.33301 -56 -4 -76
c-3.33301 -24.667 -14.333 -47 -33 -67c-20.667 -21.333 -43.667 -32 -69 -32c-28 0 -50.667 13.667 -68 41c-10.667 17.333 -16 43.666 -16 78.999c0 11.333 0.666992 24 2 38c0.666992 13.333 1.33398 22.333 2.00098 27v36c0 25.333 -1.66699 44.333 -5 57
c0 2 -3.66699 7.66699 -11 17c-16.667 21.333 -25 41 -25 59c0 6.66699 1 12.667 3 18l5 17c14.667 45.333 22.667 92.333 24 141c0.666992 4 1.33398 14 2.00098 30c2 26 3 48.333 3 67c0 42 -5 67 -15 75c-21.333 16 -32 35 -32 57v2
c0.666992 24.667 14.334 46.334 41.001 65c23.333 17.333 49 26 77 26c14 0 28.667 -2.33301 44 -7c20 -6 36.667 -9.33301 50 -10l22 -2c90.667 -5.33301 159 -14.666 205 -28c80.667 -23.333 130 -63 148 -119c9.33301 -28 14 -55 14 -81c0 -36.667 -9 -72 -27 -106
c-34.667 -64 -96.334 -115 -185.001 -153zM1215 1436c28.667 70 43.001 153.998 43.001 251.998c0 26.667 -1 54.334 -3 83.001c-8 116.667 -29.333 214.667 -64 294c-30.667 72 -79.334 127.667 -146.001 167s-145 59 -235 59c-110.667 0 -212 -27.667 -304 -83
c-113.333 -66.667 -185.333 -191.667 -216 -375c-9.33301 -55.333 -14 -108 -14 -158c0 -102.667 19.333 -193.667 58 -273c67.333 -139.333 193 -209 377 -209c111.333 0 227 24.333 347 73c70 28.667 122.333 85.334 157 170.001zM1309 2222
c68.667 -104.667 113.668 -228.67 135.001 -372.003c8 -55.333 12 -109.333 12 -162c0 -84 -10.333 -165.333 -31 -244c-36 -136 -112 -242.333 -228 -319c-115.333 -76.667 -257.333 -115 -426 -115c-132.667 0 -260 24.333 -382 73
c-146.667 58.667 -246.334 168.334 -299.001 329.001c-26.667 80.667 -40 167.334 -40 260.001c0 62 6 127 18 195c32 178.667 118 326 258 442c140 116.667 301.333 175 484 175c40 0 79.667 -3 119 -9c157.333 -23.333 284 -107.666 380 -252.999z" />
    <glyph glyph-name="macron" unicode="&#xaf;" horiz-adv-x="1036" 
d="M764 1889c87.333 -12.667 147.666 -34.667 180.999 -66c27.333 -26 41 -62.667 41 -110c0 -7.33301 -0.333008 -14.666 -1 -21.999c-2 -26 -10 -46 -24 -60c-13.333 -13.333 -30 -20 -50 -20h-6c-57.333 -6.66699 -125.666 -10 -204.999 -10
c-106.667 0 -233.667 6 -381 18c-4 0.666992 -10 1 -18 1s-18 -0.333008 -30 -1s-23.333 -1 -34 -1c-43.333 0 -76.333 3.33301 -99 10c-50 14 -78.333 44.667 -85 92c-2 14 -3 26.667 -3 38c0 5.33301 0.333008 10.666 1 15.999c2 28 11 50 27 66
c16.667 16.667 52 29.667 106 39l7 1c109.333 18.667 216 28 320 28c82.667 0 164 -6 244 -18z" />
    <glyph glyph-name="degree" unicode="&#xb0;" horiz-adv-x="997" 
d="M378 1678c-11.333 -24 -16.998 -48.667 -16.998 -74c0 -47.333 20 -97 60 -149c53.333 -68.667 100.666 -103 141.999 -103c20 0 37.333 10.333 52 31c22 32 33 69.333 33 112c0 41.333 -10 88 -30 140c-30.667 79.333 -74 119 -130 119
c-48.667 0 -85.334 -25.333 -110.001 -76zM336.002 1080c-101.333 60 -179.667 169.335 -235 328.002c-34 97.333 -51 188.666 -51 273.999c0 53.333 6.66699 104.666 20 153.999c22.667 82.667 64 144.667 124 186c52 35.333 114.333 53 187 53c12 0 24 -0.333008 36 -1
c175.333 -6.66699 311.333 -71.667 408 -195c81.333 -104 122 -229.667 122 -377v-18c-2 -128.667 -35 -238 -99 -328c-70 -100 -162 -150 -276 -150c-75.333 0 -154 24.667 -236 74z" />
    <glyph glyph-name="plusminus" unicode="&#xb1;" horiz-adv-x="1303" 
d="M884 431c47.333 -8 94.001 -27.999 140.001 -59.999c50.667 -36 77 -73.333 79 -112v-4c0 -50.667 -43 -86.667 -129 -108c-46.667 -11.333 -101.334 -17 -164.001 -17c-55.333 0 -140.333 6.66699 -255 20c-106 12 -183.667 18 -233 18h-34
c-69.333 0 -123.333 10.667 -162 32c-39.333 21.333 -59 50.666 -59 87.999c0 44 26 82.333 78 115c49.333 31.333 108 47 176 47c8.66699 0 17.667 -0.333008 27 -1c23.333 0 59 0.333008 107 1h109c128 0 234.667 -6.33301 320 -19zM1204 1226
c32.667 -34 48.999 -81.333 48.999 -142v-11c-1.33301 -60.667 -59.666 -91 -174.999 -91h-9c-12.667 0 -36.667 0.666992 -72 2c-37.333 1.33301 -63.666 2 -78.999 2c-52.667 0 -88.667 -5.33301 -108 -16c1.33301 -18 5 -47.667 11 -89c8 -56 12 -103 12 -141
c0 -31.333 -2.66699 -56.666 -8 -75.999c-20.667 -70.667 -77.667 -120.667 -171 -150c-13.333 -4 -26 -6 -38 -6c-26 0 -48 9.33301 -66 28c-34 35.333 -51 119.666 -51 252.999c0 30 1 62.333 3 97c1.33301 26.667 2 45.667 2 57c-30.667 -2 -62.334 -3 -95.001 -3
c-172.667 0 -283.334 33 -332.001 99c-18 24.667 -27 52.334 -27 83.001c0 18 3 37.333 9 58c18.667 60 82 90 190 90c38.667 0 96 -4.66699 172 -14c30.667 -4.66699 52.334 -7.33398 65.001 -8.00098c-0.666992 18 -1 28.333 -1 31c-1.33301 27.333 -2 53.666 -2 78.999
c0 145.333 23.333 242.333 70 291c36.667 38 86.334 57 149.001 57h7c25.333 0 46.333 -9.33301 63 -28c26 -29.333 39 -91 39 -185c0 -50 -3.66699 -109.333 -11 -178c-2.66699 -24 -4.33398 -40.333 -5.00098 -49c3.33301 0.666992 9 1.66699 17 3
c8 0.666992 14.333 1.33398 19 2.00098c78 11.333 137.333 17 178 17c90 0 155 -20.667 195 -62z" />
    <glyph glyph-name="acute" unicode="&#xb4;" horiz-adv-x="827" 
d="M754 2015c15.333 -20 23.002 -41.334 23.002 -64.001c0 -19.333 -6 -39.666 -18 -60.999c-14.667 -25.333 -43.334 -58 -86.001 -98c-18.667 -17.333 -31 -29.666 -37 -36.999c-166.667 -196 -304 -337 -412 -423c-12 -14.667 -28.333 -22 -49 -22
s-40.667 8.33301 -60 25c-43.333 36.667 -65 76 -65 118v4c1.33301 45.333 28.666 103.666 81.999 174.999l5 7c108 145.333 243.333 276 406 392l5 4c44.667 31.333 79 47 103 47c22.667 0 44.667 -9 66 -27c12 -10 24.333 -23.333 37 -40z" />
    <glyph glyph-name="paragraph" unicode="&#xb6;" horiz-adv-x="1191" 
d="M1125 1412c3.33301 -76 5.99902 -139.665 7.99902 -190.998c5.33301 -147.333 8 -280.666 8 -399.999c0 -36 -0.333008 -70.667 -1 -104c-5.33301 -454.667 -50.666 -690.334 -135.999 -707.001c-10 -2 -19.667 -3 -29 -3c-77.333 0 -116.333 71 -117 213
c0 50.667 5 115.667 15 195l20 150c24 304.667 36 584.667 36 840c0 154 -4.33301 299 -13 435l-182 -34c24 -187.333 36 -444.333 36 -771v-77c-2.66699 -369.333 -19 -647.333 -49 -834c-8 -49.333 -33.333 -86 -76 -110c-16.667 -9.33301 -32.667 -14 -48 -14
c-31.333 0 -61 18 -89 54c20 110.667 31 457.667 33 1041v2c0 60 -36.333 105.333 -109 136c-114 47.333 -176 75.333 -186 84c-78.667 64.667 -134.667 138.667 -168 222c-18.667 46.667 -28 92.334 -28 137.001c0 46 10 91 30 135
c55.333 121.333 177.333 197.666 366 228.999c292.667 48 459.667 72 501 72h3c98.667 -4.66699 156 -85 172 -241c2.66699 -32 4 -69.667 4 -113c0 -24.667 -0.333008 -51.334 -1 -80.001c-2.66699 -80.667 -4 -129.334 -4 -146.001v-7c0 -14 1.33301 -51.667 4 -113z" />
    <glyph glyph-name="cedilla" unicode="&#xb8;" horiz-adv-x="671" 
d="M621 -426c0 -18 -2.66504 -36.333 -7.99805 -55c-20 -66 -70.333 -123 -151 -171c-76 -45.333 -152 -68 -228 -68c-101.333 0 -161.666 40.667 -180.999 122c-2 8 -3 15.333 -3 22c0 14 4 26.667 12 38c19.333 26 72.666 41.333 159.999 46c36 2 57.667 4.66699 65 8
c56 20 84 43 84 69c0 2.66699 -0.333008 5 -1 7c-2.66699 16 -15.334 27.667 -38.001 35c-12.667 4.66699 -25.667 7 -39 7c-10.667 0 -21.667 -1.66699 -33 -5c-10 -2.66699 -19.667 -4 -29 -4c-23.333 0 -46 8 -68 24c-30.667 22.667 -51.334 55.334 -62.001 98.001
c-2.66699 9.33301 -4 18.333 -4 27c0 24.667 10.333 45.334 31 62.001c16 14 46.333 29 91 45c15.333 6 25 15.333 29 28c2 5.33301 3 13 3 23c0 9.33301 -1 21 -3 35c-1.33301 11.333 -2 21.666 -2 30.999c0 31.333 6 53.333 18 66c15.333 17.333 40.666 26 75.999 26
c5.33301 0 11.333 -0.333008 18 -1c43.333 -2.66699 78 -24.334 104 -65.001c20.667 -33.333 33.334 -75.333 38.001 -126c1.33301 -12 2 -23.667 2 -35c0 -32 -4.33301 -61.667 -13 -89c88 -62 132 -128.667 132 -200z" />
    <glyph glyph-name="guillemotright" unicode="&#xbb;" horiz-adv-x="1274" 
d="M1224 516c-97.333 -128.667 -247 -248.33 -449 -358.997c-46 -24.667 -85 -37 -117 -37c-8 0 -15.333 0.666992 -22 2c-32 7.33301 -50.667 27.333 -56 60c-1.33301 6.66699 -2 13 -2 19c0 27.333 9 55.666 27 84.999c24.667 40.667 59.667 73 105 97
c74 38.667 120 73.667 138 105c5.33301 10 8 20.667 8 32c0 17.333 -7 35.666 -21 54.999c-8 10.667 -39.333 42 -94 94c-48 45.333 -83.667 87.666 -107 126.999c-14.667 24 -22 45.667 -22 65c0 7.33301 1 14.333 3 21c6.66699 22 23 37.333 49 46
c15.333 5.33301 31 8 47 8c46.667 0 94 -22 142 -66c225.333 -203.333 349 -321.333 371 -354zM696 516.004c-97.333 -128.667 -247.001 -248.331 -449.001 -358.998c-46 -24.667 -85 -37 -117 -37c-8 0 -15.333 0.666992 -22 2c-32 7.33301 -50.667 27.333 -56 60
c-1.33301 6.66699 -2 13 -2 19c0 27.333 9 55.666 27 84.999c24.667 40.667 59.667 73 105 97c74 38.667 120 73.667 138 105c5.33301 10 8 20.667 8 32c0 17.333 -7 35.666 -21 54.999c-8 10.667 -39.333 41.667 -94 93c-48 46 -84 88.667 -108 128
c-14 24 -21 45.667 -21 65c0 7.33301 1 14.333 3 21c6.66699 22 23 37.333 49 46c15.333 5.33301 31 8 47 8c46.667 0 94 -22 142 -66c224.667 -203.333 348.334 -321.333 371.001 -354z" />
    <glyph glyph-name="onequarter" unicode="&#xbc;" horiz-adv-x="2276" 
d="M1678 775c0.666992 17.333 1 35.333 1 54c0 31.333 -1 65.666 -3 102.999l-54 -41c-78.667 -57.333 -133 -102.666 -163 -135.999c95.333 6 168.333 12.667 219 20zM2210 788c10.667 -11.333 16 -25.3311 16 -41.998c0 -3.33301 -0.333008 -7 -1 -11
c-2 -20 -18.667 -50 -50 -90c-36.667 -46.667 -73.334 -74 -110.001 -82l-76 -17c-12.667 -2.66699 -43.667 -10 -93 -22c-5.33301 -8 -8 -25.333 -8 -52c0 -48 8.66699 -126.333 26 -235l6 -42c1.33301 -12.667 2 -24.667 2 -36c0 -45.333 -10.667 -79.666 -32 -102.999
c-17.333 -19.333 -38.333 -29 -63 -29c-35.333 0 -67.666 17.667 -96.999 53c-32 37.333 -50 84.666 -54 141.999c-2 24 -3 60.333 -3 109c0 72.667 -3 126 -9 160c-33.333 0 -115.333 -9.33301 -246 -28c-46 -6.66699 -74 -10.334 -84 -11.001l-28 -3
c-48 -5.33301 -85.333 -8 -112 -8c-80 0 -133.667 18.333 -161 55c-12.667 17.333 -19 37.666 -19 60.999c0 14.667 2.66699 31 8 49c20 68 92 150.333 216 247l67 55l321 280c6 5.33301 19.333 20 40 44c96 109.333 168.333 164 217 164c46.667 0 77.667 -32 93 -96l1 -5
l-1 -5c-1.33301 -25.333 -10 -60.333 -26 -105c-14 -40 -21.667 -70.333 -23 -91l-4 -51c-6.66699 -77.333 -10 -141 -10 -191c0 -21.333 0.666992 -40.333 2 -57c21.333 2 51.333 5.33301 90 10c56 6.66699 95.333 10 118 10c42 0 71 -9 87 -27zM123 1725
c-23.333 0 -41.666 7.66895 -54.999 23.002c-12 15.333 -18 36 -18 62c0 12.667 1.33301 26.334 4 41.001c10.667 59.333 57.667 125.666 141 198.999c55.333 48.667 90.666 87.667 105.999 117c10 19.333 23.667 52.333 41 99c26 70 49.333 119 70 147
c34 47.333 77.667 71 131 71c18.667 0 38 -3 58 -9l23 -6l1 -23c1.33301 -16.667 2 -35.334 2 -56c0 -81.333 -9.66699 -190.666 -29 -328c-6.66699 -44.667 -10.667 -73.667 -12 -87c-26 -199.333 -40.333 -349.333 -43 -450c0 -11.333 1 -33.666 3 -66.999
c2.66699 -38.667 4 -72.667 4 -102c0 -28.667 -1.33301 -52.334 -4 -71.001c-10 -64.667 -35.333 -107.334 -76 -128.001c-22.667 -12 -44 -18 -64 -18c-26 0 -47.667 9.66699 -65 29c-31.333 33.333 -47 107 -47 221c0 33.333 1.33301 70.333 4 111c2 22 3 37 3 45v27
c2 103.333 4.33301 181.666 7 234.999c-4.66699 -3.33301 -12.667 -8 -24 -14c-76 -45.333 -129.667 -68 -161 -68zM1207 1238l-109.998 -142.997c-2.66699 -2.66699 -32.334 -40.334 -89.001 -113.001l-159 -202l-22 -27c-50.667 -61.333 -93 -119 -127 -173l-27 -44
c-130 -210.667 -248 -365.334 -354 -464.001c-52 -48 -99 -72 -141 -72c-23.333 0 -44.333 7.33301 -63 22c-26.667 20.667 -44.334 49 -53.001 85c-3.33301 13.333 -5 27 -5 41c0 27.333 6.33301 55 19 83c52.667 116.667 190 300.667 412 552l4 -2
c102 118 235 286.667 399 506l184 241c10 13.333 30.333 42.666 61 87.999c262 390.667 455.667 600.334 581 629.001c13.333 3.33301 26.333 5 39 5c35.333 0 67 -13 95 -39c40 -33.333 60 -67.333 60 -102v-7c-3.33301 -62.667 -62.333 -145.334 -177 -248.001l-44 -40
c-115.333 -110 -259.333 -279.333 -432 -508z" />
    <glyph glyph-name="onehalf" unicode="&#xbd;" horiz-adv-x="2186" 
d="M123 1728c-23.333 0 -41.666 7.99805 -54.999 23.998c-12 14.667 -18 35.334 -18 62.001c0 12.667 1.33301 26.334 4 41.001c10.667 58.667 57.667 124.667 141 198c55.333 48.667 90.666 88 105.999 118c10 19.333 23.667 52 41 98c26 70.667 49.333 120 70 148
c34 46.667 77.667 70 131 70c18.667 0 38 -2.66699 58 -8l23 -6l1 -23c1.33301 -16.667 2 -35.334 2 -56c0 -81.333 -9.66699 -190.666 -29 -327.999c-6.66699 -44.667 -10.667 -74 -12 -88c-26 -199.333 -40.333 -349.333 -43 -450c0 -10.667 1 -32.667 3 -66
c2.66699 -38.667 4 -72.667 4 -102c0 -28.667 -1.33301 -52.334 -4 -71.001c-10 -64.667 -35.333 -107.667 -76 -129c-22.667 -12 -44 -18 -64 -18c-26 0 -47.667 9.66699 -65 29c-31.333 33.333 -47 107 -47 221c0 33.333 1.33301 70.333 4 111c2 22 3 37 3 45v27
c2 104 4.33301 182.333 7 235l-24 -14c-76 -45.333 -129.667 -68 -161 -68zM2116 96.998c13.333 -16.667 19.999 -39.6709 19.999 -69.0039c0 -17.333 -2.33301 -36.666 -7 -57.999c-15.333 -67.333 -102.666 -107.333 -261.999 -120l-15 -1
c-66.667 -6 -137.334 -9 -212.001 -9c-136 0 -277 9.33301 -423 28c-104.667 14 -165.667 56.667 -183 128c-2.66699 11.333 -4 22.333 -4 33c0 56.667 35.333 109.667 106 159c248 172.667 436.333 348.334 565 527.001c20.667 29.333 31 55 31 77c0 10 -2 19 -6 27
c-9.33301 18.667 -28.666 30.334 -57.999 35.001c-8.66699 1.33301 -17.334 2 -26.001 2c-21.333 0 -44.333 -4 -69 -12c-72 -24 -136.667 -88.333 -194 -193c-22.667 -40 -61.334 -60 -116.001 -60c-39.333 0 -69 12.333 -89 37c-14 16 -21 34.667 -21 56c0 8 1 16 3 24
c24 122 93 223.333 207 304c105.333 74 217.333 111 336 111h14c110.667 0 194.334 -41.333 251.001 -124c36.667 -54 55 -112.333 55 -175c0 -48 -10.667 -98.333 -32 -151c-44 -111.333 -151.667 -237.666 -323 -378.999c-81.333 -66.667 -139.666 -119 -174.999 -157
c108 -11.333 198.667 -19 272 -23h9c18.667 0 52 3.66699 100 11s87.333 11 118 11c20 0 36.333 -1.66699 49 -5c35.333 -0.666992 61.666 -12 79 -34zM1207 1241.99l-109.999 -142.999l-89 -114l-159 -201l-22 -27c-50.667 -62 -93 -119.667 -127 -173l-27 -45
c-130 -210.667 -248 -365 -354 -463c-52 -48 -99 -72 -141 -72c-23.333 0 -44.333 7.33301 -63 22c-26.667 20.667 -44.334 48.667 -53.001 84c-3.33301 13.333 -5 27 -5 41c0 27.333 6.33301 55 19 83c52.667 117.333 190 301.666 412 552.999l4 -2
c102 118 235 286.667 399 506l184 241c10 12.667 30.333 42 61 88c262 390 455.667 599.667 581 629c13.333 2.66699 26 4 38 4c36 0 68 -12.667 96 -38c40 -33.333 60 -67.666 60 -103v-7c-3.33301 -62.667 -62.333 -145 -177 -247l-44 -41
c-115.333 -109.333 -259.333 -278.333 -432 -507z" />
    <glyph glyph-name="threequarters" unicode="&#xbe;" horiz-adv-x="2575" 
d="M684 1251c-110 0 -222.332 23.332 -336.999 69.999c-136 55.333 -227 128 -273 218c-16 32 -24 60.333 -24 85c0 8 1 16 3 24c6.66699 25.333 26 52.333 58 81c13.333 12 29.666 18 48.999 18c35.333 0 86 -27.333 152 -82l13 -11c129.333 -101.333 260 -152 392 -152
c33.333 0 63 4.66699 89 14c40.667 13.333 61 29 61 47c-0.666992 21.333 -21.667 48 -63 80c-39.333 31.333 -78 52.333 -116 63l-7 2c-162 46.667 -247.333 99.334 -256 158.001c-0.666992 4 -1 8.33301 -1 13c0 40 29 79 87 117c24 16 58.667 35 104 57
c76 36 128 73.333 156 112c0.666992 1.33301 2 14.666 4 40c1.33301 17.333 2.66602 30.333 3.99902 39h-3c-28 0 -87 -19.333 -177 -58c-96 -41.333 -161.667 -62 -197 -62c-28.667 0 -51.334 8.33301 -68.001 25c-16.667 17.333 -25 42.666 -25 75.999v7
c0 82 74.667 149.333 224 202c112 39.333 208.667 59 290 59c98.667 0 168.334 -26.667 209.001 -80c24.667 -32.667 37 -73 37 -121c0 -31.333 -5.33301 -66 -16 -104c-19.333 -68 -71.666 -140.333 -156.999 -217c-17.333 -15.333 -30.333 -27.333 -39 -36
c88 -43.333 159.667 -100.333 215 -171c52 -66 78 -131.333 78 -196c0 -18 -2 -35.667 -6 -53c-20 -89.333 -78.667 -157.666 -176 -204.999c-80 -39.333 -173 -59 -279 -59h-5zM1980 720.999c0.666992 17.333 1 35.333 1 54c0 31.333 -1 65.666 -3 102.999l-55 -40
c-78 -58 -132 -103.667 -162 -137c95.333 6.66699 168.333 13.334 219 20.001zM2510 733.999c10 -11.333 15.001 -24.9961 15.001 -40.9961c0 -3.33301 -0.333008 -7 -1 -11c-2 -20.667 -18.667 -50.334 -50 -89.001c-36.667 -46.667 -73.334 -74.334 -110.001 -83.001
l-75 -16c-12 -3.33301 -42.667 -10.666 -92 -21.999c-5.33301 -8.66699 -8 -26.334 -8 -53.001c0 -48.667 8.33301 -126.334 25 -233.001l6 -42c1.33301 -12.667 2 -24.667 2 -36c0 -44.667 -10.667 -79 -32 -103c-16.667 -18.667 -37.667 -28 -63 -28
c-34.667 0 -66.667 17.333 -96 52c-31.333 38 -49.333 85.333 -54 142c-1.33301 24 -2 60.333 -2 109c-0.666992 72 -3.66699 125 -9 159c-34 0 -116 -9.33301 -246 -28c-45.333 -6.66699 -73 -10.334 -83 -11.001l-28 -3c-48 -4.66699 -85 -7 -111 -7
c-80 0 -133.333 18 -160 54c-13.333 17.333 -20 38 -20 62c0 14.667 2.66699 30.667 8 48c20 67.333 91.667 149.333 215 246c30.667 24 53 42 67 54l320 279c5.33301 5.33301 18.333 20 39 44c96 108.667 168 163 216 163c46.667 0 77.667 -32 93 -96l1 -5l-1 -5
c-1.33301 -24.667 -10 -59.334 -26 -104.001c-14 -39.333 -21.667 -69.666 -23 -90.999l-4 -50c-6 -80 -9 -145.333 -9 -196c0 -19.333 0.333008 -36.333 1 -51c21.333 2 51.333 5.33301 90 10c56 6.66699 95 10 117 10c42 0 71.333 -9.33301 88 -28zM1511 1183
l-110 -143.001c-2.66699 -2.66699 -32.334 -40 -89.001 -112l-158 -201l-22 -27c-50.667 -61.333 -92.667 -118.666 -126 -171.999l-28 -44c-129.333 -210 -246.666 -364 -351.999 -462c-52 -48 -98.667 -72 -140 -72c-23.333 0 -44.333 7.33301 -63 22
c-26.667 20.667 -44.334 48.667 -53.001 84c-3.33301 13.333 -5 27 -5 41c0 27.333 6.33301 55 19 83c52.667 116.667 189.334 300 410.001 550l4 -2c102 117.333 234.667 285 398 503l183 240c10 13.333 30 42.666 60 87.999c261.333 388.667 454.333 597.334 579 626.001
c13.333 3.33301 26.333 5 39 5c36 0 67.667 -12.667 95 -38c40 -34 60 -68.667 60 -104v-5c-3.33301 -62.667 -62 -145 -176 -247l-45 -40c-114.667 -109.333 -258 -278 -430 -506z" />
    <glyph glyph-name="questiondown" unicode="&#xbf;" horiz-adv-x="1274" 
d="M848 -77c-157.333 0 -325.334 33.334 -504.001 100.001c-218.667 80.667 -328.667 184 -330 310v9c0 6 0.333008 12.333 1 19c26.667 235.333 231.334 391.666 614.001 468.999c8 2 26.667 4.66699 56 8c37.333 3.33301 64 6.33301 80 9
c70.667 8.66699 111.667 20.667 123 36c-33.333 248 -50.333 392 -51 432c0 65.333 4.33301 109.666 13 132.999c12.667 34 44 64 94 90c32.667 16.667 61 25 85 25h2c34.667 0 60 -18.333 76 -55c2.66699 -6 14.667 -70.333 36 -193
c6.66699 -41.333 26.667 -119.333 60 -234c28 -98 44 -176.333 48 -235c0.666992 -8 1 -16.333 1 -25v-5c0 -106 -41.333 -175.333 -124 -208c-14.667 -6 -114.667 -21.333 -300 -46c-337.333 -46.667 -506 -98.334 -506 -155.001c0.666992 -20 21.667 -40.667 63 -62
c164.667 -84.667 333 -135.667 505 -153h9c32 0.666992 87 17.334 165 50.001c42.667 17.333 78.667 26.333 108 27c20.667 0 38.334 -4.33301 53.001 -13c36 -23.333 54.333 -56.333 55 -99v-6c-0.666992 -40 -15.334 -76.333 -44.001 -109
c-44.667 -52 -101 -86.333 -169 -103c-39.333 -9.33301 -96.333 -14.666 -171 -15.999h-48zM916.999 1786l-3.00098 0.00292969c-46.667 0 -81 15.667 -103 47c-16 21.333 -24 47.666 -24 78.999v8c0 7.33301 0.666992 14.666 2 21.999c4.66699 42 19.334 80 44.001 114
c27.333 35.333 60.333 56.666 99 64c12 1.33301 23 2 33 2h3c36.667 0 64.667 -11 84 -33c18.667 -21.333 28 -48 28 -80v-9c0 -6 -0.333008 -12.333 -1 -19c-6 -44.667 -23.333 -85.334 -52 -122.001c-30 -40 -66.667 -64.333 -110 -73z" />
    <glyph glyph-name="Agrave" unicode="&#xc0;" 
d="M1097 1071c-4.66699 20 -11.333 53.332 -20 99.999c-38.667 200 -74.667 327.333 -108 382c-35.333 -65.333 -90.333 -202.666 -165 -411.999l-50 -137c31.333 4.66699 81 15 149 31c88 20.667 152.667 32.667 194 36zM1768 297.999
c53.333 -60 88.667 -107.668 106 -143.001c16.667 -32.667 25 -64.334 25 -95.001c0 -24.667 -5.66699 -49 -17 -73c-18 -38 -44.333 -57 -79 -57c-60.667 0 -140.334 64 -239.001 192c-60.667 79.333 -104.334 144.333 -131.001 195c-21.333 42 -52 107 -92 195
c-42.667 94 -75.667 163.333 -99 208c-20.667 40 -70.667 60 -150 60c-14 0 -36.667 -1 -68 -3c-18 -0.666992 -32 -1.33398 -42 -2.00098c-78.667 -2 -195 -17.667 -349 -47c-173.333 -287.333 -280.666 -457 -321.999 -509c-69.333 -88 -129.333 -132 -180 -132
c-13.333 0 -26 2.33301 -38 7c-18.667 8 -31.667 21.667 -39 41c-2.66699 7.33301 -4 16 -4 26c0 58.667 41.667 167 125 325c54.667 104 82 165.333 82 184v1c-0.666992 6 -9 9 -25 9c-10 0 -27 -1.66699 -51 -5s-41.667 -5 -53 -5c-25.333 0 -42.666 7.33301 -51.999 22
c-4.66699 7.33301 -7 16 -7 26s2.66699 21.667 8 35c22.667 52.667 50.334 92 83.001 118c27.333 22 70.666 42.333 129.999 61c102.667 32.667 212.667 198.667 330 498c5.33301 12 14.666 38 27.999 78c46.667 136 88 235.667 124 299c64 112.667 133.333 169.667 208 171
c150 0 238.667 -89.333 266 -268c33.333 -211.333 76.333 -398 129 -560c2.66699 -7.33301 6.66699 -20.666 12 -39.999c10 -36 19.667 -58.667 29 -68c8 -8 20.667 -12 38 -12c5.33301 0 11 0.333008 17 1c7.33301 0.666992 20 2.66699 38 6c35.333 6.66699 62 10 80 10
c44 0 78.667 -14.667 104 -44c13.333 -15.333 20 -31.666 20 -48.999c0 -8 -1.33301 -16 -4 -24c-18 -51.333 -86 -95.666 -204 -132.999l11 -27c76.667 -198 145.334 -336.667 206.001 -416c8 -11.333 23.333 -30 46 -56zM1230 2298c53.333 -70.667 80.667 -129 82 -175v-2
c0 -42.667 -21.667 -82.667 -65 -120c-20 -16.667 -40 -25 -60 -25c-20.667 0 -38.334 8.66699 -53.001 26c-106 84 -242.333 224 -409 420c-6 6.66699 -17.333 18 -34 34c-44 40.667 -73.333 74 -88 100c-12 21.333 -18 41.666 -18 61c0 22.667 7.66699 44 23 64
c12.667 16.667 25 30 37 40c20.667 18 42.334 27 65.001 27c24 0 58.333 -15.667 103 -47l6 -4c162.667 -116 298 -246.667 406 -392z" />
    <glyph glyph-name="Aacute" unicode="&#xc1;" 
d="M1097 1071c-4.66699 20 -11.333 53.332 -20 99.999c-38.667 200 -74.667 327.333 -108 382c-35.333 -65.333 -90.333 -202.666 -165 -411.999l-50 -137c31.333 4.66699 81 15 149 31c88 20.667 152.667 32.667 194 36zM1768 297.999
c53.333 -60 88.667 -107.668 106 -143.001c16.667 -32.667 25 -64.334 25 -95.001c0 -24.667 -5.66699 -49 -17 -73c-18 -38 -44.333 -57 -79 -57c-60.667 0 -140.334 64 -239.001 192c-60.667 79.333 -104.334 144.333 -131.001 195c-21.333 42 -52 107 -92 195
c-42.667 94 -75.667 163.333 -99 208c-20.667 40 -70.667 60 -150 60c-14 0 -36.667 -1 -68 -3c-18 -0.666992 -32 -1.33398 -42 -2.00098c-78.667 -2 -195 -17.667 -349 -47c-173.333 -287.333 -280.666 -457 -321.999 -509c-69.333 -88 -129.333 -132 -180 -132
c-13.333 0 -26 2.33301 -38 7c-18.667 8 -31.667 21.667 -39 41c-2.66699 7.33301 -4 16 -4 26c0 58.667 41.667 167 125 325c54.667 104 82 165.333 82 184v1c-0.666992 6 -9 9 -25 9c-10 0 -27 -1.66699 -51 -5s-41.667 -5 -53 -5c-25.333 0 -42.666 7.33301 -51.999 22
c-4.66699 7.33301 -7 16 -7 26s2.66699 21.667 8 35c22.667 52.667 50.334 92 83.001 118c27.333 22 70.666 42.333 129.999 61c102.667 32.667 212.667 198.667 330 498c5.33301 12 14.666 38 27.999 78c46.667 136 88 235.667 124 299c64 112.667 133.333 169.667 208 171
c150 0 238.667 -89.333 266 -268c33.333 -211.333 76.333 -398 129 -560c2.66699 -7.33301 6.66699 -20.666 12 -39.999c10 -36 19.667 -58.667 29 -68c8 -8 20.667 -12 38 -12c5.33301 0 11 0.333008 17 1c7.33301 0.666992 20 2.66699 38 6c35.333 6.66699 62 10 80 10
c44 0 78.667 -14.667 104 -44c13.333 -15.333 20 -31.666 20 -48.999c0 -8 -1.33301 -16 -4 -24c-18 -51.333 -86 -95.666 -204 -132.999l11 -27c76.667 -198 145.334 -336.667 206.001 -416c8 -11.333 23.333 -30 46 -56zM1252 2681c15.333 -20 23.002 -41.333 23.002 -64
c0 -19.333 -6 -39.666 -18 -61c-14.667 -25.333 -43.334 -58 -86.001 -98c-18.667 -17.333 -31 -29.666 -37 -37c-166.667 -196 -304 -337 -412 -423c-12 -14.667 -28.333 -22 -49 -22s-40.667 8.33301 -60 25c-43.333 36.667 -65 76 -65 118v4
c1.33301 45.333 28.666 103.666 81.999 175l5 7c108 145.333 243.333 276 406 392l5 4c44.667 31.333 79 47 103 47c22.667 0 44.667 -9 66 -27c12 -10 24.333 -23.333 37 -40z" />
    <glyph glyph-name="Acircumflex" unicode="&#xc2;" 
d="M1097 1071c-4.66699 20 -11.333 53.332 -20 99.999c-38.667 200 -74.667 327.333 -108 382c-35.333 -65.333 -90.333 -202.666 -165 -411.999l-50 -137c31.333 4.66699 81 15 149 31c88 20.667 152.667 32.667 194 36zM1768 297.999
c53.333 -60 88.667 -107.668 106 -143.001c16.667 -32.667 25 -64.334 25 -95.001c0 -24.667 -5.66699 -49 -17 -73c-18 -38 -44.333 -57 -79 -57c-60.667 0 -140.334 64 -239.001 192c-60.667 79.333 -104.334 144.333 -131.001 195c-21.333 42 -52 107 -92 195
c-42.667 94 -75.667 163.333 -99 208c-20.667 40 -70.667 60 -150 60c-14 0 -36.667 -1 -68 -3c-18 -0.666992 -32 -1.33398 -42 -2.00098c-78.667 -2 -195 -17.667 -349 -47c-173.333 -287.333 -280.666 -457 -321.999 -509c-69.333 -88 -129.333 -132 -180 -132
c-13.333 0 -26 2.33301 -38 7c-18.667 8 -31.667 21.667 -39 41c-2.66699 7.33301 -4 16 -4 26c0 58.667 41.667 167 125 325c54.667 104 82 165.333 82 184v1c-0.666992 6 -9 9 -25 9c-10 0 -27 -1.66699 -51 -5s-41.667 -5 -53 -5c-25.333 0 -42.666 7.33301 -51.999 22
c-4.66699 7.33301 -7 16 -7 26s2.66699 21.667 8 35c22.667 52.667 50.334 92 83.001 118c27.333 22 70.666 42.333 129.999 61c102.667 32.667 212.667 198.667 330 498c5.33301 12 14.666 38 27.999 78c46.667 136 88 235.667 124 299c64 112.667 133.333 169.667 208 171
c150 0 238.667 -89.333 266 -268c33.333 -211.333 76.333 -398 129 -560c2.66699 -7.33301 6.66699 -20.666 12 -39.999c10 -36 19.667 -58.667 29 -68c8 -8 20.667 -12 38 -12c5.33301 0 11 0.333008 17 1c7.33301 0.666992 20 2.66699 38 6c35.333 6.66699 62 10 80 10
c44 0 78.667 -14.667 104 -44c13.333 -15.333 20 -31.666 20 -48.999c0 -8 -1.33301 -16 -4 -24c-18 -51.333 -86 -95.666 -204 -132.999l11 -27c76.667 -198 145.334 -336.667 206.001 -416c8 -11.333 23.333 -30 46 -56zM1347 2363
c31.333 -34.667 52.3359 -72.667 63.0029 -114c4.66699 -18 7 -35.333 7 -52c0 -21.333 -4 -41 -12 -59c-16.667 -38 -45 -57 -85 -57c-24.667 0 -51 8.33301 -79 25c-44 26.667 -96 72.667 -156 138c-50.667 54.667 -86 82 -106 82
c-30.667 0 -69.334 -44.667 -116.001 -134c-24.667 -46.667 -57.334 -83.334 -98.001 -110c-36 -23.333 -71.667 -35 -107 -35c-41.333 0 -71.333 15.667 -90 47c-10 16.667 -15 36 -15 58c0 36 13.667 78.667 41 128c112 205.333 233.667 357.666 365 457l15 11l14 -10
c43.333 -30 143.666 -133.333 300.999 -310z" />
    <glyph glyph-name="Atilde" unicode="&#xc3;" 
d="M1097 1071c-4.66699 20 -11.333 53.332 -20 99.999c-38.667 200 -74.667 327.333 -108 382c-35.333 -65.333 -90.333 -202.666 -165 -411.999l-50 -137c31.333 4.66699 81 15 149 31c88 20.667 152.667 32.667 194 36zM1768 297.999
c53.333 -60 88.667 -107.668 106 -143.001c16.667 -32.667 25 -64.334 25 -95.001c0 -24.667 -5.66699 -49 -17 -73c-18 -38 -44.333 -57 -79 -57c-60.667 0 -140.334 64 -239.001 192c-60.667 79.333 -104.334 144.333 -131.001 195c-21.333 42 -52 107 -92 195
c-42.667 94 -75.667 163.333 -99 208c-20.667 40 -70.667 60 -150 60c-14 0 -36.667 -1 -68 -3c-18 -0.666992 -32 -1.33398 -42 -2.00098c-78.667 -2 -195 -17.667 -349 -47c-173.333 -287.333 -280.666 -457 -321.999 -509c-69.333 -88 -129.333 -132 -180 -132
c-13.333 0 -26 2.33301 -38 7c-18.667 8 -31.667 21.667 -39 41c-2.66699 7.33301 -4 16 -4 26c0 58.667 41.667 167 125 325c54.667 104 82 165.333 82 184v1c-0.666992 6 -9 9 -25 9c-10 0 -27 -1.66699 -51 -5s-41.667 -5 -53 -5c-25.333 0 -42.666 7.33301 -51.999 22
c-4.66699 7.33301 -7 16 -7 26s2.66699 21.667 8 35c22.667 52.667 50.334 92 83.001 118c27.333 22 70.666 42.333 129.999 61c102.667 32.667 212.667 198.667 330 498c5.33301 12 14.666 38 27.999 78c46.667 136 88 235.667 124 299c64 112.667 133.333 169.667 208 171
c150 0 238.667 -89.333 266 -268c33.333 -211.333 76.333 -398 129 -560c2.66699 -7.33301 6.66699 -20.666 12 -39.999c10 -36 19.667 -58.667 29 -68c8 -8 20.667 -12 38 -12c5.33301 0 11 0.333008 17 1c7.33301 0.666992 20 2.66699 38 6c35.333 6.66699 62 10 80 10
c44 0 78.667 -14.667 104 -44c13.333 -15.333 20 -31.666 20 -48.999c0 -8 -1.33301 -16 -4 -24c-18 -51.333 -86 -95.666 -204 -132.999l11 -27c76.667 -198 145.334 -336.667 206.001 -416c8 -11.333 23.333 -30 46 -56zM1372 2641c48 -42 72.001 -84.333 72.001 -127v-8
c-4 -54 -44.333 -126.667 -121 -218c-56 -66.667 -118 -100 -186 -100c-58 0 -135.667 35 -233 105c-56.667 41.333 -95 63.333 -115 66c-11.333 2 -21.333 3 -30 3c-14 0 -24.333 -3.33301 -31 -10s-17 -23.334 -31 -50c-24.667 -48.667 -49.334 -89.334 -74.001 -122
c-20.667 -28 -49 -42 -85 -42c-48 0 -84.667 20.333 -110 61c-12 19.333 -18 39 -18 59c0 17.333 4.33301 35.333 13 54c2.66699 5.33301 6.66699 14.333 12 27c36 79.333 71 139 105 179c60.667 72 134.667 113.333 222 124c8 0.666992 16 1 24 1
c62 0 140.333 -25.667 235 -77c56 -31.333 93 -47 111 -47c14.667 0 27.334 12 38.001 36c38.667 80.667 82.667 121 132 121c21.333 0 40.666 -8 57.999 -24z" />
    <glyph glyph-name="Adieresis" unicode="&#xc4;" 
d="M1097 1071c-4.66699 20 -11.333 53.332 -20 99.999c-38.667 200 -74.667 327.333 -108 382c-35.333 -65.333 -90.333 -202.666 -165 -411.999l-50 -137c31.333 4.66699 81 15 149 31c88 20.667 152.667 32.667 194 36zM1768 297.999
c53.333 -60 88.667 -107.668 106 -143.001c16.667 -32.667 25 -64.334 25 -95.001c0 -24.667 -5.66699 -49 -17 -73c-18 -38 -44.333 -57 -79 -57c-60.667 0 -140.334 64 -239.001 192c-60.667 79.333 -104.334 144.333 -131.001 195c-21.333 42 -52 107 -92 195
c-42.667 94 -75.667 163.333 -99 208c-20.667 40 -70.667 60 -150 60c-14 0 -36.667 -1 -68 -3c-18 -0.666992 -32 -1.33398 -42 -2.00098c-78.667 -2 -195 -17.667 -349 -47c-173.333 -287.333 -280.666 -457 -321.999 -509c-69.333 -88 -129.333 -132 -180 -132
c-13.333 0 -26 2.33301 -38 7c-18.667 8 -31.667 21.667 -39 41c-2.66699 7.33301 -4 16 -4 26c0 58.667 41.667 167 125 325c54.667 104 82 165.333 82 184v1c-0.666992 6 -9 9 -25 9c-10 0 -27 -1.66699 -51 -5s-41.667 -5 -53 -5c-25.333 0 -42.666 7.33301 -51.999 22
c-4.66699 7.33301 -7 16 -7 26s2.66699 21.667 8 35c22.667 52.667 50.334 92 83.001 118c27.333 22 70.666 42.333 129.999 61c102.667 32.667 212.667 198.667 330 498c5.33301 12 14.666 38 27.999 78c46.667 136 88 235.667 124 299c64 112.667 133.333 169.667 208 171
c150 0 238.667 -89.333 266 -268c33.333 -211.333 76.333 -398 129 -560c2.66699 -7.33301 6.66699 -20.666 12 -39.999c10 -36 19.667 -58.667 29 -68c8 -8 20.667 -12 38 -12c5.33301 0 11 0.333008 17 1c7.33301 0.666992 20 2.66699 38 6c35.333 6.66699 62 10 80 10
c44 0 78.667 -14.667 104 -44c13.333 -15.333 20 -31.666 20 -48.999c0 -8 -1.33301 -16 -4 -24c-18 -51.333 -86 -95.666 -204 -132.999l11 -27c76.667 -198 145.334 -336.667 206.001 -416c8 -11.333 23.333 -30 46 -56zM833.002 2200
c-30.667 -28.667 -65.332 -43 -103.999 -43h-10c-43.333 3.33301 -78.333 22.666 -105 58c-24 32.667 -36 72.667 -36 120c0 7.33301 0.333008 14.666 1 22c1.33301 18.667 4 37.667 8 57c10 37.333 32 65.333 66 84c23.333 13.333 48.666 20 75.999 20
c8 0 15.667 -0.333008 23 -1c38.667 -4.66699 71 -21 97 -49c29.333 -32 44.333 -73.333 45 -124c-4 -60.667 -24.333 -108.667 -61 -144zM1329 2200c-30.667 -28.667 -65.332 -43 -103.999 -43h-10c-43.333 3.33301 -78.333 22.666 -105 58c-24 32.667 -36 72.667 -36 120
c0 7.33301 0.333008 14.666 1 22c1.33301 18.667 4 37.667 8 57c10 37.333 32 65.333 66 84c23.333 13.333 48.666 20 75.999 20c8 0 15.667 -0.333008 23 -1c38.667 -4.66699 71 -21 97 -49c29.333 -32 44.333 -73.333 45 -124c-4 -60.667 -24.333 -108.667 -61 -144z" />
    <glyph glyph-name="Aring" unicode="&#xc5;" 
d="M1097 1071c-4.66699 20 -11.333 53.332 -20 99.999c-38.667 200 -74.667 327.333 -108 382c-35.333 -65.333 -90.333 -202.666 -165 -411.999l-50 -137c31.333 4.66699 81 15 149 31c88 20.667 152.667 32.667 194 36zM1768 297.999
c53.333 -60 88.667 -107.668 106 -143.001c16.667 -32.667 25 -64.334 25 -95.001c0 -24.667 -5.66699 -49 -17 -73c-18 -38 -44.333 -57 -79 -57c-60.667 0 -140.334 64 -239.001 192c-60.667 79.333 -104.334 144.333 -131.001 195c-21.333 42 -52 107 -92 195
c-42.667 94 -75.667 163.333 -99 208c-20.667 40 -70.667 60 -150 60c-14 0 -36.667 -1 -68 -3c-18 -0.666992 -32 -1.33398 -42 -2.00098c-78.667 -2 -195 -17.667 -349 -47c-173.333 -287.333 -280.666 -457 -321.999 -509c-69.333 -88 -129.333 -132 -180 -132
c-13.333 0 -26 2.33301 -38 7c-18.667 8 -31.667 21.667 -39 41c-2.66699 7.33301 -4 16 -4 26c0 58.667 41.667 167 125 325c54.667 104 82 165.333 82 184v1c-0.666992 6 -9 9 -25 9c-10 0 -27 -1.66699 -51 -5s-41.667 -5 -53 -5c-25.333 0 -42.666 7.33301 -51.999 22
c-4.66699 7.33301 -7 16 -7 26s2.66699 21.667 8 35c22.667 52.667 50.334 92 83.001 118c27.333 22 70.666 42.333 129.999 61c102.667 32.667 212.667 198.667 330 498c5.33301 12 14.666 38 27.999 78c46.667 136 88 235.667 124 299c64 112.667 133.333 169.667 208 171
c150 0 238.667 -89.333 266 -268c33.333 -211.333 76.333 -398 129 -560c2.66699 -7.33301 6.66699 -20.666 12 -39.999c10 -36 19.667 -58.667 29 -68c8 -8 20.667 -12 38 -12c5.33301 0 11 0.333008 17 1c7.33301 0.666992 20 2.66699 38 6c35.333 6.66699 62 10 80 10
c44 0 78.667 -14.667 104 -44c13.333 -15.333 20 -31.666 20 -48.999c0 -8 -1.33301 -16 -4 -24c-18 -51.333 -86 -95.666 -204 -132.999l11 -27c76.667 -198 145.334 -336.667 206.001 -416c8 -11.333 23.333 -30 46 -56zM1087 2413c1.33301 4 2.00098 8 2.00098 12
c0 10 -4.33301 20.333 -13 31c-30.667 40 -84 60 -160 60c-5.33301 0 -11 -0.333008 -17 -1c-64 -3.33301 -102 -24.666 -114 -64c-3.33301 -9.33301 -5 -18.333 -5 -27c0 -24.667 11.333 -47.334 34 -68c24.667 -24 55 -36 91 -36c22.667 0 48 5 76 15
c61.333 22.667 96.666 48.667 105.999 78zM1080 2715c90 -30.667 159.999 -79 209.999 -145c37.333 -49.333 56 -100.666 56 -154c0 -24.667 -4 -49.667 -12 -75c-17.333 -53.333 -52.666 -103.666 -105.999 -151c-70 -62 -171.333 -93 -304 -93
c-116.667 0 -213.667 25.333 -291 76c-76 49.333 -114 112 -114 188c0 28 5 57.333 15 88c2 7.33301 5 15.333 9 24c30.667 85.333 78.667 151.666 144 199c66 46.667 143 70 231 70c54.667 0 108.667 -9 162 -27z" />
    <glyph glyph-name="AE" unicode="&#xc6;" horiz-adv-x="3044" 
d="M1225 1020c-2.66699 11.333 -5.33203 24.001 -7.99902 38.001c-31.333 131.333 -67 220.666 -107 267.999c-94.667 -149.333 -163 -270.666 -205 -363.999c32.667 3.33301 81 12.666 145 27.999c77.333 18 135.666 28 174.999 30zM2984 635.001
c6 -18 9.33496 -42.002 10.002 -72.002c0 -30.667 -3.66699 -51 -11 -61l-3 -5l-6 -1c-245.333 -64.667 -378.666 -101 -400 -109c-62.667 -24.667 -159.334 -80.667 -290.001 -168c-216.667 -146 -382 -219 -496 -219c-99.333 0 -181.666 62 -246.999 186
c-38 70.667 -77.667 185 -119 343c-11.333 44 -19.666 74.333 -24.999 91c-22.667 52 -44 86.333 -64 103c-18 14.667 -44.667 22 -80 22c-15.333 0 -43 -1.66699 -83 -5l-29 -2c-13.333 -1.33301 -37.333 -2.33301 -72 -3c-188 -4.66699 -299.667 -27.667 -335 -69
c-20.667 -24 -52.334 -81.667 -95.001 -173c-51.333 -108.667 -93.333 -185.334 -126 -230.001c-57.333 -76.667 -118.333 -115 -183 -115c-26.667 0 -54 6.33301 -82 19c-23.333 10 -38.666 25.667 -45.999 47c-2.66699 8 -4 17.333 -4 28c0 41.333 20.667 104 62 188
c30.667 62 46 102.333 46 121c0 2.66699 -0.333008 4.66699 -1 6c-1.33301 2.66699 -3.33301 4.66699 -6 6c-8.66699 4 -28.334 11.333 -59.001 22c-64.667 22 -110 40 -136 54c-36 20 -54 41 -54 63v1c0.666992 33.333 44.667 63 132 89c15.333 4.66699 42.333 11 81 19
c106 21.333 172.333 45.333 199 72c78 76.667 172.333 229 283 457l39 79c16 33.333 37.333 91.333 64 174c46 142 90 236.333 132 283c33.333 38 68.333 57 105 57c38 0 88.667 -28.333 152 -85c48 -42.667 82.333 -64.667 103 -66c21.333 7.33301 53.333 30 96 68
c56.667 50 104 75 142 75c14.667 0 29.667 -2.66699 45 -8c22.667 -8 47.667 -24 75 -48c28 -23.333 54 -35 78 -35h8c60 6.66699 143 26.334 249 59.001l31 10c94.667 30.667 166.667 46 216 46c52 0 93.333 -13.333 124 -40c12 -18 18 -36.333 18 -55
c0 -10 -1.66699 -20 -5 -30c-11.333 -36 -41.666 -73 -90.999 -111c-36 -28 -70 -48.333 -102 -61c-73.333 -30 -187 -53 -341 -69c-100 -10.667 -174.667 -21.667 -224 -33c-42 -10 -63 -91.333 -63 -244c0 -19.333 0.333008 -39.666 1 -60.999v-1l10 3
c287.333 73.333 504.333 110 650.999 110c50.667 0 100 -3.33301 148 -10c50.667 -6.66699 76.334 -24.667 77 -54v-1c0 -36.667 -43.333 -81.667 -130 -135c-77.333 -48 -137.333 -75.667 -180 -83c-92.667 -16 -228.667 -34.667 -408 -56
c-12.667 -3.33301 -31.334 -7.66602 -56.001 -12.999c-41.333 -8 -65 -16.667 -71 -26c-3.33301 -5.33301 -5 -13.333 -5 -24c0 -16 3.66699 -38.333 11 -67c24 -97.333 49.667 -188 77 -272c30.667 -92.667 55.667 -154 75 -184c21.333 -34 49.666 -51 84.999 -51
c37.333 0 110 22.667 218 68l138 61c252.667 115.333 444.334 173 575 173c51.333 0 100 -6 146 -18c11.333 -3.33301 20 -13.333 26 -30z" />
    <glyph glyph-name="Ccedilla" unicode="&#xc7;" horiz-adv-x="2104" 
d="M898 0c-175.333 0 -331.331 37.3271 -467.998 111.994c-190.667 105.333 -310 250 -358 434c-14.667 58 -22 118.667 -22 182c0 74.667 10.333 152.667 31 234c66.667 260 209 486.333 427 679c210 186 421 279 633 279c9.33301 0 18.666 -0.333008 27.999 -1
c41.333 -3.33301 79.666 -15 114.999 -35c39.333 -23.333 64.666 -52.666 75.999 -87.999c4 -12 6 -23.667 6 -35c0 -67.333 -67.667 -129 -203 -185l-74 -30c-202 -82 -348.667 -166 -440 -252c-90.667 -84.667 -163 -176.334 -217 -275.001
c-54.667 -99.333 -82 -192 -82 -278c0 -15.333 1 -30.333 3 -45c13.333 -118 82.333 -213.333 207 -286c104.667 -61.333 227.667 -92 369 -92c224.667 0 427 65.333 607 196c2 1.33301 16.667 15 44 41c357.333 339.333 577.666 509 660.999 509
c24.667 0 40.334 -11 47 -33c4.66699 -15.333 7 -31.666 7 -48.999c0 -101.333 -78.333 -238.666 -235 -411.999c-142 -157.333 -307.333 -288.333 -496 -393c-96 -53.333 -194 -94.666 -294 -123.999c12 -30 20 -64.333 24 -103c1.33301 -14 2 -27.667 2 -41
c0 -36 -4.66699 -69 -14 -99c98.667 -69.333 148 -144.333 148 -225c0 -20 -3 -40.667 -9 -62c-22 -74 -78.333 -138 -169 -192c-86 -51.333 -171.667 -77 -257 -77c-113.333 0 -181.333 45.667 -204 137c-2 8.66699 -3 17 -3 25c0 16 4.66699 30.333 14 43
c21.333 28.667 81.333 46 180 52c40 2 64.333 4.66699 73 8c62.667 22.667 94 48.334 94 77.001c0 2.66699 -0.333008 5.33398 -1 8.00098c-3.33301 18 -17.666 31.667 -42.999 41c-13.333 4.66699 -27 7 -41 7c-13.333 0 -26.666 -2 -39.999 -6
c-11.333 -3.33301 -22.333 -5 -33 -5c-26.667 0 -52 9.33301 -76 28c-34.667 25.333 -58 62 -70 110c-2.66699 10.667 -4 20.667 -4 30c0 28 11.333 51.667 34 71c18 14.667 52.333 31.334 103 50.001c17.333 6.66699 28 17 32 31c2.66699 6.66699 4 16 4 28
c0 4.66699 -0.333008 10 -1 16c-38 -3.33301 -76.333 -5 -115 -5z" />
    <glyph glyph-name="Egrave" unicode="&#xc8;" horiz-adv-x="1492" 
d="M899 2302c53.333 -70.667 80.667 -129 82 -175v-2c0 -42.667 -21.667 -82.667 -65 -120c-20 -16.667 -40 -25 -60 -25c-20.667 0 -38.334 8.66699 -53.001 26c-106 84 -242.333 224 -409 420c-6 6.66699 -17.333 18 -34 34c-44 40.667 -73.333 74 -88 100
c-12 21.333 -18 41.666 -18 61c0 22.667 7.66699 44 23 64c12.667 16.667 25 30 37 40c20.667 18 42.334 27 65.001 27c24 0 58.333 -15.667 103 -47l6 -4c162.667 -116 298 -246.667 406 -392zM1683 526c6 -16 9.00293 -31.3359 9.00293 -46.0029
c0 -3.33301 -0.333008 -7 -1 -11c-1.33301 -15.333 -7 -29 -17 -41c-24 -32 -110.667 -52.667 -260 -62c-44.667 -3.33301 -73.334 -5.66602 -86.001 -6.99902c-139.333 -26.667 -300.333 -90.334 -483 -191.001l-12 -7c-158.667 -86.667 -283.667 -130 -375 -130h-15l-14 1
c-143.333 16.667 -233.333 154 -270 412c-9.33301 68.667 -14 148 -14 238c0 28.667 0.333008 58.334 1 89.001c2 61.333 5.66699 127.333 11 198c-54 9.33301 -91.667 30.666 -113 63.999c-9.33301 14.667 -14 30.667 -14 48c0 4.66699 0.333008 9 1 13
c1.33301 12.667 5 26.334 11 41.001c8.66699 22 28.667 53 60 93c14.667 19.333 24.334 33 29.001 41c24 38.667 42.333 107.334 55 206.001c6 48 11.667 84 17 108c-12.667 0 -24.334 0.666992 -35.001 2c-72.667 8.66699 -119.334 33.334 -140.001 74.001
c-6.66699 12.667 -10 26.667 -10 42c0 4.66699 0.333008 9.66699 1 15c2.66699 23.333 12 48.666 28 75.999c30 51.333 98 93.333 204 126c59.333 18.667 101 35.667 125 51c58.667 38.667 107.334 58 146.001 58c4 0 8 -0.333008 12 -1
c37.333 -4 82.666 -30.667 135.999 -80c15.333 -14.667 39.333 -23.667 72 -27c11.333 -1.33301 23.666 -2 36.999 -2c55.333 0 128.333 11 219 33c94.667 22 163.667 33 207 33c8 0 15 -0.333008 21 -1l7 -1c64.667 -7.33301 103 -34 115 -80c2 -7.33301 3 -15 3 -23
c0 -4.66699 -0.333008 -9.33398 -1 -14.001c-1.33301 -16.667 -6.66602 -33.334 -15.999 -50.001c-16.667 -31.333 -41.334 -58.333 -74.001 -81c-78 -54.667 -195.333 -82 -352 -82c-14 0 -28.333 0.333008 -43 1c-12 0.666992 -34.667 2.66699 -68 6
c-40 4 -75.667 6 -107 6c-90 0 -144.667 -17 -164 -51c-20 -38.667 -35 -101 -45 -187c-2.66699 -19.333 -5 -40.333 -7 -63c0 -10 -0.666992 -20 -2 -30c214 29.333 411.667 44.333 593 45c4.66699 0 15.334 0.333008 32.001 1c20 0.666992 38.333 1 55 1
c27.333 0 49.666 -1 66.999 -3c56 -6.66699 94 -23.667 114 -51c11.333 -15.333 17 -31.333 17 -48v-7c-0.666992 -6.66699 -2.66699 -13 -6 -19c-11.333 -33.333 -42.333 -66 -93 -98c-41.333 -26 -78 -43 -110 -51c-73.333 -18.667 -184.333 -28 -333 -28h-15l-42 1
c-10.667 0 -27.667 0.666992 -51 2c-24 1.33301 -45.333 2 -64 2c-26 0 -47 -1.33301 -63 -4c-45.333 -7.33301 -76.666 -25.666 -93.999 -54.999c-26.667 -46.667 -46 -121.667 -58 -225l-2 -19c-3.33301 -37.333 -5 -72.333 -5 -105
c0 -75.333 9.66699 -136.666 29 -183.999c18.667 -42.667 44.667 -68 78 -76c7.33301 -1.33301 14.666 -2.33301 21.999 -3c10 -1.33301 20.667 -2 32 -2c78 0 192 28.333 342 85c42.667 16.667 74 28.334 94 35.001c176 60.667 327.333 91 454 91
c28.667 0 56 -1.66699 82 -5c22.667 -2.66699 44 -6.33398 64 -11.001c32.667 -7.33301 56.667 -32.666 72 -75.999z" />
    <glyph glyph-name="Eacute" unicode="&#xc9;" horiz-adv-x="1512" 
d="M1343 2685c15.333 -20 23.002 -41.333 23.002 -64c0 -19.333 -6 -39.666 -18 -61c-14.667 -25.333 -43.334 -58 -86.001 -98c-18.667 -17.333 -31 -29.666 -37 -37c-166.667 -196 -304 -337 -412 -423c-12 -14.667 -28.333 -22 -49 -22s-40.667 8.33301 -60 25
c-43.333 36.667 -65 76 -65 118v4c1.33301 45.333 28.666 103.666 81.999 175l5 7c108 145.333 243.333 276 406 392l5 4c44.667 31.333 79 47 103 47c22.667 0 44.667 -9 66 -27c12 -10 24.333 -23.333 37 -40zM1683 526c6 -16 9.00293 -31.3359 9.00293 -46.0029
c0 -3.33301 -0.333008 -7 -1 -11c-1.33301 -15.333 -7 -29 -17 -41c-24 -32 -110.667 -52.667 -260 -62c-44.667 -3.33301 -73.334 -5.66602 -86.001 -6.99902c-139.333 -26.667 -300.333 -90.334 -483 -191.001l-12 -7c-158.667 -86.667 -283.667 -130 -375 -130h-15l-14 1
c-143.333 16.667 -233.333 154 -270 412c-9.33301 68.667 -14 148 -14 238c0 28.667 0.333008 58.334 1 89.001c2 61.333 5.66699 127.333 11 198c-54 9.33301 -91.667 30.666 -113 63.999c-9.33301 14.667 -14 30.667 -14 48c0 4.66699 0.333008 9 1 13
c1.33301 12.667 5 26.334 11 41.001c8.66699 22 28.667 53 60 93c14.667 19.333 24.334 33 29.001 41c24 38.667 42.333 107.334 55 206.001c6 48 11.667 84 17 108c-12.667 0 -24.334 0.666992 -35.001 2c-72.667 8.66699 -119.334 33.334 -140.001 74.001
c-6.66699 12.667 -10 26.667 -10 42c0 4.66699 0.333008 9.66699 1 15c2.66699 23.333 12 48.666 28 75.999c30 51.333 98 93.333 204 126c59.333 18.667 101 35.667 125 51c58.667 38.667 107.334 58 146.001 58c4 0 8 -0.333008 12 -1
c37.333 -4 82.666 -30.667 135.999 -80c15.333 -14.667 39.333 -23.667 72 -27c11.333 -1.33301 23.666 -2 36.999 -2c55.333 0 128.333 11 219 33c94.667 22 163.667 33 207 33c8 0 15 -0.333008 21 -1l7 -1c64.667 -7.33301 103 -34 115 -80c2 -7.33301 3 -15 3 -23
c0 -4.66699 -0.333008 -9.33398 -1 -14.001c-1.33301 -16.667 -6.66602 -33.334 -15.999 -50.001c-16.667 -31.333 -41.334 -58.333 -74.001 -81c-78 -54.667 -195.333 -82 -352 -82c-14 0 -28.333 0.333008 -43 1c-12 0.666992 -34.667 2.66699 -68 6
c-40 4 -75.667 6 -107 6c-90 0 -144.667 -17 -164 -51c-20 -38.667 -35 -101 -45 -187c-2.66699 -19.333 -5 -40.333 -7 -63c0 -10 -0.666992 -20 -2 -30c214 29.333 411.667 44.333 593 45c4.66699 0 15.334 0.333008 32.001 1c20 0.666992 38.333 1 55 1
c27.333 0 49.666 -1 66.999 -3c56 -6.66699 94 -23.667 114 -51c11.333 -15.333 17 -31.333 17 -48v-7c-0.666992 -6.66699 -2.66699 -13 -6 -19c-11.333 -33.333 -42.333 -66 -93 -98c-41.333 -26 -78 -43 -110 -51c-73.333 -18.667 -184.333 -28 -333 -28h-15l-42 1
c-10.667 0 -27.667 0.666992 -51 2c-24 1.33301 -45.333 2 -64 2c-26 0 -47 -1.33301 -63 -4c-45.333 -7.33301 -76.666 -25.666 -93.999 -54.999c-26.667 -46.667 -46 -121.667 -58 -225l-2 -19c-3.33301 -37.333 -5 -72.333 -5 -105
c0 -75.333 9.66699 -136.666 29 -183.999c18.667 -42.667 44.667 -68 78 -76c7.33301 -1.33301 14.666 -2.33301 21.999 -3c10 -1.33301 20.667 -2 32 -2c78 0 192 28.333 342 85c42.667 16.667 74 28.334 94 35.001c176 60.667 327.333 91 454 91
c28.667 0 56 -1.66699 82 -5c22.667 -2.66699 44 -6.33398 64 -11.001c32.667 -7.33301 56.667 -32.666 72 -75.999z" />
    <glyph glyph-name="Ecircumflex" unicode="&#xca;" horiz-adv-x="1491" 
d="M1068 2359c31.333 -34.667 52.3359 -72.667 63.0029 -114c4.66699 -18 7 -35.333 7 -52c0 -21.333 -4 -41 -12 -59c-16.667 -38 -45 -57 -85 -57c-24.667 0 -51 8.33301 -79 25c-44 26.667 -96 72.667 -156 138c-50.667 54.667 -86 82 -106 82
c-30.667 0 -69.334 -44.667 -116.001 -134c-24.667 -46.667 -57.334 -83.334 -98.001 -110c-36 -23.333 -71.667 -35 -107 -35c-41.333 0 -71.333 15.667 -90 47c-10 16.667 -15 36 -15 58c0 36 13.667 78.667 41 128c112 205.333 233.667 357.666 365 457l15 11l14 -10
c43.333 -30 143.666 -133.333 300.999 -310zM1683 526c6 -16 9.00293 -31.3359 9.00293 -46.0029c0 -3.33301 -0.333008 -7 -1 -11c-1.33301 -15.333 -7 -29 -17 -41c-24 -32 -110.667 -52.667 -260 -62c-44.667 -3.33301 -73.334 -5.66602 -86.001 -6.99902
c-139.333 -26.667 -300.333 -90.334 -483 -191.001l-12 -7c-158.667 -86.667 -283.667 -130 -375 -130h-15l-14 1c-143.333 16.667 -233.333 154 -270 412c-9.33301 68.667 -14 148 -14 238c0 28.667 0.333008 58.334 1 89.001c2 61.333 5.66699 127.333 11 198
c-54 9.33301 -91.667 30.666 -113 63.999c-9.33301 14.667 -14 30.667 -14 48c0 4.66699 0.333008 9 1 13c1.33301 12.667 5 26.334 11 41.001c8.66699 22 28.667 53 60 93c14.667 19.333 24.334 33 29.001 41c24 38.667 42.333 107.334 55 206.001c6 48 11.667 84 17 108
c-12.667 0 -24.334 0.666992 -35.001 2c-72.667 8.66699 -119.334 33.334 -140.001 74.001c-6.66699 12.667 -10 26.667 -10 42c0 4.66699 0.333008 9.66699 1 15c2.66699 23.333 12 48.666 28 75.999c30 51.333 98 93.333 204 126c59.333 18.667 101 35.667 125 51
c58.667 38.667 107.334 58 146.001 58c4 0 8 -0.333008 12 -1c37.333 -4 82.666 -30.667 135.999 -80c15.333 -14.667 39.333 -23.667 72 -27c11.333 -1.33301 23.666 -2 36.999 -2c55.333 0 128.333 11 219 33c94.667 22 163.667 33 207 33c8 0 15 -0.333008 21 -1l7 -1
c64.667 -7.33301 103 -34 115 -80c2 -7.33301 3 -15 3 -23c0 -4.66699 -0.333008 -9.33398 -1 -14.001c-1.33301 -16.667 -6.66602 -33.334 -15.999 -50.001c-16.667 -31.333 -41.334 -58.333 -74.001 -81c-78 -54.667 -195.333 -82 -352 -82c-14 0 -28.333 0.333008 -43 1
c-12 0.666992 -34.667 2.66699 -68 6c-40 4 -75.667 6 -107 6c-90 0 -144.667 -17 -164 -51c-20 -38.667 -35 -101 -45 -187c-2.66699 -19.333 -5 -40.333 -7 -63c0 -10 -0.666992 -20 -2 -30c214 29.333 411.667 44.333 593 45c4.66699 0 15.334 0.333008 32.001 1
c20 0.666992 38.333 1 55 1c27.333 0 49.666 -1 66.999 -3c56 -6.66699 94 -23.667 114 -51c11.333 -15.333 17 -31.333 17 -48v-7c-0.666992 -6.66699 -2.66699 -13 -6 -19c-11.333 -33.333 -42.333 -66 -93 -98c-41.333 -26 -78 -43 -110 -51
c-73.333 -18.667 -184.333 -28 -333 -28h-15l-42 1c-10.667 0 -27.667 0.666992 -51 2c-24 1.33301 -45.333 2 -64 2c-26 0 -47 -1.33301 -63 -4c-45.333 -7.33301 -76.666 -25.666 -93.999 -54.999c-26.667 -46.667 -46 -121.667 -58 -225l-2 -19
c-3.33301 -37.333 -5 -72.333 -5 -105c0 -75.333 9.66699 -136.666 29 -183.999c18.667 -42.667 44.667 -68 78 -76c7.33301 -1.33301 14.666 -2.33301 21.999 -3c10 -1.33301 20.667 -2 32 -2c78 0 192 28.333 342 85c42.667 16.667 74 28.334 94 35.001
c176 60.667 327.333 91 454 91c28.667 0 56 -1.66699 82 -5c22.667 -2.66699 44 -6.33398 64 -11.001c32.667 -7.33301 56.667 -32.666 72 -75.999z" />
    <glyph glyph-name="Edieresis" unicode="&#xcb;" horiz-adv-x="1491" 
d="M538 2237c-30.667 -28.667 -65.332 -43 -103.999 -43h-10c-43.333 3.33301 -78.333 22.666 -105 58c-24 32.667 -36 72.667 -36 120c0 7.33301 0.333008 14.666 1 22c1.33301 18.667 4 37.667 8 57c10 37.333 32 65.333 66 84c23.333 13.333 48.666 20 75.999 20
c8 0 15.667 -0.333008 23 -1c38.667 -4.66699 71 -21 97 -49c29.333 -32 44.333 -73.333 45 -124c-4 -60.667 -24.333 -108.667 -61 -144zM1066 2237c-30.667 -28.667 -65.332 -43 -103.999 -43h-10c-43.333 3.33301 -78.333 22.666 -105 58c-24 32.667 -36 72.667 -36 120
c0 7.33301 0.333008 14.666 1 22c1.33301 18.667 4 37.667 8 57c10 37.333 32 65.333 66 84c24 13.333 49.667 20 77 20c7.33301 0 14.666 -0.333008 21.999 -1c38.667 -4.66699 71 -21 97 -49c29.333 -32 44.333 -73.333 45 -124c-4 -60.667 -24.333 -108.667 -61 -144z
M1683 526c6 -16 9.00293 -31.3359 9.00293 -46.0029c0 -3.33301 -0.333008 -7 -1 -11c-1.33301 -15.333 -7 -29 -17 -41c-24 -32 -110.667 -52.667 -260 -62c-44.667 -3.33301 -73.334 -5.66602 -86.001 -6.99902c-139.333 -26.667 -300.333 -90.334 -483 -191.001l-12 -7
c-158.667 -86.667 -283.667 -130 -375 -130h-15l-14 1c-143.333 16.667 -233.333 154 -270 412c-9.33301 68.667 -14 148 -14 238c0 28.667 0.333008 58.334 1 89.001c2 61.333 5.66699 127.333 11 198c-54 9.33301 -91.667 30.666 -113 63.999
c-9.33301 14.667 -14 30.667 -14 48c0 4.66699 0.333008 9 1 13c1.33301 12.667 5 26.334 11 41.001c8.66699 22 28.667 53 60 93c14.667 19.333 24.334 33 29.001 41c24 38.667 42.333 107.334 55 206.001c6 48 11.667 84 17 108c-12.667 0 -24.334 0.666992 -35.001 2
c-72.667 8.66699 -119.334 33.334 -140.001 74.001c-6.66699 12.667 -10 26.667 -10 42c0 4.66699 0.333008 9.66699 1 15c2.66699 23.333 12 48.666 28 75.999c30 51.333 98 93.333 204 126c59.333 18.667 101 35.667 125 51c58.667 38.667 107.334 58 146.001 58
c4 0 8 -0.333008 12 -1c37.333 -4 82.666 -30.667 135.999 -80c15.333 -14.667 39.333 -23.667 72 -27c11.333 -1.33301 23.666 -2 36.999 -2c55.333 0 128.333 11 219 33c94.667 22 163.667 33 207 33c8 0 15 -0.333008 21 -1l7 -1c64.667 -7.33301 103 -34 115 -80
c2 -7.33301 3 -15 3 -23c0 -4.66699 -0.333008 -9.33398 -1 -14.001c-1.33301 -16.667 -6.66602 -33.334 -15.999 -50.001c-16.667 -31.333 -41.334 -58.333 -74.001 -81c-78 -54.667 -195.333 -82 -352 -82c-14 0 -28.333 0.333008 -43 1
c-12 0.666992 -34.667 2.66699 -68 6c-40 4 -75.667 6 -107 6c-90 0 -144.667 -17 -164 -51c-20 -38.667 -35 -101 -45 -187c-2.66699 -19.333 -5 -40.333 -7 -63c0 -10 -0.666992 -20 -2 -30c214 29.333 411.667 44.333 593 45c4.66699 0 15.334 0.333008 32.001 1
c20 0.666992 38.333 1 55 1c27.333 0 49.666 -1 66.999 -3c56 -6.66699 94 -23.667 114 -51c11.333 -15.333 17 -31.333 17 -48v-7c-0.666992 -6.66699 -2.66699 -13 -6 -19c-11.333 -33.333 -42.333 -66 -93 -98c-41.333 -26 -78 -43 -110 -51
c-73.333 -18.667 -184.333 -28 -333 -28h-15l-42 1c-10.667 0 -27.667 0.666992 -51 2c-24 1.33301 -45.333 2 -64 2c-26 0 -47 -1.33301 -63 -4c-45.333 -7.33301 -76.666 -25.666 -93.999 -54.999c-26.667 -46.667 -46 -121.667 -58 -225l-2 -19
c-3.33301 -37.333 -5 -72.333 -5 -105c0 -75.333 9.66699 -136.666 29 -183.999c18.667 -42.667 44.667 -68 78 -76c7.33301 -1.33301 14.666 -2.33301 21.999 -3c10 -1.33301 20.667 -2 32 -2c78 0 192 28.333 342 85c42.667 16.667 74 28.334 94 35.001
c176 60.667 327.333 91 454 91c28.667 0 56 -1.66699 82 -5c22.667 -2.66699 44 -6.33398 64 -11.001c32.667 -7.33301 56.667 -32.666 72 -75.999z" />
    <glyph glyph-name="Igrave" unicode="&#xcc;" horiz-adv-x="827" 
d="M516 374c12 -75.333 18 -137.67 18 -187.003c0 -22 -1.33301 -41.667 -4 -59c-6 -40 -23 -71 -51 -93c-24.667 -20 -52.667 -30 -84 -30c-32.667 0 -62 10 -88 30c-26.667 20 -45 46 -55 78c-17.333 57.333 -26 139.333 -26 246c0 29.333 0.666992 60.333 2 93l2 56
c0.666992 29.333 1 61.666 1 96.999c0 146.667 -6.66699 344.334 -20 593.001l-4 91c-0.666992 14.667 -4 47.334 -10 98.001c-14.667 132 -22 245.667 -22 341c0 170.667 23.667 282.667 71 336c27.333 30 61.333 45 102 45h7c57.333 0 99.333 -15.667 126 -47
c20.667 -25.333 31 -66.666 31 -123.999c0 -37.333 -4.33301 -81.666 -13 -132.999c-4.66699 -25.333 -7.66699 -43 -9 -53c-11.333 -81.333 -17 -188.666 -17 -321.999c0 -102.667 3.33301 -220.334 10 -353.001c6 -126.667 9.66699 -220.334 11 -281.001
c0 -23.333 0.333008 -52.666 1 -87.999c0 -128.667 4.66699 -224.667 14 -288zM695 2298c53.333 -70.667 80.667 -129 82 -175v-2c0 -42.667 -21.667 -82.667 -65 -120c-20 -16.667 -40 -25 -60 -25c-20.667 0 -38.334 8.66699 -53.001 26c-106 84 -242.333 224 -409 420
c-6 6.66699 -17.333 18 -34 34c-44 40.667 -73.333 74 -88 100c-12 21.333 -18 41.666 -18 61c0 22.667 7.66699 44 23 64c12.667 16.667 25 30 37 40c20.667 18 42.334 27 65.001 27c24 0 58.333 -15.667 103 -47l6 -4c162.667 -116 298 -246.667 406 -392z" />
    <glyph glyph-name="Iacute" unicode="&#xcd;" horiz-adv-x="827" 
d="M639 369c12 -75.333 18 -137.67 18 -187.003c0 -22 -1.33301 -41.667 -4 -59c-6 -40 -23 -71 -51 -93c-24.667 -20 -52.667 -30 -84 -30c-32.667 0 -62 10 -88 30c-26.667 20 -45 46 -55 78c-17.333 57.333 -26 139.333 -26 246c0 29.333 0.666992 60.333 2 93l2 56
c0.666992 29.333 1 61.666 1 96.999c0 146.667 -6.66699 344.334 -20 593.001l-4 91c-0.666992 14.667 -4 47.334 -10 98.001c-14.667 132 -22 245.667 -22 341c0 170.667 23.667 282.667 71 336c27.333 30 61.333 45 102 45h7c57.333 0 99.333 -15.667 126 -47
c20.667 -25.333 31 -66.666 31 -123.999c0 -37.333 -4.33301 -81.666 -13 -132.999c-4.66699 -25.333 -7.66699 -43 -9 -53c-11.333 -81.333 -17 -188.666 -17 -321.999c0 -102.667 3.33301 -220.334 10 -353.001c6 -126.667 9.66699 -220.334 11 -281.001
c0 -23.333 0.333008 -52.666 1 -87.999c0 -128.667 4.66699 -224.667 14 -288zM754 2676c15.333 -20 23.002 -41.333 23.002 -64c0 -19.333 -6 -39.666 -18 -61c-14.667 -25.333 -43.334 -58 -86.001 -98c-18.667 -17.333 -31 -29.666 -37 -37
c-166.667 -196 -304 -337 -412 -423c-12 -14.667 -28.333 -22 -49 -22s-40.667 8.33301 -60 25c-43.333 36.667 -65 76 -65 118v4c1.33301 45.333 28.666 103.666 81.999 175l5 7c108 145.333 243.333 276 406 392l5 4c44.667 31.333 79 47 103 47
c22.667 0 44.667 -9 66 -27c12 -10 24.333 -23.333 37 -40z" />
    <glyph glyph-name="Icircumflex" unicode="&#xce;" horiz-adv-x="964" 
d="M625 364c12 -75.333 18 -137.67 18 -187.003c0 -22 -1.33301 -41.667 -4 -59c-6 -40 -23 -71 -51 -93c-24.667 -20 -52.667 -30 -84 -30c-32.667 0 -62 10 -88 30c-26.667 20 -45 46 -55 78c-17.333 57.333 -26 139.333 -26 246c0 29.333 0.666992 60.333 2 93l2 56
c0.666992 29.333 1 61.666 1 96.999c0 146.667 -6.66699 344.334 -20 593.001l-4 91c-0.666992 14.667 -4 47.334 -10 98.001c-14.667 132 -22 245.667 -22 341c0 170.667 23.667 282.667 71 336c27.333 30 61.333 45 102 45h7c57.333 0 99.333 -15.667 126 -47
c20.667 -25.333 31 -66.666 31 -123.999c0 -37.333 -4.33301 -81.666 -13 -132.999c-4.66699 -25.333 -7.66699 -43 -9 -53c-11.333 -81.333 -17 -188.666 -17 -321.999c0 -102.667 3.33301 -220.334 10 -353.001c6 -126.667 9.66699 -220.334 11 -281.001
c0 -23.333 0.333008 -52.666 1 -87.999c0 -128.667 4.66699 -224.667 14 -288zM844 2370c31.333 -34.667 52.3359 -72.667 63.0029 -114c4.66699 -18 7 -35.333 7 -52c0 -21.333 -4 -41 -12 -59c-16.667 -38 -45 -57 -85 -57c-24.667 0 -51 8.33301 -79 25
c-44 26.667 -96 72.667 -156 138c-50.667 54.667 -86 82 -106 82c-30.667 0 -69.334 -44.667 -116.001 -134c-24.667 -46.667 -57.334 -83.334 -98.001 -110c-36 -23.333 -71.667 -35 -107 -35c-41.333 0 -71.333 15.667 -90 47c-10 16.667 -15 36 -15 58
c0 36 13.667 78.667 41 128c112 205.333 233.667 357.666 365 457l15 11l14 -10c43.333 -30 143.666 -133.333 300.999 -310z" />
    <glyph glyph-name="Idieresis" unicode="&#xcf;" horiz-adv-x="944" 
d="M601 369c12 -75.333 18 -137.67 18 -187.003c0 -22 -1.33301 -41.667 -4 -59c-6 -40 -23 -71 -51 -93c-24.667 -20 -52.667 -30 -84 -30c-32.667 0 -62 10 -88 30c-26.667 20 -45 46 -55 78c-17.333 57.333 -26 139.333 -26 246c0 29.333 0.666992 60.333 2 93l2 56
c0.666992 29.333 1 61.666 1 96.999c0 146.667 -6.66699 344.334 -20 593.001l-4 91c-0.666992 14.667 -4 47.334 -10 98.001c-14.667 132 -22 245.667 -22 341c0 170.667 23.667 282.667 71 336c27.333 30 61.333 45 102 45h7c57.333 0 99.333 -15.667 126 -47
c20.667 -25.333 31 -66.666 31 -123.999c0 -37.333 -4.33301 -81.666 -13 -132.999c-4.66699 -25.333 -7.66699 -43 -9 -53c-11.333 -81.333 -17 -188.666 -17 -321.999c0 -102.667 3.33301 -220.334 10 -353.001c6 -126.667 9.66699 -220.334 11 -281.001
c0 -23.333 0.333008 -52.666 1 -87.999c0 -128.667 4.66699 -224.667 14 -288zM305 2257c-30.667 -28.667 -65.332 -43 -103.999 -43h-10c-43.333 3.33301 -78.333 22.666 -105 58c-24 32.667 -36 72.667 -36 120c0 7.33301 0.333008 14.666 1 22
c1.33301 18.667 4 37.667 8 57c10 37.333 32 65.333 66 84c23.333 13.333 48.666 20 75.999 20c8 0 15.667 -0.333008 23 -1c38.667 -4.66699 71 -21 97 -49c29.333 -32 44.333 -73.333 45 -124c-4 -60.667 -24.333 -108.667 -61 -144zM833.002 2257
c-30.667 -28.667 -65.332 -43 -103.999 -43h-10c-43.333 3.33301 -78.333 22.666 -105 58c-24 32.667 -36 72.667 -36 120c0 7.33301 0.333008 14.666 1 22c1.33301 18.667 4 37.667 8 57c10 37.333 32 65.333 66 84c24 13.333 49.667 20 77 20
c7.33301 0 14.666 -0.333008 21.999 -1c38.667 -4.66699 71 -21 97 -49c29.333 -32 44.333 -73.333 45 -124c-4 -60.667 -24.333 -108.667 -61 -144z" />
    <glyph glyph-name="Ntilde" unicode="&#xd1;" horiz-adv-x="1401" 
d="M1336 447c10 -70.667 15.0029 -131.669 15.0029 -183.002c0 -76.667 -10.667 -132.334 -32 -167.001c-36.667 -60 -85.334 -90 -146.001 -90c-96.667 0 -184.667 61 -264 183c-96 145.333 -227.667 395 -395 749l-155 320c-2.66699 -154.667 -4 -300 -4 -436
c0 -231.333 3.66699 -435 11 -611v-7c0 -55.333 -22.667 -106.666 -68 -153.999c-32.667 -34 -66.334 -51 -101.001 -51c-42 0 -76.333 24.333 -103 73c-24 42.667 -37.333 115 -40 217l-1 32c0 38.667 -0.333008 125.334 -1 260.001v496c0 38.667 -0.333008 98.667 -1 180
c-0.666992 38.667 -1 75.667 -1 111c0 176.667 7 310 21 400c10 64 29.333 114 58 150c28 36 62 54 102 54c79.333 0 145.333 -61 198 -183c236 -543.333 445.667 -973.333 629 -1290v58c0 244 -11.333 561.667 -34 953c-0.666992 12.667 -1.66699 27.334 -3 44.001
c-6 80.667 -9 154 -9 220c0 198 26.667 325.667 80 383c24.667 26.667 54.667 40 90 40c40 0 72.333 -13.667 97 -41c42.667 -47.333 64 -144 64 -290c0 -65.333 -4.33301 -141 -13 -227c-2.66699 -23.333 -4 -37 -4 -41c-13.333 -156 -20 -325.333 -20 -508
c0 -168 5.66699 -347.667 17 -539c1.33301 -20 5.66602 -55 12.999 -105zM1054 2664c48 -42 72.001 -84.333 72.001 -127v-8c-4 -54 -44.333 -126.667 -121 -218c-56 -66.667 -118 -100 -186 -100c-58 0 -135.667 35 -233 105c-56.667 41.333 -95 63.333 -115 66
c-11.333 2 -21.333 3 -30 3c-14 0 -24.333 -3.33301 -31 -10s-17 -23.334 -31 -50c-24.667 -48.667 -49.334 -89.334 -74.001 -122c-20.667 -28 -49 -42 -85 -42c-48 0 -84.667 20.333 -110 61c-12 19.333 -18 39 -18 59c0 17.333 4.33301 35.333 13 54
c2.66699 5.33301 6.66699 14.333 12 27c36 79.333 71 139 105 179c60.667 72 134.667 113.333 222 124c8 0.666992 16 1 24 1c62 0 140.333 -25.667 235 -77c56 -31.333 93 -47 111 -47c14.667 0 27.334 12 38.001 36c38.667 80.667 82.667 121 132 121
c21.333 0 40.666 -8 57.999 -24z" />
    <glyph glyph-name="Ograve" unicode="&#xd2;" horiz-adv-x="1412" 
d="M487 1598c-88.667 -69.333 -132.998 -202 -132.998 -398c0 -85.333 8.33301 -182 25 -290c58.667 -388.667 179 -590.667 361 -606c9.33301 -0.666992 18.666 -1 27.999 -1c83.333 0 149.666 30 198.999 90c60.667 74.667 94.667 190 102 346c0.666992 20 1 40 1 60
c0 96.667 -9.33301 191 -28 283c-53.333 256 -126 437 -218 543c-30 34 -61.333 59.667 -94 77c-20.667 11.333 -38.667 17 -54 17c-14 0 -26 -4.66699 -36 -14c-8 -6.66699 -19 -21 -33 -43c-30 -46 -59.667 -69 -89 -69c-10 0 -20.333 1.66699 -31 5zM1349 1009
c8.66699 -76.667 13.001 -149.332 13.001 -217.999c0 -258.667 -61.333 -462 -184 -610c-90 -108.667 -208.667 -168.334 -356 -179.001c-16.667 -1.33301 -34 -2 -52 -2c-220.667 -0 -397.667 103.333 -531 310c-117.333 180.667 -180 400.667 -188 660
c-0.666992 30 -1 59.667 -1 89c0 370.667 75.333 633.667 226 789c106 109.333 247.333 164 424 164c220 0 392 -154.333 516 -463c67.333 -168 111.666 -348 132.999 -540zM1060 2283c53.333 -70.667 80.667 -129 82 -175v-2c0 -42.667 -21.667 -82.667 -65 -120
c-20 -16.667 -40 -25 -60 -25c-20.667 0 -38.334 8.66699 -53.001 26c-106 84 -242.333 224 -409 420c-6 6.66699 -17.333 18 -34 34c-44 40.667 -73.333 74 -88 100c-12 21.333 -18 41.666 -18 61c0 22.667 7.66699 44 23 64c12.667 16.667 25 30 37 40
c20.667 18 42.334 27 65.001 27c24 0 58.333 -15.667 103 -47l6 -4c162.667 -116 298 -246.667 406 -392z" />
    <glyph glyph-name="Oacute" unicode="&#xd3;" horiz-adv-x="1412" 
d="M487 1598c-88.667 -69.333 -132.998 -202 -132.998 -398c0 -85.333 8.33301 -182 25 -290c58.667 -388.667 179 -590.667 361 -606c9.33301 -0.666992 18.666 -1 27.999 -1c83.333 0 149.666 30 198.999 90c60.667 74.667 94.667 190 102 346c0.666992 20 1 40 1 60
c0 96.667 -9.33301 191 -28 283c-53.333 256 -126 437 -218 543c-30 34 -61.333 59.667 -94 77c-20.667 11.333 -38.667 17 -54 17c-14 0 -26 -4.66699 -36 -14c-8 -6.66699 -19 -21 -33 -43c-30 -46 -59.667 -69 -89 -69c-10 0 -20.333 1.66699 -31 5zM1349 1009
c8.66699 -76.667 13.001 -149.332 13.001 -217.999c0 -258.667 -61.333 -462 -184 -610c-90 -108.667 -208.667 -168.334 -356 -179.001c-16.667 -1.33301 -34 -2 -52 -2c-220.667 -0 -397.667 103.333 -531 310c-117.333 180.667 -180 400.667 -188 660
c-0.666992 30 -1 59.667 -1 89c0 370.667 75.333 633.667 226 789c106 109.333 247.333 164 424 164c220 0 392 -154.333 516 -463c67.333 -168 111.666 -348 132.999 -540zM868.003 2681c15.333 -20 23.002 -41.333 23.002 -64c0 -19.333 -6 -39.666 -18 -61
c-14.667 -25.333 -43.334 -58 -86.001 -98c-18.667 -17.333 -31 -29.666 -37 -37c-166.667 -196 -304 -337 -412 -423c-12 -14.667 -28.333 -22 -49 -22s-40.667 8.33301 -60 25c-43.333 36.667 -65 76 -65 118v4c1.33301 45.333 28.666 103.666 81.999 175l5 7
c108 145.333 243.333 276 406 392l5 4c44.667 31.333 79 47 103 47c22.667 0 44.667 -9 66 -27c12 -10 24.333 -23.333 37 -40z" />
    <glyph glyph-name="Ocircumflex" unicode="&#xd4;" horiz-adv-x="1412" 
d="M487 1598c-88.667 -69.333 -132.998 -202 -132.998 -398c0 -85.333 8.33301 -182 25 -290c58.667 -388.667 179 -590.667 361 -606c9.33301 -0.666992 18.666 -1 27.999 -1c83.333 0 149.666 30 198.999 90c60.667 74.667 94.667 190 102 346c0.666992 20 1 40 1 60
c0 96.667 -9.33301 191 -28 283c-53.333 256 -126 437 -218 543c-30 34 -61.333 59.667 -94 77c-20.667 11.333 -38.667 17 -54 17c-14 0 -26 -4.66699 -36 -14c-8 -6.66699 -19 -21 -33 -43c-30 -46 -59.667 -69 -89 -69c-10 0 -20.333 1.66699 -31 5zM1349 1009
c8.66699 -76.667 13.001 -149.332 13.001 -217.999c0 -258.667 -61.333 -462 -184 -610c-90 -108.667 -208.667 -168.334 -356 -179.001c-16.667 -1.33301 -34 -2 -52 -2c-220.667 -0 -397.667 103.333 -531 310c-117.333 180.667 -180 400.667 -188 660
c-0.666992 30 -1 59.667 -1 89c0 370.667 75.333 633.667 226 789c106 109.333 247.333 164 424 164c220 0 392 -154.333 516 -463c67.333 -168 111.666 -348 132.999 -540zM991.003 2348c31.333 -34.667 52.3359 -72.667 63.0029 -114c4.66699 -18 7 -35.333 7 -52
c0 -21.333 -4 -41 -12 -59c-16.667 -38 -45 -57 -85 -57c-24.667 0 -51 8.33301 -79 25c-44 26.667 -96 72.667 -156 138c-50.667 54.667 -86 82 -106 82c-30.667 0 -69.334 -44.667 -116.001 -134c-24.667 -46.667 -57.334 -83.334 -98.001 -110
c-36 -23.333 -71.667 -35 -107 -35c-41.333 0 -71.333 15.667 -90 47c-10 16.667 -15 36 -15 58c0 36 13.667 78.667 41 128c112 205.333 233.667 357.666 365 457l15 11l14 -10c43.333 -30 143.666 -133.333 300.999 -310z" />
    <glyph glyph-name="Otilde" unicode="&#xd5;" horiz-adv-x="1412" 
d="M487 1598c-88.667 -69.333 -132.998 -202 -132.998 -398c0 -85.333 8.33301 -182 25 -290c58.667 -388.667 179 -590.667 361 -606c9.33301 -0.666992 18.666 -1 27.999 -1c83.333 0 149.666 30 198.999 90c60.667 74.667 94.667 190 102 346c0.666992 20 1 40 1 60
c0 96.667 -9.33301 191 -28 283c-53.333 256 -126 437 -218 543c-30 34 -61.333 59.667 -94 77c-20.667 11.333 -38.667 17 -54 17c-14 0 -26 -4.66699 -36 -14c-8 -6.66699 -19 -21 -33 -43c-30 -46 -59.667 -69 -89 -69c-10 0 -20.333 1.66699 -31 5zM1349 1009
c8.66699 -76.667 13.001 -149.332 13.001 -217.999c0 -258.667 -61.333 -462 -184 -610c-90 -108.667 -208.667 -168.334 -356 -179.001c-16.667 -1.33301 -34 -2 -52 -2c-220.667 -0 -397.667 103.333 -531 310c-117.333 180.667 -180 400.667 -188 660
c-0.666992 30 -1 59.667 -1 89c0 370.667 75.333 633.667 226 789c106 109.333 247.333 164 424 164c220 0 392 -154.333 516 -463c67.333 -168 111.666 -348 132.999 -540zM1116 2621c48 -42 72.001 -84.333 72.001 -127v-8c-4 -54 -44.333 -126.667 -121 -218
c-56 -66.667 -118 -100 -186 -100c-58 0 -135.667 35 -233 105c-56.667 41.333 -95 63.333 -115 66c-11.333 2 -21.333 3 -30 3c-14 0 -24.333 -3.33301 -31 -10s-17 -23.334 -31 -50c-24.667 -48.667 -49.334 -89.334 -74.001 -122c-20.667 -28 -49 -42 -85 -42
c-48 0 -84.667 20.333 -110 61c-12 19.333 -18 39 -18 59c0 17.333 4.33301 35.333 13 54c2.66699 5.33301 6.66699 14.333 12 27c36 79.333 71 139 105 179c60.667 72 134.667 113.333 222 124c8 0.666992 16 1 24 1c62 0 140.333 -25.667 235 -77
c56 -31.333 93 -47 111 -47c14.667 0 27.334 12 38.001 36c38.667 80.667 82.667 121 132 121c21.333 0 40.666 -8 57.999 -24z" />
    <glyph glyph-name="Odieresis" unicode="&#xd6;" horiz-adv-x="1412" 
d="M487 1598c-88.667 -69.333 -132.998 -202 -132.998 -398c0 -85.333 8.33301 -182 25 -290c58.667 -388.667 179 -590.667 361 -606c9.33301 -0.666992 18.666 -1 27.999 -1c83.333 0 149.666 30 198.999 90c60.667 74.667 94.667 190 102 346c0.666992 20 1 40 1 60
c0 96.667 -9.33301 191 -28 283c-53.333 256 -126 437 -218 543c-30 34 -61.333 59.667 -94 77c-20.667 11.333 -38.667 17 -54 17c-14 0 -26 -4.66699 -36 -14c-8 -6.66699 -19 -21 -33 -43c-30 -46 -59.667 -69 -89 -69c-10 0 -20.333 1.66699 -31 5zM1349 1009
c8.66699 -76.667 13.001 -149.332 13.001 -217.999c0 -258.667 -61.333 -462 -184 -610c-90 -108.667 -208.667 -168.334 -356 -179.001c-16.667 -1.33301 -34 -2 -52 -2c-220.667 -0 -397.667 103.333 -531 310c-117.333 180.667 -180 400.667 -188 660
c-0.666992 30 -1 59.667 -1 89c0 370.667 75.333 633.667 226 789c106 109.333 247.333 164 424 164c220 0 392 -154.333 516 -463c67.333 -168 111.666 -348 132.999 -540zM494.003 2304c-30.667 -28.667 -65.332 -43 -103.999 -43h-10
c-43.333 3.33301 -78.333 22.666 -105 58c-24 32.667 -36 72.667 -36 120c0 7.33301 0.333008 14.666 1 22c1.33301 18.667 4 37.667 8 57c10 37.333 32 65.333 66 84c23.333 13.333 48.666 20 75.999 20c8 0 15.667 -0.333008 23 -1c38.667 -4.66699 71 -21 97 -49
c29.333 -32 44.333 -73.333 45 -124c-4 -60.667 -24.333 -108.667 -61 -144zM1022 2304c-30.667 -28.667 -65.332 -43 -103.999 -43h-10c-43.333 3.33301 -78.333 22.666 -105 58c-24 32.667 -36 72.667 -36 120c0 7.33301 0.333008 14.666 1 22
c1.33301 18.667 4 37.667 8 57c10 37.333 32 65.333 66 84c24 13.333 49.667 20 77 20c7.33301 0 14.666 -0.333008 21.999 -1c38.667 -4.66699 71 -21 97 -49c29.333 -32 44.333 -73.333 45 -124c-4 -60.667 -24.333 -108.667 -61 -144z" />
    <glyph glyph-name="multiply" unicode="&#xd7;" horiz-adv-x="1189" 
d="M826 687c79.333 -50 134.001 -91.333 164.001 -124c38.667 -41.333 58 -83.333 58 -126c0 -15.333 -2.66699 -31 -8 -47c-15.333 -47.333 -50.333 -71 -105 -71c-64 0 -142.667 29.333 -236 88c-87.333 54.667 -148.333 82 -183 82c-36.667 0 -99.334 -36 -188.001 -108
c-66 -54 -133 -81 -201 -81c-30.667 0 -52.667 10 -66 30c-7.33301 11.333 -11 25 -11 41c0 21.333 6.66699 47.333 20 78c8.66699 20.667 39 56 91 106c44.667 43.333 74.667 75.666 90 96.999c17.333 23.333 26 43.666 26 60.999c0 8.66699 -2.66699 16.667 -8 24
c-27.333 36.667 -51.333 77.667 -72 123c-24 54 -36 100.333 -36 139c0 24.667 4.66699 46.334 14 65.001c22.667 46 71.667 69 147 69c34.667 -0.666992 64 -15.334 88 -44.001c13.333 -16.667 28.666 -45.667 45.999 -87c25.333 -59.333 49.333 -91.666 72 -96.999
c4 -0.666992 8 -1 12 -1c42 0 106.667 45.333 194 136c110 114 198 171 264 171h18c68 0 108 -19 120 -57c2 -6.66699 3 -13.667 3 -21c0 -49.333 -45.667 -119.666 -137 -210.999c-64 -63.333 -141.333 -129 -232 -197c10.667 -8 29.334 -20.667 56.001 -38z" />
    </font>
</defs>
</svg>
